NotoSansWarangCiti-Regular.ufo
<glyph name="uni118A0" format="2">
  <advance width="611"/>
  <unicode hex="118A0"/>
  <outline>
    <contour>
      <point x="260" y="0" type="line"/>
      <point x="350" y="0" type="line"/>
      <point x="601" y="702" type="line"/>
      <point x="515" y="728" type="line"/>
      <point x="350" y="258" type="line" smooth="yes"/>
      <point x="329" y="198"/>
      <point x="314" y="147"/>
      <point x="305" y="100" type="curve"/>
      <point x="295" y="147"/>
      <point x="281" y="197"/>
      <point x="260" y="256" type="curve" smooth="yes"/>
      <point x="94" y="728" type="line"/>
      <point x="10" y="702" type="line"/>
    </contour>
  </outline>
</glyph>
<glyph name="uni118A1" format="2">
  <advance width="678"/>
  <unicode hex="118A1"/>
  <outline>
    <contour>
      <point x="30" y="0" type="line"/>
      <point x="369" y="0" type="line"/>
      <point x="369" y="635" type="line"/>
      <point x="648" y="635" type="line"/>
      <point x="648" y="714" type="line"/>
      <point x="279" y="714" type="line"/>
      <point x="279" y="79" type="line"/>
      <point x="30" y="79" type="line"/>
    </contour>
  </outline>
</glyph>
<glyph name="uni118A2" format="2">
  <advance width="621"/>
  <unicode hex="118A2"/>
  <outline>
    <contour>
      <point x="181" y="0" type="line"/>
      <point x="271" y="0" type="line"/>
      <point x="271" y="373" type="line"/>
      <point x="591" y="373" type="line"/>
      <point x="591" y="452" type="line"/>
      <point x="271" y="452" type="line"/>
      <point x="271" y="635" type="line"/>
      <point x="590" y="635" type="line"/>
      <point x="590" y="714" type="line"/>
      <point x="181" y="714" type="line"/>
      <point x="181" y="452" type="line"/>
      <point x="30" y="452" type="line"/>
      <point x="30" y="373" type="line"/>
      <point x="181" y="373" type="line"/>
    </contour>
  </outline>
</glyph>
<glyph name="uni118A3" format="2">
  <advance width="712"/>
  <unicode hex="118A3"/>
  <outline>
    <contour>
      <point x="90" y="0" type="line"/>
      <point x="682" y="0" type="line"/>
      <point x="682" y="80" type="line"/>
      <point x="180" y="80" type="line"/>
      <point x="180" y="714" type="line"/>
      <point x="90" y="714" type="line"/>
    </contour>
  </outline>
</glyph>
<glyph name="uni118A4" format="2">
  <advance width="642"/>
  <unicode hex="118A4"/>
  <outline>
    <contour>
      <point x="30" y="0" type="line"/>
      <point x="369" y="0" type="line"/>
      <point x="369" y="416" type="line"/>
      <point x="612" y="674" type="line"/>
      <point x="551" y="726" type="line"/>
      <point x="324" y="482" type="line"/>
      <point x="97" y="726" type="line"/>
      <point x="36" y="674" type="line"/>
      <point x="279" y="415" type="line"/>
      <point x="279" y="79" type="line"/>
      <point x="30" y="79" type="line"/>
    </contour>
  </outline>
</glyph>
<glyph name="uni118A5" format="2">
  <advance width="758"/>
  <unicode hex="118A5"/>
  <outline>
    <contour>
      <point x="30" y="0" type="line"/>
      <point x="269" y="0" type="line"/>
      <point x="269" y="373" type="line"/>
      <point x="479" y="373" type="line"/>
      <point x="479" y="79" type="line"/>
      <point x="330" y="79" type="line"/>
      <point x="330" y="0" type="line"/>
      <point x="569" y="0" type="line"/>
      <point x="569" y="635" type="line"/>
      <point x="728" y="635" type="line"/>
      <point x="728" y="714" type="line"/>
      <point x="479" y="714" type="line"/>
      <point x="479" y="452" type="line"/>
      <point x="269" y="452" type="line"/>
      <point x="269" y="635" type="line"/>
      <point x="428" y="635" type="line"/>
      <point x="428" y="714" type="line"/>
      <point x="179" y="714" type="line"/>
      <point x="179" y="79" type="line"/>
      <point x="30" y="79" type="line"/>
    </contour>
  </outline>
</glyph>
<glyph name="uni118A6" format="2">
  <advance width="710"/>
  <unicode hex="118A6"/>
  <outline>
    <contour>
      <point x="181" y="0" type="line"/>
      <point x="680" y="0" type="line"/>
      <point x="680" y="79" type="line"/>
      <point x="271" y="79" type="line"/>
      <point x="271" y="373" type="line"/>
      <point x="680" y="373" type="line"/>
      <point x="680" y="452" type="line"/>
      <point x="271" y="452" type="line"/>
      <point x="271" y="635" type="line"/>
      <point x="680" y="635" type="line"/>
      <point x="680" y="714" type="line"/>
      <point x="181" y="714" type="line"/>
      <point x="181" y="452" type="line"/>
      <point x="30" y="452" type="line"/>
      <point x="30" y="373" type="line"/>
      <point x="181" y="373" type="line"/>
    </contour>
  </outline>
</glyph>
<glyph name="uni118A7" format="2">
  <advance width="756"/>
  <unicode hex="118A7"/>
  <outline>
    <contour>
      <point x="90" y="0" type="line"/>
      <point x="180" y="0" type="line"/>
      <point x="180" y="373" type="line"/>
      <point x="487" y="373" type="line"/>
      <point x="572" y="260" type="line"/>
      <point x="726" y="260" type="line"/>
      <point x="726" y="339" type="line"/>
      <point x="609" y="339" type="line"/>
      <point x="530" y="452" type="line"/>
      <point x="180" y="452" type="line"/>
      <point x="180" y="714" type="line"/>
      <point x="90" y="714" type="line"/>
    </contour>
  </outline>
</glyph>
<glyph name="uni118A8" format="2">
  <advance width="652"/>
  <unicode hex="118A8"/>
  <outline>
    <contour>
      <point x="159" y="0" type="line"/>
      <point x="247" y="0" type="line"/>
      <point x="642" y="714" type="line"/>
      <point x="10" y="714" type="line"/>
    </contour>
    <contour>
      <point x="220" y="119" type="line"/>
      <point x="119" y="635" type="line"/>
      <point x="499" y="635" type="line"/>
    </contour>
  </outline>
</glyph>
<glyph name="uni118A9" format="2">
  <advance width="668"/>
  <unicode hex="118A9"/>
  <outline>
    <contour>
      <point x="71" y="0" type="line"/>
      <point x="618" y="0" type="line"/>
      <point x="618" y="204" type="line"/>
      <point x="528" y="204" type="line"/>
      <point x="528" y="80" type="line"/>
      <point x="180" y="80" type="line"/>
      <point x="596" y="646" type="line"/>
      <point x="596" y="714" type="line"/>
      <point x="50" y="714" type="line"/>
      <point x="50" y="500" type="line"/>
      <point x="140" y="500" type="line"/>
      <point x="140" y="634" type="line"/>
      <point x="487" y="634" type="line"/>
      <point x="71" y="68" type="line"/>
    </contour>
  </outline>
</glyph>
<glyph name="uni118AA" format="2">
  <advance width="669"/>
  <unicode hex="118AA"/>
  <outline>
    <contour>
      <point x="249" y="-10" type="curve" smooth="yes"/>
      <point x="444" y="-10"/>
      <point x="609" y="172"/>
      <point x="609" y="372" type="curve" smooth="yes"/>
      <point x="609" y="498"/>
      <point x="526" y="551"/>
      <point x="420" y="551" type="curve" smooth="yes"/>
      <point x="393" y="551"/>
      <point x="368" y="547"/>
      <point x="346" y="541" type="curve"/>
      <point x="401" y="663" type="line"/>
      <point x="348" y="730" type="line"/>
      <point x="40" y="579" type="line"/>
      <point x="115" y="411" type="line"/>
      <point x="190" y="444" type="line"/>
      <point x="150" y="536" type="line"/>
      <point x="322" y="626" type="line"/>
      <point x="306" y="642" type="line"/>
      <point x="230" y="475" type="line"/>
      <point x="297" y="433" type="line"/>
      <point x="309" y="445"/>
      <point x="358" y="473"/>
      <point x="410" y="473" type="curve" smooth="yes"/>
      <point x="457" y="473"/>
      <point x="514" y="459"/>
      <point x="514" y="372" type="curve" smooth="yes"/>
      <point x="514" y="242"/>
      <point x="402" y="68"/>
      <point x="249" y="68" type="curve" smooth="yes"/>
      <point x="195" y="68"/>
      <point x="160" y="92"/>
      <point x="160" y="133" type="curve" smooth="yes"/>
      <point x="160" y="230"/>
      <point x="292" y="296"/>
      <point x="402" y="343" type="curve"/>
      <point x="368" y="419" type="line"/>
      <point x="246" y="374"/>
      <point x="64" y="269"/>
      <point x="64" y="133" type="curve" smooth="yes"/>
      <point x="64" y="54"/>
      <point x="118" y="-10"/>
    </contour>
  </outline>
</glyph>
<glyph name="uni118AB" format="2">
  <advance width="680"/>
  <unicode hex="118AB"/>
  <outline>
    <contour>
      <point x="90" y="0" type="line"/>
      <point x="180" y="0" type="line"/>
      <point x="180" y="443" type="line"/>
      <point x="500" y="611" type="line"/>
      <point x="500" y="0" type="line"/>
      <point x="590" y="0" type="line"/>
      <point x="590" y="658" type="line"/>
      <point x="533" y="724" type="line"/>
      <point x="90" y="490" type="line"/>
    </contour>
  </outline>
</glyph>
<glyph name="uni118AC" format="2">
  <advance width="670"/>
  <unicode hex="118AC"/>
  <outline>
    <contour>
      <point x="90" y="0" type="line"/>
      <point x="509" y="0" type="line"/>
      <point x="509" y="373" type="line"/>
      <point x="640" y="373" type="line"/>
      <point x="640" y="452" type="line"/>
      <point x="509" y="452" type="line"/>
      <point x="509" y="714" type="line"/>
      <point x="90" y="714" type="line"/>
      <point x="90" y="373" type="line"/>
      <point x="419" y="373" type="line"/>
      <point x="419" y="79" type="line"/>
      <point x="90" y="79" type="line"/>
    </contour>
    <contour>
      <point x="180" y="452" type="line"/>
      <point x="180" y="635" type="line"/>
      <point x="419" y="635" type="line"/>
      <point x="419" y="452" type="line"/>
    </contour>
  </outline>
</glyph>
<glyph name="uni118AD" format="2">
  <advance width="817"/>
  <unicode hex="118AD"/>
  <outline>
    <contour>
      <point x="245" y="-10" type="curve" smooth="yes"/>
      <point x="316" y="-10"/>
      <point x="373" y="22"/>
      <point x="408" y="72" type="curve"/>
      <point x="444" y="22"/>
      <point x="501" y="-10"/>
      <point x="572" y="-10" type="curve" smooth="yes"/>
      <point x="695" y="-10"/>
      <point x="777" y="87"/>
      <point x="777" y="205" type="curve" smooth="yes"/>
      <point x="777" y="324"/>
      <point x="695" y="421"/>
      <point x="572" y="421" type="curve" smooth="yes"/>
      <point x="526" y="421"/>
      <point x="486" y="407"/>
      <point x="454" y="384" type="curve"/>
      <point x="454" y="714" type="line"/>
      <point x="364" y="714" type="line"/>
      <point x="364" y="383" type="line"/>
      <point x="331" y="407"/>
      <point x="291" y="421"/>
      <point x="245" y="421" type="curve" smooth="yes"/>
      <point x="122" y="421"/>
      <point x="40" y="324"/>
      <point x="40" y="205" type="curve" smooth="yes"/>
      <point x="40" y="87"/>
      <point x="122" y="-10"/>
    </contour>
    <contour>
      <point x="245" y="64" type="curve" smooth="yes"/>
      <point x="171" y="64"/>
      <point x="123" y="127"/>
      <point x="123" y="205" type="curve" smooth="yes"/>
      <point x="123" y="283"/>
      <point x="171" y="346"/>
      <point x="245" y="346" type="curve" smooth="yes"/>
      <point x="319" y="346"/>
      <point x="367" y="283"/>
      <point x="367" y="205" type="curve" smooth="yes"/>
      <point x="367" y="127"/>
      <point x="319" y="64"/>
    </contour>
    <contour>
      <point x="572" y="64" type="curve" smooth="yes"/>
      <point x="498" y="64"/>
      <point x="450" y="127"/>
      <point x="450" y="205" type="curve" smooth="yes"/>
      <point x="450" y="283"/>
      <point x="498" y="346"/>
      <point x="572" y="346" type="curve" smooth="yes"/>
      <point x="646" y="346"/>
      <point x="694" y="283"/>
      <point x="694" y="205" type="curve" smooth="yes"/>
      <point x="694" y="127"/>
      <point x="646" y="64"/>
    </contour>
  </outline>
</glyph>
<glyph name="uni118AE" format="2">
  <advance width="619"/>
  <unicode hex="118AE"/>
  <outline>
    <contour>
      <point x="90" y="0" type="line"/>
      <point x="589" y="0" type="line"/>
      <point x="589" y="79" type="line"/>
      <point x="180" y="79" type="line"/>
      <point x="180" y="373" type="line"/>
      <point x="589" y="373" type="line"/>
      <point x="589" y="452" type="line"/>
      <point x="180" y="452" type="line"/>
      <point x="180" y="635" type="line"/>
      <point x="589" y="635" type="line"/>
      <point x="589" y="714" type="line"/>
      <point x="90" y="714" type="line"/>
    </contour>
  </outline>
</glyph>
<glyph name="uni118AF" format="2">
  <advance width="729"/>
  <unicode hex="118AF"/>
  <outline>
    <contour>
      <point x="549" y="0" type="line"/>
      <point x="639" y="0" type="line"/>
      <point x="639" y="714" type="line"/>
      <point x="549" y="714" type="line"/>
      <point x="549" y="452" type="line"/>
      <point x="180" y="452" type="line"/>
      <point x="180" y="635" type="line"/>
      <point x="442" y="635" type="line"/>
      <point x="442" y="714" type="line"/>
      <point x="90" y="714" type="line"/>
      <point x="90" y="373" type="line"/>
      <point x="549" y="373" type="line"/>
    </contour>
  </outline>
</glyph>
<glyph name="uni118B0" format="2">
  <advance width="748"/>
  <unicode hex="118B0"/>
  <outline>
    <contour>
      <point x="487" y="-10" type="curve" smooth="yes"/>
      <point x="614" y="-10"/>
      <point x="658" y="60"/>
      <point x="658" y="227" type="curve" smooth="yes"/>
      <point x="658" y="714" type="line"/>
      <point x="569" y="714" type="line"/>
      <point x="569" y="229" type="line" smooth="yes"/>
      <point x="569" y="129"/>
      <point x="563" y="68"/>
      <point x="492" y="68" type="curve" smooth="yes"/>
      <point x="423" y="68"/>
      <point x="419" y="123"/>
      <point x="419" y="229" type="curve" smooth="yes"/>
      <point x="419" y="485" type="line" smooth="yes"/>
      <point x="419" y="662"/>
      <point x="384" y="724"/>
      <point x="261" y="724" type="curve" smooth="yes"/>
      <point x="134" y="724"/>
      <point x="90" y="654"/>
      <point x="90" y="487" type="curve" smooth="yes"/>
      <point x="90" y="0" type="line"/>
      <point x="179" y="0" type="line"/>
      <point x="179" y="485" type="line" smooth="yes"/>
      <point x="179" y="585"/>
      <point x="185" y="646"/>
      <point x="256" y="646" type="curve" smooth="yes"/>
      <point x="325" y="646"/>
      <point x="329" y="591"/>
      <point x="329" y="485" type="curve" smooth="yes"/>
      <point x="329" y="229" type="line" smooth="yes"/>
      <point x="329" y="52"/>
      <point x="364" y="-10"/>
    </contour>
  </outline>
</glyph>
<glyph name="uni118B1" format="2">
  <advance width="535"/>
  <unicode hex="118B1"/>
  <outline>
    <contour>
      <point x="90" y="0" type="line"/>
      <point x="180" y="0" type="line"/>
      <point x="180" y="457" type="line"/>
      <point x="222" y="457" type="line" smooth="yes"/>
      <point x="390" y="457"/>
      <point x="499" y="587"/>
      <point x="505" y="717" type="curve"/>
      <point x="415" y="728" type="line"/>
      <point x="413" y="637"/>
      <point x="340" y="536"/>
      <point x="223" y="536" type="curve" smooth="yes"/>
      <point x="119" y="536" type="line"/>
      <point x="90" y="470" type="line"/>
    </contour>
  </outline>
</glyph>
<glyph name="uni118B2" format="2">
  <advance width="713"/>
  <unicode hex="118B2"/>
  <outline>
    <contour>
      <point x="30" y="0" type="line"/>
      <point x="620" y="0" type="line"/>
      <point x="683" y="298" type="line"/>
      <point x="594" y="298" type="line"/>
      <point x="546" y="80" type="line"/>
      <point x="240" y="80" type="line"/>
      <point x="240" y="714" type="line"/>
      <point x="150" y="714" type="line"/>
      <point x="150" y="79" type="line"/>
      <point x="30" y="79" type="line"/>
    </contour>
  </outline>
</glyph>
<glyph name="uni118B3" format="2">
  <advance width="714"/>
  <unicode hex="118B3"/>
  <outline>
    <contour>
      <point x="422" y="-10" type="line"/>
      <point x="684" y="221" type="line"/>
      <point x="630" y="283" type="line"/>
      <point x="420" y="103" type="line"/>
      <point x="420" y="698" type="line"/>
      <point x="347" y="724" type="line"/>
      <point x="30" y="571" type="line"/>
      <point x="30" y="541" type="line"/>
      <point x="139" y="360" type="line"/>
      <point x="212" y="406" type="line"/>
      <point x="135" y="529" type="line"/>
      <point x="330" y="626" type="line"/>
      <point x="330" y="16" type="line"/>
    </contour>
  </outline>
</glyph>
<glyph name="uni118B4" format="2">
  <advance width="730"/>
  <unicode hex="118B4"/>
  <outline>
    <contour>
      <point x="362" y="-10" type="curve" smooth="yes"/>
      <point x="551" y="-10"/>
      <point x="640" y="104"/>
      <point x="640" y="252" type="curve" smooth="yes"/>
      <point x="640" y="714" type="line"/>
      <point x="551" y="714" type="line"/>
      <point x="551" y="452" type="line"/>
      <point x="281" y="452" type="line"/>
      <point x="281" y="373" type="line"/>
      <point x="551" y="373" type="line"/>
      <point x="551" y="252" type="line" smooth="yes"/>
      <point x="551" y="144"/>
      <point x="496" y="68"/>
      <point x="367" y="68" type="curve" smooth="yes"/>
      <point x="242" y="68"/>
      <point x="180" y="135"/>
      <point x="180" y="251" type="curve" smooth="yes"/>
      <point x="180" y="714" type="line"/>
      <point x="90" y="714" type="line"/>
      <point x="90" y="254" type="line" smooth="yes"/>
      <point x="90" y="95"/>
      <point x="184" y="-10"/>
    </contour>
  </outline>
</glyph>
<glyph name="uni118B5" format="2">
  <advance width="853"/>
  <unicode hex="118B5"/>
  <outline>
    <contour>
      <point x="426" y="-10" type="curve" smooth="yes"/>
      <point x="639" y="-10"/>
      <point x="793" y="156"/>
      <point x="793" y="359" type="curve" smooth="yes"/>
      <point x="793" y="562"/>
      <point x="639" y="726"/>
      <point x="426" y="726" type="curve" smooth="yes"/>
      <point x="213" y="726"/>
      <point x="60" y="562"/>
      <point x="60" y="359" type="curve" smooth="yes"/>
      <point x="60" y="156"/>
      <point x="213" y="-10"/>
    </contour>
    <contour>
      <point x="426" y="68" type="curve" smooth="yes"/>
      <point x="265" y="68"/>
      <point x="153" y="196"/>
      <point x="153" y="357" type="curve" smooth="yes"/>
      <point x="153" y="518"/>
      <point x="265" y="647"/>
      <point x="426" y="647" type="curve" smooth="yes"/>
      <point x="587" y="647"/>
      <point x="700" y="518"/>
      <point x="700" y="357" type="curve" smooth="yes"/>
      <point x="700" y="196"/>
      <point x="587" y="68"/>
    </contour>
  </outline>
</glyph>
<glyph name="uni118B6" format="2">
  <advance width="722"/>
  <unicode hex="118B6"/>
  <outline>
    <contour>
      <point x="30" y="0" type="line"/>
      <point x="485" y="0" type="line"/>
      <point x="485" y="176" type="line"/>
      <point x="638" y="57" type="line"/>
      <point x="692" y="119" type="line"/>
      <point x="485" y="280" type="line"/>
      <point x="485" y="686" type="line"/>
      <point x="394" y="724" type="line"/>
      <point x="97" y="502" type="line"/>
      <point x="97" y="478" type="line"/>
      <point x="395" y="246" type="line"/>
      <point x="395" y="80" type="line"/>
      <point x="30" y="80" type="line"/>
    </contour>
    <contour>
      <point x="395" y="350" type="line"/>
      <point x="215" y="490" type="line"/>
      <point x="395" y="628" type="line"/>
    </contour>
  </outline>
</glyph>
<glyph name="uni118B7" format="2">
  <advance width="811"/>
  <unicode hex="118B7"/>
  <outline>
    <contour>
      <point x="384" y="-10" type="line"/>
      <point x="427" y="-10" type="line"/>
      <point x="781" y="346" type="line"/>
      <point x="781" y="368" type="line"/>
      <point x="427" y="724" type="line"/>
      <point x="384" y="724" type="line"/>
      <point x="30" y="368" type="line"/>
      <point x="30" y="346" type="line"/>
    </contour>
    <contour>
      <point x="405" y="88" type="line"/>
      <point x="136" y="357" type="line"/>
      <point x="405" y="626" type="line"/>
      <point x="675" y="357" type="line"/>
    </contour>
  </outline>
</glyph>
<glyph name="uni118B8" format="2">
  <advance width="791"/>
  <unicode hex="118B8"/>
  <outline>
    <contour>
      <point x="408" y="-10" type="curve" smooth="yes"/>
      <point x="597" y="-10"/>
      <point x="686" y="104"/>
      <point x="686" y="252" type="curve" smooth="yes"/>
      <point x="686" y="635" type="line"/>
      <point x="777" y="635" type="line"/>
      <point x="777" y="714" type="line"/>
      <point x="495" y="714" type="line"/>
      <point x="495" y="635" type="line"/>
      <point x="597" y="635" type="line"/>
      <point x="597" y="252" type="line" smooth="yes"/>
      <point x="597" y="144"/>
      <point x="542" y="68"/>
      <point x="413" y="68" type="curve" smooth="yes"/>
      <point x="288" y="68"/>
      <point x="226" y="135"/>
      <point x="226" y="251" type="curve" smooth="yes"/>
      <point x="226" y="635" type="line"/>
      <point x="328" y="635" type="line"/>
      <point x="328" y="714" type="line"/>
      <point x="46" y="714" type="line"/>
      <point x="46" y="635" type="line"/>
      <point x="136" y="635" type="line"/>
      <point x="136" y="254" type="line" smooth="yes"/>
      <point x="136" y="95"/>
      <point x="230" y="-10"/>
    </contour>
  </outline>
</glyph>
<glyph name="uni118B9" format="2">
  <advance width="913"/>
  <unicode hex="118B9"/>
  <outline>
    <contour>
      <point x="386" y="-10" type="curve" smooth="yes"/>
      <point x="575" y="-10"/>
      <point x="664" y="104"/>
      <point x="664" y="252" type="curve" smooth="yes"/>
      <point x="664" y="525" type="line" smooth="yes"/>
      <point x="664" y="591"/>
      <point x="670" y="646"/>
      <point x="721" y="646" type="curve" smooth="yes"/>
      <point x="760" y="646"/>
      <point x="785" y="599"/>
      <point x="794" y="497" type="curve"/>
      <point x="883" y="513" type="line"/>
      <point x="869" y="635"/>
      <point x="823" y="724"/>
      <point x="719" y="724" type="curve" smooth="yes"/>
      <point x="619" y="724"/>
      <point x="575" y="665"/>
      <point x="575" y="523" type="curve" smooth="yes"/>
      <point x="575" y="252" type="line" smooth="yes"/>
      <point x="575" y="144"/>
      <point x="520" y="68"/>
      <point x="391" y="68" type="curve" smooth="yes"/>
      <point x="266" y="68"/>
      <point x="174" y="135"/>
      <point x="174" y="293" type="curve" smooth="yes"/>
      <point x="174" y="438"/>
      <point x="245" y="547"/>
      <point x="464" y="635" type="curve"/>
      <point x="464" y="714" type="line"/>
      <point x="30" y="714" type="line"/>
      <point x="30" y="635" type="line"/>
      <point x="325" y="635" type="line"/>
      <point x="325" y="645" type="line"/>
      <point x="166" y="576"/>
      <point x="84" y="446"/>
      <point x="84" y="292" type="curve" smooth="yes"/>
      <point x="84" y="80"/>
      <point x="217" y="-10"/>
    </contour>
  </outline>
</glyph>
<glyph name="uni118BA" format="2">
  <advance width="734"/>
  <unicode hex="118BA"/>
  <outline>
    <contour>
      <point x="388" y="-10" type="curve" smooth="yes"/>
      <point x="593" y="-10"/>
      <point x="674" y="130"/>
      <point x="674" y="280" type="curve" smooth="yes"/>
      <point x="674" y="483"/>
      <point x="492" y="638"/>
      <point x="224" y="743" type="curve"/>
      <point x="188" y="665" type="line"/>
      <point x="402" y="571"/>
      <point x="579" y="461"/>
      <point x="579" y="272" type="curve" smooth="yes"/>
      <point x="579" y="169"/>
      <point x="533" y="68"/>
      <point x="397" y="68" type="curve" smooth="yes"/>
      <point x="291" y="68"/>
      <point x="228" y="129"/>
      <point x="228" y="207" type="curve" smooth="yes"/>
      <point x="228" y="283"/>
      <point x="263" y="347"/>
      <point x="364" y="373" type="curve"/>
      <point x="364" y="452" type="line"/>
      <point x="30" y="452" type="line"/>
      <point x="30" y="373" type="line"/>
      <point x="240" y="373" type="line"/>
      <point x="244" y="386" type="line"/>
      <point x="182" y="367"/>
      <point x="133" y="291"/>
      <point x="133" y="205" type="curve" smooth="yes"/>
      <point x="133" y="87"/>
      <point x="220" y="-10"/>
    </contour>
  </outline>
</glyph>
<glyph name="uni118BB" format="2">
  <advance width="651"/>
  <unicode hex="118BB"/>
  <outline>
    <contour>
      <point x="49" y="-31" type="line"/>
      <point x="248" y="10"/>
      <point x="552" y="131"/>
      <point x="552" y="304" type="curve" smooth="yes"/>
      <point x="552" y="398"/>
      <point x="500" y="444"/>
      <point x="387" y="444" type="curve" smooth="yes"/>
      <point x="329" y="444"/>
      <point x="285" y="426"/>
      <point x="247" y="406" type="curve"/>
      <point x="268" y="555" type="line"/>
      <point x="571" y="651" type="line"/>
      <point x="545" y="730" type="line"/>
      <point x="189" y="620" type="line"/>
      <point x="147" y="343" type="line"/>
      <point x="210" y="287" type="line"/>
      <point x="256" y="331"/>
      <point x="314" y="360"/>
      <point x="377" y="360" type="curve" smooth="yes"/>
      <point x="433" y="360"/>
      <point x="456" y="341"/>
      <point x="456" y="303" type="curve" smooth="yes"/>
      <point x="456" y="176"/>
      <point x="165" y="71"/>
      <point x="30" y="46" type="curve"/>
    </contour>
  </outline>
</glyph>
<glyph name="uni118BC" format="2">
  <advance width="556"/>
  <unicode hex="118BC"/>
  <outline>
    <contour>
      <point x="233" y="0" type="line"/>
      <point x="323" y="0" type="line"/>
      <point x="323" y="635" type="line"/>
      <point x="545" y="635" type="line"/>
      <point x="545" y="714" type="line"/>
      <point x="10" y="714" type="line"/>
      <point x="10" y="635" type="line"/>
      <point x="233" y="635" type="line"/>
    </contour>
  </outline>
</glyph>
<glyph name="uni118BD" format="2">
  <advance width="801"/>
  <unicode hex="118BD"/>
  <outline>
    <contour>
      <point x="432" y="-10" type="curve" smooth="yes"/>
      <point x="621" y="-10"/>
      <point x="710" y="104"/>
      <point x="710" y="252" type="curve" smooth="yes"/>
      <point x="710" y="714" type="line"/>
      <point x="621" y="714" type="line"/>
      <point x="621" y="382" type="line"/>
      <point x="250" y="382" type="line"/>
      <point x="250" y="714" type="line"/>
      <point x="30" y="714" type="line"/>
      <point x="30" y="635" type="line"/>
      <point x="160" y="635" type="line"/>
      <point x="160" y="254" type="line" smooth="yes"/>
      <point x="160" y="95"/>
      <point x="254" y="-10"/>
    </contour>
    <contour>
      <point x="437" y="68" type="curve" smooth="yes"/>
      <point x="312" y="68"/>
      <point x="250" y="135"/>
      <point x="250" y="251" type="curve" smooth="yes"/>
      <point x="250" y="303" type="line"/>
      <point x="621" y="303" type="line"/>
      <point x="621" y="252" type="line" smooth="yes"/>
      <point x="621" y="144"/>
      <point x="566" y="68"/>
    </contour>
  </outline>
</glyph>
<glyph name="uni118BE" format="2">
  <advance width="726"/>
  <unicode hex="118BE"/>
  <outline>
    <contour>
      <point x="485" y="-12" type="line"/>
      <point x="523" y="60" type="line"/>
      <point x="284" y="169" type="line"/>
      <point x="696" y="425" type="line"/>
      <point x="655" y="494" type="line"/>
      <point x="240" y="237" type="line"/>
      <point x="240" y="587" type="line"/>
      <point x="90" y="733" type="line"/>
      <point x="30" y="675" type="line"/>
      <point x="150" y="560" type="line"/>
      <point x="150" y="137" type="line"/>
    </contour>
  </outline>
</glyph>
<glyph name="uni118BF" format="2">
  <advance width="801"/>
  <unicode hex="118BF"/>
  <outline>
    <contour>
      <point x="656" y="-16" type="line"/>
      <point x="724" y="32"/>
      <point x="751" y="110"/>
      <point x="751" y="182" type="curve" smooth="yes"/>
      <point x="751" y="315"/>
      <point x="641" y="452"/>
      <point x="443" y="452" type="curve" smooth="yes"/>
      <point x="369" y="452" type="line"/>
      <point x="369" y="635" type="line"/>
      <point x="648" y="635" type="line"/>
      <point x="648" y="714" type="line"/>
      <point x="279" y="714" type="line"/>
      <point x="279" y="79" type="line"/>
      <point x="30" y="79" type="line"/>
      <point x="30" y="0" type="line"/>
      <point x="369" y="0" type="line"/>
      <point x="369" y="373" type="line"/>
      <point x="435" y="373" type="line" smooth="yes"/>
      <point x="587" y="373"/>
      <point x="661" y="270"/>
      <point x="661" y="178" type="curve" smooth="yes"/>
      <point x="661" y="123"/>
      <point x="642" y="78"/>
      <point x="604" y="49" type="curve"/>
    </contour>
  </outline>
</glyph>
<glyph name="uni118C0" format="2">
  <advance width="492"/>
  <unicode hex="118C0"/>
  <outline>
    <contour>
      <point x="234" y="-10" type="curve" smooth="yes"/>
      <point x="321" y="-10"/>
      <point x="354" y="62"/>
      <point x="384" y="151" type="curve" smooth="yes"/>
      <point x="443" y="327" type="line" smooth="yes"/>
      <point x="456" y="366"/>
      <point x="488" y="427"/>
      <point x="513" y="451" type="curve"/>
      <point x="454" y="499" type="line"/>
      <point x="420" y="469"/>
      <point x="393" y="412"/>
      <point x="372" y="349" type="curve" smooth="yes"/>
      <point x="317" y="182" type="line" smooth="yes"/>
      <point x="299" y="126"/>
      <point x="277" y="64"/>
      <point x="235" y="64" type="curve" smooth="yes"/>
      <point x="210" y="64"/>
      <point x="197" y="94"/>
      <point x="197" y="139" type="curve" smooth="yes"/>
      <point x="197" y="154"/>
      <point x="198" y="171"/>
      <point x="200" y="191" type="curve" smooth="yes"/>
      <point x="216" y="325" type="line" smooth="yes"/>
      <point x="218" y="343"/>
      <point x="219" y="360"/>
      <point x="219" y="389" type="curve" smooth="yes"/>
      <point x="219" y="469"/>
      <point x="179" y="504"/>
      <point x="124" y="504" type="curve" smooth="yes"/>
      <point x="76" y="504"/>
      <point x="34" y="473"/>
      <point x="10" y="406" type="curve"/>
      <point x="74" y="372" type="line"/>
      <point x="87" y="418"/>
      <point x="105" y="430"/>
      <point x="119" y="430" type="curve" smooth="yes"/>
      <point x="133" y="430"/>
      <point x="142" y="419"/>
      <point x="142" y="391" type="curve" smooth="yes"/>
      <point x="142" y="373"/>
      <point x="140" y="350"/>
      <point x="136" y="318" type="curve" smooth="yes"/>
      <point x="121" y="185" type="line" smooth="yes"/>
      <point x="119" y="169"/>
      <point x="119" y="153"/>
      <point x="119" y="131" type="curve" smooth="yes"/>
      <point x="119" y="46"/>
      <point x="161" y="-10"/>
    </contour>
  </outline>
</glyph>
<glyph name="uni118C1" format="2">
  <advance width="504"/>
  <unicode hex="118C1"/>
  <outline>
    <contour>
      <point x="125" y="-10" type="curve" smooth="yes"/>
      <point x="199" y="-10"/>
      <point x="232" y="58"/>
      <point x="265" y="151" type="curve" smooth="yes"/>
      <point x="326" y="321" type="line" smooth="yes"/>
      <point x="344" y="371"/>
      <point x="366" y="430"/>
      <point x="391" y="430" type="curve" smooth="yes"/>
      <point x="416" y="430"/>
      <point x="427" y="417"/>
      <point x="440" y="371" type="curve"/>
      <point x="504" y="406" type="line"/>
      <point x="480" y="473"/>
      <point x="448" y="504"/>
      <point x="391" y="504" type="curve" smooth="yes"/>
      <point x="327" y="504"/>
      <point x="288" y="436"/>
      <point x="255" y="343" type="curve" smooth="yes"/>
      <point x="194" y="173" type="line" smooth="yes"/>
      <point x="173" y="114"/>
      <point x="155" y="64"/>
      <point x="124" y="64" type="curve" smooth="yes"/>
      <point x="89" y="64"/>
      <point x="66" y="78"/>
      <point x="33" y="104" type="curve"/>
      <point x="0" y="38" type="line"/>
      <point x="40" y="9"/>
      <point x="68" y="-10"/>
    </contour>
  </outline>
</glyph>
<glyph name="uni118C2" format="2">
  <advance width="444"/>
  <unicode hex="118C2"/>
  <outline>
    <contour>
      <point x="92" y="0" type="line"/>
      <point x="170" y="0" type="line"/>
      <point x="195" y="224" type="line"/>
      <point x="378" y="224" type="line"/>
      <point x="378" y="292" type="line"/>
      <point x="203" y="292" type="line"/>
      <point x="208" y="336" type="line" smooth="yes"/>
      <point x="217" y="411"/>
      <point x="264" y="430"/>
      <point x="323" y="430" type="curve" smooth="yes"/>
      <point x="349" y="430"/>
      <point x="400" y="425"/>
      <point x="417" y="419" type="curve"/>
      <point x="424" y="488" type="line"/>
      <point x="406" y="497"/>
      <point x="348" y="504"/>
      <point x="316" y="504" type="curve" smooth="yes"/>
      <point x="202" y="504"/>
      <point x="141" y="440"/>
      <point x="130" y="343" type="curve" smooth="yes"/>
      <point x="124" y="292" type="line"/>
      <point x="10" y="292" type="line"/>
      <point x="10" y="224" type="line"/>
      <point x="117" y="224" type="line"/>
    </contour>
  </outline>
</glyph>
<glyph name="uni118C3" format="2">
  <advance width="350"/>
  <unicode hex="118C3"/>
  <outline>
    <contour>
      <point x="181" y="-10" type="curve" smooth="yes"/>
      <point x="251" y="-10"/>
      <point x="290" y="48"/>
      <point x="330" y="114" type="curve"/>
      <point x="271" y="156" type="line"/>
      <point x="248" y="113"/>
      <point x="218" y="64"/>
      <point x="180" y="64" type="curve" smooth="yes"/>
      <point x="141" y="64"/>
      <point x="118" y="88"/>
      <point x="118" y="139" type="curve" smooth="yes"/>
      <point x="118" y="154"/>
      <point x="119" y="171"/>
      <point x="121" y="191" type="curve" smooth="yes"/>
      <point x="151" y="494" type="line"/>
      <point x="72" y="494" type="line"/>
      <point x="42" y="185" type="line" smooth="yes"/>
      <point x="40" y="169"/>
      <point x="40" y="153"/>
      <point x="40" y="131" type="curve" smooth="yes"/>
      <point x="40" y="36"/>
      <point x="103" y="-10"/>
    </contour>
  </outline>
</glyph>
<glyph name="uni118C4" format="2">
  <advance width="434"/>
  <unicode hex="118C4"/>
  <outline>
    <contour>
      <point x="169" y="-10" type="curve" smooth="yes"/>
      <point x="260" y="-10"/>
      <point x="385" y="134"/>
      <point x="414" y="478" type="curve"/>
      <point x="340" y="494" type="line"/>
      <point x="334" y="411"/>
      <point x="322" y="343"/>
      <point x="308" y="287" type="curve"/>
      <point x="271" y="276"/>
      <point x="242" y="275"/>
      <point x="219" y="275" type="curve" smooth="yes"/>
      <point x="181" y="275"/>
      <point x="169" y="288"/>
      <point x="169" y="308" type="curve" smooth="yes"/>
      <point x="169" y="326"/>
      <point x="179" y="350"/>
      <point x="190" y="374" type="curve" smooth="yes"/>
      <point x="202" y="399"/>
      <point x="208" y="421"/>
      <point x="208" y="440" type="curve" smooth="yes"/>
      <point x="208" y="481"/>
      <point x="179" y="504"/>
      <point x="119" y="504" type="curve" smooth="yes"/>
      <point x="98" y="504"/>
      <point x="75" y="501"/>
      <point x="53" y="494" type="curve"/>
      <point x="65" y="421" type="line"/>
      <point x="81" y="427"/>
      <point x="96" y="430"/>
      <point x="102" y="430" type="curve" smooth="yes"/>
      <point x="112" y="430"/>
      <point x="130" y="430"/>
      <point x="130" y="414" type="curve" smooth="yes"/>
      <point x="130" y="408"/>
      <point x="128" y="401"/>
      <point x="122" y="390" type="curve" smooth="yes"/>
      <point x="113" y="374"/>
      <point x="93" y="329"/>
      <point x="93" y="296" type="curve" smooth="yes"/>
      <point x="93" y="232"/>
      <point x="136" y="201"/>
      <point x="215" y="201" type="curve" smooth="yes"/>
      <point x="233" y="201"/>
      <point x="257" y="202"/>
      <point x="283" y="208" type="curve"/>
      <point x="242" y="101"/>
      <point x="191" y="64"/>
      <point x="169" y="64" type="curve" smooth="yes"/>
      <point x="140" y="64"/>
      <point x="109" y="105"/>
      <point x="79" y="156" type="curve"/>
      <point x="20" y="114" type="line"/>
      <point x="60" y="48"/>
      <point x="108" y="-10"/>
    </contour>
  </outline>
</glyph>
<glyph name="uni118C5" format="2">
  <advance width="612"/>
  <unicode hex="118C5"/>
  <outline>
    <contour>
      <point x="129" y="-10" type="curve" smooth="yes"/>
      <point x="175" y="-10"/>
      <point x="216" y="23"/>
      <point x="220" y="112" type="curve" smooth="yes"/>
      <point x="222" y="156" type="line"/>
      <point x="374" y="229" type="line"/>
      <point x="370" y="153" type="line" smooth="yes"/>
      <point x="367" y="90"/>
      <point x="363" y="64"/>
      <point x="345" y="64" type="curve" smooth="yes"/>
      <point x="328" y="64"/>
      <point x="306" y="78"/>
      <point x="273" y="104" type="curve"/>
      <point x="240" y="38" type="line"/>
      <point x="281" y="9"/>
      <point x="311" y="-10"/>
      <point x="349" y="-10" type="curve" smooth="yes"/>
      <point x="402" y="-10"/>
      <point x="437" y="23"/>
      <point x="442" y="122" type="curve" smooth="yes"/>
      <point x="451" y="310" type="line" smooth="yes"/>
      <point x="454" y="363"/>
      <point x="465" y="430"/>
      <point x="524" y="430" type="curve" smooth="yes"/>
      <point x="546" y="430"/>
      <point x="564" y="427"/>
      <point x="581" y="422" type="curve"/>
      <point x="592" y="496" type="line"/>
      <point x="569" y="501"/>
      <point x="549" y="504"/>
      <point x="517" y="504" type="curve" smooth="yes"/>
      <point x="433" y="504"/>
      <point x="387" y="431"/>
      <point x="380" y="332" type="curve" smooth="yes"/>
      <point x="378" y="303" type="line"/>
      <point x="226" y="229" type="line"/>
      <point x="231" y="310" type="line" smooth="yes"/>
      <point x="234" y="363"/>
      <point x="245" y="430"/>
      <point x="304" y="430" type="curve" smooth="yes"/>
      <point x="326" y="430"/>
      <point x="344" y="427"/>
      <point x="361" y="422" type="curve"/>
      <point x="372" y="496" type="line"/>
      <point x="349" y="501"/>
      <point x="329" y="504"/>
      <point x="297" y="504" type="curve" smooth="yes"/>
      <point x="213" y="504"/>
      <point x="165" y="431"/>
      <point x="160" y="332" type="curve" smooth="yes"/>
      <point x="151" y="164" type="line" smooth="yes"/>
      <point x="147" y="91"/>
      <point x="142" y="64"/>
      <point x="122" y="64" type="curve" smooth="yes"/>
      <point x="107" y="64"/>
      <point x="86" y="78"/>
      <point x="53" y="104" type="curve"/>
      <point x="20" y="38" type="line"/>
      <point x="61" y="9"/>
      <point x="91" y="-10"/>
    </contour>
  </outline>
</glyph>
<glyph name="uni118C6" format="2">
  <advance width="455"/>
  <unicode hex="118C6"/>
  <outline>
    <contour>
      <point x="164" y="0" type="line"/>
      <point x="242" y="0" type="line"/>
      <point x="291" y="224" type="line"/>
      <point x="435" y="224" type="line"/>
      <point x="435" y="292" type="line"/>
      <point x="307" y="292" type="line"/>
      <point x="315" y="327"/>
      <point x="322" y="363"/>
      <point x="322" y="385" type="curve" smooth="yes"/>
      <point x="322" y="453"/>
      <point x="283" y="504"/>
      <point x="148" y="504" type="curve" smooth="yes"/>
      <point x="98" y="504"/>
      <point x="38" y="497"/>
      <point x="20" y="488" type="curve"/>
      <point x="27" y="419" type="line"/>
      <point x="44" y="425"/>
      <point x="95" y="430"/>
      <point x="136" y="430" type="curve" smooth="yes"/>
      <point x="221" y="430"/>
      <point x="244" y="410"/>
      <point x="244" y="371" type="curve" smooth="yes"/>
      <point x="244" y="350"/>
      <point x="237" y="323"/>
      <point x="229" y="292" type="curve"/>
      <point x="28" y="292" type="line"/>
      <point x="28" y="224" type="line"/>
      <point x="214" y="224" type="line"/>
    </contour>
  </outline>
</glyph>
<glyph name="uni118C7" format="2">
  <advance width="349"/>
  <unicode hex="118C7"/>
  <outline>
    <contour>
      <point x="126" y="0" type="line"/>
      <point x="203" y="0" type="line"/>
      <point x="269" y="173" type="line" smooth="yes"/>
      <point x="287" y="220"/>
      <point x="309" y="278"/>
      <point x="309" y="339" type="curve" smooth="yes"/>
      <point x="309" y="449"/>
      <point x="233" y="504"/>
      <point x="81" y="504" type="curve" smooth="yes"/>
      <point x="62" y="504"/>
      <point x="42" y="503"/>
      <point x="20" y="501" type="curve"/>
      <point x="27" y="427" type="line"/>
      <point x="42" y="429"/>
      <point x="57" y="430"/>
      <point x="72" y="430" type="curve" smooth="yes"/>
      <point x="200" y="430"/>
      <point x="231" y="399"/>
      <point x="231" y="335" type="curve" smooth="yes"/>
      <point x="231" y="300"/>
      <point x="219" y="259"/>
      <point x="198" y="201" type="curve" smooth="yes"/>
    </contour>
  </outline>
</glyph>
<glyph name="uni118C8" format="2">
  <advance width="425"/>
  <unicode hex="118C8"/>
  <outline>
    <contour>
      <point x="231" y="-10" type="curve" smooth="yes"/>
      <point x="318" y="-10"/>
      <point x="385" y="92"/>
      <point x="385" y="351" type="curve" smooth="yes"/>
      <point x="385" y="443" type="line"/>
      <point x="359" y="494" type="line"/>
      <point x="40" y="494" type="line"/>
      <point x="40" y="443" type="line" smooth="yes"/>
      <point x="40" y="348"/>
      <point x="68" y="-10"/>
    </contour>
    <contour>
      <point x="232" y="64" type="curve" smooth="yes"/>
      <point x="190" y="64"/>
      <point x="125" y="194"/>
      <point x="117" y="426" type="curve"/>
      <point x="307" y="426" type="line"/>
      <point x="307" y="336" type="line" smooth="yes"/>
      <point x="307" y="245"/>
      <point x="295" y="64"/>
    </contour>
  </outline>
</glyph>
<glyph name="uni118C9" format="2">
  <advance width="426"/>
  <unicode hex="118C9"/>
  <outline>
    <contour>
      <point x="193" y="-10" type="curve" smooth="yes"/>
      <point x="263" y="-10"/>
      <point x="334" y="18"/>
      <point x="393" y="54" type="curve"/>
      <point x="363" y="118" type="line"/>
      <point x="317" y="90"/>
      <point x="247" y="64"/>
      <point x="193" y="64" type="curve" smooth="yes"/>
      <point x="137" y="64"/>
      <point x="108" y="85"/>
      <point x="108" y="130" type="curve" smooth="yes"/>
      <point x="108" y="180"/>
      <point x="146" y="208"/>
      <point x="223" y="245" type="curve" smooth="yes"/>
      <point x="318" y="291"/>
      <point x="356" y="312"/>
      <point x="356" y="384" type="curve" smooth="yes"/>
      <point x="356" y="449"/>
      <point x="304" y="504"/>
      <point x="183" y="504" type="curve" smooth="yes"/>
      <point x="134" y="504"/>
      <point x="82" y="495"/>
      <point x="35" y="475" type="curve"/>
      <point x="55" y="403" type="line"/>
      <point x="96" y="421"/>
      <point x="145" y="430"/>
      <point x="193" y="430" type="curve" smooth="yes"/>
      <point x="234" y="430"/>
      <point x="278" y="414"/>
      <point x="278" y="381" type="curve" smooth="yes"/>
      <point x="278" y="345"/>
      <point x="235" y="324"/>
      <point x="185" y="301" type="curve" smooth="yes"/>
      <point x="115" y="269"/>
      <point x="30" y="229"/>
      <point x="30" y="130" type="curve" smooth="yes"/>
      <point x="30" y="35"/>
      <point x="91" y="-10"/>
    </contour>
  </outline>
</glyph>
<glyph name="uni118CA" format="2">
  <advance width="412"/>
  <unicode hex="118CA"/>
  <outline>
    <contour>
      <point x="152" y="-10" type="curve" smooth="yes"/>
      <point x="308" y="-10"/>
      <point x="372" y="100"/>
      <point x="372" y="198" type="curve" smooth="yes"/>
      <point x="372" y="249"/>
      <point x="347" y="294"/>
      <point x="291" y="323" type="curve"/>
      <point x="303" y="344"/>
      <point x="311" y="368"/>
      <point x="311" y="397" type="curve" smooth="yes"/>
      <point x="311" y="468"/>
      <point x="259" y="504"/>
      <point x="188" y="504" type="curve" smooth="yes"/>
      <point x="136" y="504"/>
      <point x="73" y="483"/>
      <point x="20" y="364" type="curve"/>
      <point x="81" y="325" type="line"/>
      <point x="93" y="356"/>
      <point x="131" y="430"/>
      <point x="182" y="430" type="curve" smooth="yes"/>
      <point x="213" y="430"/>
      <point x="233" y="421"/>
      <point x="233" y="387" type="curve" smooth="yes"/>
      <point x="233" y="338"/>
      <point x="172" y="298"/>
      <point x="109" y="283" type="curve"/>
      <point x="122" y="221" type="line"/>
      <point x="142" y="225"/>
      <point x="197" y="238"/>
      <point x="243" y="272" type="curve"/>
      <point x="267" y="260"/>
      <point x="282" y="242"/>
      <point x="289" y="221" type="curve"/>
      <point x="112" y="199"/>
      <point x="41" y="137"/>
      <point x="41" y="75" type="curve" smooth="yes"/>
      <point x="41" y="11"/>
      <point x="100" y="-10"/>
    </contour>
    <contour>
      <point x="160" y="64" type="curve" smooth="yes"/>
      <point x="141" y="64"/>
      <point x="119" y="66"/>
      <point x="119" y="84" type="curve" smooth="yes"/>
      <point x="119" y="100"/>
      <point x="163" y="143"/>
      <point x="289" y="154" type="curve"/>
      <point x="275" y="106"/>
      <point x="235" y="64"/>
    </contour>
  </outline>
</glyph>
<glyph name="uni118CB" format="2">
  <advance width="578"/>
  <unicode hex="118CB"/>
  <outline>
    <contour>
      <point x="139" y="-10" type="curve" smooth="yes"/>
      <point x="203" y="-10"/>
      <point x="216" y="43"/>
      <point x="222" y="142" type="curve" smooth="yes"/>
      <point x="227" y="231" type="line" smooth="yes"/>
      <point x="230" y="284"/>
      <point x="242" y="335"/>
      <point x="301" y="335" type="curve" smooth="yes"/>
      <point x="341" y="335"/>
      <point x="379" y="300"/>
      <point x="399" y="268" type="curve"/>
      <point x="372" y="0" type="line"/>
      <point x="451" y="0" type="line"/>
      <point x="481" y="309" type="line" smooth="yes"/>
      <point x="487" y="374"/>
      <point x="493" y="435"/>
      <point x="568" y="454" type="curve"/>
      <point x="540" y="514" type="line"/>
      <point x="467" y="512"/>
      <point x="425" y="449"/>
      <point x="410" y="366" type="curve"/>
      <point x="386" y="387"/>
      <point x="349" y="409"/>
      <point x="294" y="409" type="curve" smooth="yes"/>
      <point x="210" y="409"/>
      <point x="162" y="352"/>
      <point x="156" y="253" type="curve" smooth="yes"/>
      <point x="151" y="164" type="line" smooth="yes"/>
      <point x="148" y="111"/>
      <point x="144" y="64"/>
      <point x="122" y="64" type="curve" smooth="yes"/>
      <point x="109" y="64"/>
      <point x="86" y="78"/>
      <point x="53" y="104" type="curve"/>
      <point x="20" y="38" type="line"/>
      <point x="62" y="9"/>
      <point x="91" y="-10"/>
    </contour>
  </outline>
</glyph>
<glyph name="uni118CC" format="2">
  <advance width="480"/>
  <unicode hex="118CC"/>
  <outline>
    <contour>
      <point x="168" y="-10" type="curve" smooth="yes"/>
      <point x="289" y="-10"/>
      <point x="388" y="121"/>
      <point x="388" y="247" type="curve" smooth="yes"/>
      <point x="388" y="253"/>
      <point x="388" y="258"/>
      <point x="387" y="264" type="curve"/>
      <point x="418" y="278"/>
      <point x="447" y="294"/>
      <point x="470" y="308" type="curve"/>
      <point x="439" y="373" type="line"/>
      <point x="422" y="362"/>
      <point x="400" y="349"/>
      <point x="375" y="337" type="curve"/>
      <point x="342" y="443"/>
      <point x="262" y="503"/>
      <point x="172" y="503" type="curve" smooth="yes"/>
      <point x="86" y="503"/>
      <point x="30" y="437"/>
      <point x="30" y="357" type="curve" smooth="yes"/>
      <point x="30" y="271"/>
      <point x="77" y="202"/>
      <point x="166" y="202" type="curve" smooth="yes"/>
      <point x="210" y="202"/>
      <point x="261" y="214"/>
      <point x="309" y="231" type="curve"/>
      <point x="303" y="133"/>
      <point x="239" y="64"/>
      <point x="166" y="64" type="curve" smooth="yes"/>
      <point x="131" y="64"/>
      <point x="107" y="100"/>
      <point x="91" y="125" type="curve"/>
      <point x="36" y="78" type="line"/>
      <point x="62" y="33"/>
      <point x="109" y="-10"/>
    </contour>
    <contour>
      <point x="177" y="274" type="curve" smooth="yes"/>
      <point x="134" y="274"/>
      <point x="108" y="305"/>
      <point x="108" y="357" type="curve" smooth="yes"/>
      <point x="108" y="401"/>
      <point x="130" y="429"/>
      <point x="173" y="429" type="curve" smooth="yes"/>
      <point x="231" y="429"/>
      <point x="285" y="381"/>
      <point x="303" y="304" type="curve"/>
      <point x="259" y="287"/>
      <point x="213" y="274"/>
    </contour>
  </outline>
</glyph>
<glyph name="uni118CD" format="2">
  <advance width="594"/>
  <unicode hex="118CD"/>
  <outline>
    <contour>
      <point x="166" y="-10" type="curve" smooth="yes"/>
      <point x="216" y="-10"/>
      <point x="255" y="11"/>
      <point x="287" y="46" type="curve"/>
      <point x="301" y="10"/>
      <point x="335" y="-10"/>
      <point x="385" y="-10" type="curve" smooth="yes"/>
      <point x="476" y="-10"/>
      <point x="564" y="72"/>
      <point x="564" y="165" type="curve" smooth="yes"/>
      <point x="564" y="249"/>
      <point x="495" y="287"/>
      <point x="432" y="287" type="curve" smooth="yes"/>
      <point x="425" y="287"/>
      <point x="418" y="287"/>
      <point x="411" y="286" type="curve"/>
      <point x="495" y="482" type="line"/>
      <point x="427" y="507" type="line"/>
      <point x="316" y="247" type="line"/>
      <point x="288" y="270"/>
      <point x="243" y="293"/>
      <point x="180" y="293" type="curve" smooth="yes"/>
      <point x="80" y="293"/>
      <point x="30" y="216"/>
      <point x="30" y="138" type="curve" smooth="yes"/>
      <point x="30" y="53"/>
      <point x="78" y="-10"/>
    </contour>
    <contour>
      <point x="171" y="64" type="curve" smooth="yes"/>
      <point x="134" y="64"/>
      <point x="108" y="88"/>
      <point x="108" y="141" type="curve" smooth="yes"/>
      <point x="108" y="187"/>
      <point x="135" y="219"/>
      <point x="183" y="219" type="curve" smooth="yes"/>
      <point x="214" y="219"/>
      <point x="254" y="208"/>
      <point x="285" y="175" type="curve"/>
      <point x="251" y="100"/>
      <point x="217" y="64"/>
    </contour>
    <contour>
      <point x="393" y="64" type="curve" smooth="yes"/>
      <point x="357" y="64"/>
      <point x="343" y="81"/>
      <point x="343" y="107" type="curve" smooth="yes"/>
      <point x="343" y="117"/>
      <point x="346" y="136"/>
      <point x="351" y="147" type="curve" smooth="yes"/>
      <point x="372" y="195" type="line"/>
      <point x="379" y="203"/>
      <point x="398" y="213"/>
      <point x="422" y="213" type="curve" smooth="yes"/>
      <point x="448" y="213"/>
      <point x="486" y="208"/>
      <point x="486" y="161" type="curve" smooth="yes"/>
      <point x="486" y="102"/>
      <point x="429" y="64"/>
    </contour>
  </outline>
</glyph>
<glyph name="uni118CE" format="2">
  <advance width="439"/>
  <unicode hex="118CE"/>
  <outline>
    <contour>
      <point x="208" y="-10" type="curve" smooth="yes"/>
      <point x="320" y="-10"/>
      <point x="368" y="56"/>
      <point x="408" y="158" type="curve"/>
      <point x="338" y="178" type="line"/>
      <point x="309" y="101"/>
      <point x="269" y="64"/>
      <point x="213" y="64" type="curve" smooth="yes"/>
      <point x="176" y="64"/>
      <point x="137" y="87"/>
      <point x="137" y="140" type="curve" smooth="yes"/>
      <point x="137" y="183"/>
      <point x="159" y="206"/>
      <point x="202" y="209" type="curve"/>
      <point x="202" y="283" type="line"/>
      <point x="192" y="282"/>
      <point x="182" y="281"/>
      <point x="173" y="281" type="curve" smooth="yes"/>
      <point x="144" y="281"/>
      <point x="108" y="294"/>
      <point x="108" y="356" type="curve" smooth="yes"/>
      <point x="108" y="419"/>
      <point x="166" y="429"/>
      <point x="204" y="429" type="curve" smooth="yes"/>
      <point x="288" y="429"/>
      <point x="341" y="366"/>
      <point x="354" y="279" type="curve"/>
      <point x="429" y="304" type="line"/>
      <point x="404" y="425"/>
      <point x="317" y="503"/>
      <point x="208" y="503" type="curve" smooth="yes"/>
      <point x="104" y="503"/>
      <point x="30" y="448"/>
      <point x="30" y="351" type="curve" smooth="yes"/>
      <point x="30" y="283"/>
      <point x="64" y="243"/>
      <point x="131" y="223" type="curve"/>
      <point x="126" y="248" type="line"/>
      <point x="81" y="221"/>
      <point x="59" y="180"/>
      <point x="59" y="137" type="curve" smooth="yes"/>
      <point x="59" y="52"/>
      <point x="120" y="-10"/>
    </contour>
  </outline>
</glyph>
<glyph name="uni118CF" format="2">
  <advance width="472"/>
  <unicode hex="118CF"/>
  <outline>
    <contour>
      <point x="142" y="-10" type="curve" smooth="yes"/>
      <point x="226" y="-10"/>
      <point x="287" y="47"/>
      <point x="292" y="146" type="curve" smooth="yes"/>
      <point x="295" y="206" type="line"/>
      <point x="379" y="230"/>
      <point x="452" y="287"/>
      <point x="452" y="371" type="curve" smooth="yes"/>
      <point x="452" y="422"/>
      <point x="422" y="452"/>
      <point x="367" y="452" type="curve" smooth="yes"/>
      <point x="292" y="452"/>
      <point x="233" y="379"/>
      <point x="224" y="265" type="curve"/>
      <point x="210" y="265" type="line" smooth="yes"/>
      <point x="150" y="265"/>
      <point x="108" y="299"/>
      <point x="108" y="352" type="curve" smooth="yes"/>
      <point x="108" y="398"/>
      <point x="136" y="430"/>
      <point x="184" y="430" type="curve" smooth="yes"/>
      <point x="201" y="430"/>
      <point x="219" y="427"/>
      <point x="238" y="419" type="curve"/>
      <point x="261" y="490" type="line"/>
      <point x="239" y="498"/>
      <point x="212" y="504"/>
      <point x="181" y="504" type="curve" smooth="yes"/>
      <point x="81" y="504"/>
      <point x="30" y="427"/>
      <point x="30" y="349" type="curve" smooth="yes"/>
      <point x="30" y="264"/>
      <point x="98" y="194"/>
      <point x="208" y="194" type="curve" smooth="yes"/>
      <point x="220" y="194" type="line"/>
      <point x="219" y="168" type="line" smooth="yes"/>
      <point x="217" y="115"/>
      <point x="194" y="64"/>
      <point x="135" y="64" type="curve" smooth="yes"/>
      <point x="115" y="64"/>
      <point x="82" y="69"/>
      <point x="55" y="82" type="curve"/>
      <point x="37" y="9" type="line"/>
      <point x="71" y="-2"/>
      <point x="109" y="-10"/>
    </contour>
    <contour>
      <point x="301" y="284" type="curve"/>
      <point x="308" y="332"/>
      <point x="324" y="382"/>
      <point x="363" y="382" type="curve" smooth="yes"/>
      <point x="372" y="382"/>
      <point x="380" y="377"/>
      <point x="380" y="365" type="curve" smooth="yes"/>
      <point x="380" y="337"/>
      <point x="347" y="304"/>
    </contour>
  </outline>
</glyph>
<glyph name="uni118D0" format="2">
  <advance width="770"/>
  <unicode hex="118D0"/>
  <outline>
    <contour>
      <point x="107" y="-10" type="curve" smooth="yes"/>
      <point x="187" y="-10"/>
      <point x="217" y="43"/>
      <point x="222" y="142" type="curve" smooth="yes"/>
      <point x="231" y="310" type="line" smooth="yes"/>
      <point x="234" y="363"/>
      <point x="245" y="430"/>
      <point x="297" y="430" type="curve" smooth="yes"/>
      <point x="347" y="430"/>
      <point x="361" y="357"/>
      <point x="372" y="295" type="curve" smooth="yes"/>
      <point x="399" y="147" type="line" smooth="yes"/>
      <point x="424" y="9"/>
      <point x="462" y="-10"/>
      <point x="516" y="-10" type="curve" smooth="yes"/>
      <point x="576" y="-10"/>
      <point x="604" y="43"/>
      <point x="609" y="142" type="curve" smooth="yes"/>
      <point x="619" y="330" type="line" smooth="yes"/>
      <point x="623" y="411"/>
      <point x="634" y="430"/>
      <point x="660" y="430" type="curve" smooth="yes"/>
      <point x="690" y="430"/>
      <point x="714" y="394"/>
      <point x="730" y="369" type="curve"/>
      <point x="785" y="416" type="line"/>
      <point x="748" y="474"/>
      <point x="706" y="504"/>
      <point x="663" y="504" type="curve" smooth="yes"/>
      <point x="583" y="504"/>
      <point x="553" y="451"/>
      <point x="548" y="352" type="curve" smooth="yes"/>
      <point x="538" y="164" type="line" smooth="yes"/>
      <point x="534" y="86"/>
      <point x="525" y="64"/>
      <point x="511" y="64" type="curve" smooth="yes"/>
      <point x="495" y="64"/>
      <point x="482" y="100"/>
      <point x="469" y="168" type="curve" smooth="yes"/>
      <point x="441" y="320" type="line" smooth="yes"/>
      <point x="426" y="402"/>
      <point x="401" y="504"/>
      <point x="297" y="504" type="curve" smooth="yes"/>
      <point x="213" y="504"/>
      <point x="165" y="431"/>
      <point x="160" y="332" type="curve" smooth="yes"/>
      <point x="151" y="164" type="line" smooth="yes"/>
      <point x="148" y="111"/>
      <point x="144" y="64"/>
      <point x="110" y="64" type="curve" smooth="yes"/>
      <point x="80" y="64"/>
      <point x="56" y="100"/>
      <point x="40" y="125" type="curve"/>
      <point x="-15" y="78" type="line"/>
      <point x="22" y="20"/>
      <point x="64" y="-10"/>
    </contour>
  </outline>
</glyph>
<glyph name="uni118D1" format="2">
  <advance width="368"/>
  <unicode hex="118D1"/>
  <outline>
    <contour>
      <point x="40" y="0" type="line"/>
      <point x="118" y="0" type="line"/>
      <point x="152" y="253" type="line"/>
      <point x="307" y="261"/>
      <point x="347" y="350"/>
      <point x="358" y="495" type="curve"/>
      <point x="285" y="504" type="line"/>
      <point x="277" y="390"/>
      <point x="260" y="327"/>
      <point x="140" y="327" type="curve" smooth="yes"/>
      <point x="98" y="327"/>
      <point x="84" y="304"/>
      <point x="78" y="263" type="curve" smooth="yes"/>
    </contour>
  </outline>
</glyph>
<glyph name="uni118D2" format="2">
  <advance width="380"/>
  <unicode hex="118D2"/>
  <outline>
    <contour>
      <point x="176" y="-10" type="curve" smooth="yes"/>
      <point x="286" y="-10"/>
      <point x="337" y="76"/>
      <point x="370" y="154" type="curve"/>
      <point x="302" y="178" type="line"/>
      <point x="269" y="101"/>
      <point x="233" y="64"/>
      <point x="177" y="64" type="curve" smooth="yes"/>
      <point x="140" y="64"/>
      <point x="108" y="89"/>
      <point x="108" y="142" type="curve" smooth="yes"/>
      <point x="108" y="195"/>
      <point x="144" y="220"/>
      <point x="177" y="243" type="curve" smooth="yes"/>
      <point x="206" y="263"/>
      <point x="233" y="282"/>
      <point x="235" y="317" type="curve" smooth="yes"/>
      <point x="239" y="379" type="line" smooth="yes"/>
      <point x="242" y="420"/>
      <point x="253" y="437"/>
      <point x="278" y="461" type="curve"/>
      <point x="223" y="509" type="line"/>
      <point x="190" y="485"/>
      <point x="173" y="467"/>
      <point x="168" y="401" type="curve" smooth="yes"/>
      <point x="164" y="346" type="line" smooth="yes"/>
      <point x="163" y="326"/>
      <point x="155" y="313"/>
      <point x="137" y="302" type="curve" smooth="yes"/>
      <point x="70" y="261"/>
      <point x="30" y="220"/>
      <point x="30" y="141" type="curve" smooth="yes"/>
      <point x="30" y="56"/>
      <point x="84" y="-10"/>
    </contour>
  </outline>
</glyph>
<glyph name="uni118D3" format="2">
  <advance width="592"/>
  <unicode hex="118D3"/>
  <outline>
    <contour>
      <point x="446" y="-10" type="curve" smooth="yes"/>
      <point x="519" y="-10"/>
      <point x="567" y="48"/>
      <point x="607" y="114" type="curve"/>
      <point x="550" y="153" type="line"/>
      <point x="520" y="102"/>
      <point x="487" y="64"/>
      <point x="448" y="64" type="curve" smooth="yes"/>
      <point x="356" y="64"/>
      <point x="319" y="262"/>
      <point x="316" y="481" type="curve"/>
      <point x="239" y="504" type="line"/>
      <point x="182" y="433" type="line" smooth="yes"/>
      <point x="149" y="392"/>
      <point x="131" y="380"/>
      <point x="115" y="380" type="curve" smooth="yes"/>
      <point x="96" y="380"/>
      <point x="81" y="393"/>
      <point x="63" y="444" type="curve"/>
      <point x="0" y="406" type="line"/>
      <point x="21" y="355"/>
      <point x="56" y="298"/>
      <point x="115" y="298" type="curve" smooth="yes"/>
      <point x="152" y="298"/>
      <point x="187" y="326"/>
      <point x="233" y="384" type="curve" smooth="yes"/>
      <point x="264" y="424" type="line"/>
      <point x="245" y="424" type="line"/>
      <point x="253" y="221"/>
      <point x="274" y="-10"/>
    </contour>
  </outline>
</glyph>
<glyph name="uni118D4" format="2">
  <advance width="846"/>
  <unicode hex="118D4"/>
  <outline>
    <contour>
      <point x="451" y="-10" type="curve" smooth="yes"/>
      <point x="548" y="-10"/>
      <point x="584" y="58"/>
      <point x="622" y="161" type="curve" smooth="yes"/>
      <point x="646" y="227" type="line"/>
      <point x="651" y="227" type="line" smooth="yes"/>
      <point x="753" y="227"/>
      <point x="826" y="270"/>
      <point x="826" y="366" type="curve" smooth="yes"/>
      <point x="826" y="428"/>
      <point x="791" y="465"/>
      <point x="730" y="465" type="curve" smooth="yes"/>
      <point x="662" y="465"/>
      <point x="629" y="422"/>
      <point x="595" y="318" type="curve"/>
      <point x="569" y="335"/>
      <point x="550" y="363"/>
      <point x="530" y="396" type="curve" smooth="yes"/>
      <point x="500" y="445"/>
      <point x="462" y="504"/>
      <point x="354" y="504" type="curve" smooth="yes"/>
      <point x="338" y="504"/>
      <point x="321" y="503"/>
      <point x="305" y="502" type="curve"/>
      <point x="305" y="429" type="line"/>
      <point x="317" y="430"/>
      <point x="339" y="430"/>
      <point x="351" y="430" type="curve" smooth="yes"/>
      <point x="408" y="430"/>
      <point x="442" y="402"/>
      <point x="482" y="338" type="curve" smooth="yes"/>
      <point x="506" y="299"/>
      <point x="530" y="263"/>
      <point x="571" y="243" type="curve"/>
      <point x="549" y="182" type="line" smooth="yes"/>
      <point x="531" y="132"/>
      <point x="506" y="64"/>
      <point x="457" y="64" type="curve" smooth="yes"/>
      <point x="411" y="64"/>
      <point x="385" y="106"/>
      <point x="360" y="151" type="curve" smooth="yes"/>
      <point x="266" y="320" type="line" smooth="yes"/>
      <point x="218" y="407"/>
      <point x="187" y="453"/>
      <point x="107" y="453" type="curve" smooth="yes"/>
      <point x="64" y="453"/>
      <point x="22" y="423"/>
      <point x="-15" y="365" type="curve"/>
      <point x="40" y="318" type="line"/>
      <point x="56" y="343"/>
      <point x="81" y="379"/>
      <point x="109" y="379" type="curve" smooth="yes"/>
      <point x="140" y="379"/>
      <point x="163" y="348"/>
      <point x="194" y="292" type="curve" smooth="yes"/>
      <point x="288" y="123" type="line" smooth="yes"/>
      <point x="328" y="51"/>
      <point x="373" y="-10"/>
    </contour>
    <contour>
      <point x="661" y="273" type="line"/>
      <point x="676" y="320" type="line" smooth="yes"/>
      <point x="693" y="372"/>
      <point x="710" y="395"/>
      <point x="728" y="395" type="curve" smooth="yes"/>
      <point x="743" y="395"/>
      <point x="754" y="386"/>
      <point x="754" y="365" type="curve" smooth="yes"/>
      <point x="754" y="330"/>
      <point x="729" y="298"/>
      <point x="664" y="298" type="curve"/>
    </contour>
  </outline>
</glyph>
<glyph name="uni118D5" format="2">
  <advance width="536"/>
  <unicode hex="118D5"/>
  <outline>
    <contour>
      <point x="280" y="-10" type="curve" smooth="yes"/>
      <point x="384" y="-10"/>
      <point x="467" y="63"/>
      <point x="467" y="180" type="curve" smooth="yes"/>
      <point x="467" y="284"/>
      <point x="404" y="341"/>
      <point x="307" y="341" type="curve" smooth="yes"/>
      <point x="272" y="341"/>
      <point x="234" y="331"/>
      <point x="198" y="308" type="curve"/>
      <point x="224" y="244" type="line"/>
      <point x="247" y="257"/>
      <point x="275" y="267"/>
      <point x="306" y="267" type="curve" smooth="yes"/>
      <point x="357" y="267"/>
      <point x="389" y="234"/>
      <point x="389" y="172" type="curve" smooth="yes"/>
      <point x="389" y="90"/>
      <point x="322" y="64"/>
      <point x="284" y="64" type="curve" smooth="yes"/>
      <point x="177" y="64"/>
      <point x="118" y="136"/>
      <point x="118" y="246" type="curve" smooth="yes"/>
      <point x="118" y="358"/>
      <point x="195" y="429"/>
      <point x="292" y="429" type="curve" smooth="yes"/>
      <point x="371" y="429"/>
      <point x="438" y="399"/>
      <point x="489" y="368" type="curve"/>
      <point x="526" y="431" type="line"/>
      <point x="466" y="469"/>
      <point x="391" y="503"/>
      <point x="295" y="503" type="curve" smooth="yes"/>
      <point x="153" y="503"/>
      <point x="40" y="396"/>
      <point x="40" y="246" type="curve" smooth="yes"/>
      <point x="40" y="85"/>
      <point x="148" y="-10"/>
    </contour>
  </outline>
</glyph>
<glyph name="uni118D6" format="2">
  <advance width="413"/>
  <unicode hex="118D6"/>
  <outline>
    <contour>
      <point x="133" y="-10" type="curve" smooth="yes"/>
      <point x="230" y="-10"/>
      <point x="306" y="77"/>
      <point x="329" y="182" type="curve"/>
      <point x="347" y="183"/>
      <point x="365" y="185"/>
      <point x="383" y="187" type="curve"/>
      <point x="378" y="259" type="line"/>
      <point x="364" y="257"/>
      <point x="350" y="255"/>
      <point x="337" y="255" type="curve"/>
      <point x="344" y="384" type="line" smooth="yes"/>
      <point x="345" y="405"/>
      <point x="345" y="430"/>
      <point x="345" y="447" type="curve" smooth="yes"/>
      <point x="345" y="473"/>
      <point x="338" y="503"/>
      <point x="281" y="503" type="curve" smooth="yes"/>
      <point x="181" y="503"/>
      <point x="112" y="428"/>
      <point x="112" y="327" type="curve" smooth="yes"/>
      <point x="112" y="230"/>
      <point x="174" y="180"/>
      <point x="251" y="180" type="curve"/>
      <point x="233" y="106"/>
      <point x="187" y="64"/>
      <point x="131" y="64" type="curve" smooth="yes"/>
      <point x="88" y="64"/>
      <point x="45" y="114"/>
      <point x="25" y="139" type="curve"/>
      <point x="-30" y="92" type="line"/>
      <point x="-4" y="47"/>
      <point x="56" y="-10"/>
    </contour>
    <contour>
      <point x="260" y="252" type="line"/>
      <point x="208" y="253"/>
      <point x="190" y="282"/>
      <point x="190" y="336" type="curve" smooth="yes"/>
      <point x="190" y="391"/>
      <point x="231" y="428"/>
      <point x="270" y="428" type="curve"/>
    </contour>
  </outline>
</glyph>
<glyph name="uni118D7" format="2">
  <advance width="629"/>
  <unicode hex="118D7"/>
  <outline>
    <contour>
      <point x="314" y="30" type="curve" smooth="yes"/>
      <point x="442" y="30"/>
      <point x="599" y="161"/>
      <point x="599" y="241" type="curve" smooth="yes"/>
      <point x="599" y="326"/>
      <point x="445" y="457"/>
      <point x="314" y="457" type="curve" smooth="yes"/>
      <point x="184" y="457"/>
      <point x="30" y="326"/>
      <point x="30" y="243" type="curve" smooth="yes"/>
      <point x="30" y="159"/>
      <point x="192" y="30"/>
    </contour>
    <contour>
      <point x="316" y="104" type="curve" smooth="yes"/>
      <point x="209" y="104"/>
      <point x="113" y="207"/>
      <point x="108" y="243" type="curve"/>
      <point x="113" y="279"/>
      <point x="209" y="383"/>
      <point x="316" y="383" type="curve" smooth="yes"/>
      <point x="419" y="383"/>
      <point x="516" y="279"/>
      <point x="521" y="243" type="curve"/>
      <point x="516" y="207"/>
      <point x="419" y="104"/>
    </contour>
  </outline>
</glyph>
<glyph name="uni118D8" format="2">
  <advance width="770"/>
  <unicode hex="118D8"/>
  <outline>
    <contour>
      <point x="377" y="-10" type="curve" smooth="yes"/>
      <point x="473" y="-10"/>
      <point x="537" y="51"/>
      <point x="552" y="142" type="curve" smooth="yes"/>
      <point x="583" y="330" type="line" smooth="yes"/>
      <point x="595" y="405"/>
      <point x="608" y="430"/>
      <point x="632" y="430" type="curve" smooth="yes"/>
      <point x="665" y="430"/>
      <point x="689" y="394"/>
      <point x="705" y="369" type="curve"/>
      <point x="760" y="416" type="line"/>
      <point x="723" y="474"/>
      <point x="681" y="504"/>
      <point x="632" y="504" type="curve" smooth="yes"/>
      <point x="558" y="504"/>
      <point x="530" y="450"/>
      <point x="513" y="352" type="curve" smooth="yes"/>
      <point x="481" y="164" type="line" smooth="yes"/>
      <point x="469" y="91"/>
      <point x="430" y="64"/>
      <point x="377" y="64" type="curve" smooth="yes"/>
      <point x="324" y="64"/>
      <point x="291" y="112"/>
      <point x="278" y="202" type="curve" smooth="yes"/>
      <point x="259" y="336" type="line" smooth="yes"/>
      <point x="245" y="434"/>
      <point x="202" y="473"/>
      <point x="133" y="473" type="curve" smooth="yes"/>
      <point x="79" y="473"/>
      <point x="37" y="443"/>
      <point x="0" y="385" type="curve"/>
      <point x="55" y="338" type="line"/>
      <point x="71" y="363"/>
      <point x="96" y="399"/>
      <point x="124" y="399" type="curve" smooth="yes"/>
      <point x="155" y="399"/>
      <point x="178" y="387"/>
      <point x="187" y="324" type="curve" smooth="yes"/>
      <point x="208" y="171" type="line" smooth="yes"/>
      <point x="223" y="65"/>
      <point x="268" y="-10"/>
    </contour>
  </outline>
</glyph>
<glyph name="uni118D9" format="2">
  <advance width="687"/>
  <unicode hex="118D9"/>
  <outline>
    <contour>
      <point x="560" y="-19" type="line"/>
      <point x="618" y="54"/>
      <point x="657" y="135"/>
      <point x="657" y="236" type="curve" smooth="yes"/>
      <point x="657" y="375"/>
      <point x="603" y="452"/>
      <point x="496" y="452" type="curve" smooth="yes"/>
      <point x="379" y="452"/>
      <point x="352" y="339"/>
      <point x="330" y="235" type="curve" smooth="yes"/>
      <point x="311" y="146"/>
      <point x="292" y="64"/>
      <point x="217" y="64" type="curve" smooth="yes"/>
      <point x="150" y="64"/>
      <point x="108" y="136"/>
      <point x="108" y="230" type="curve" smooth="yes"/>
      <point x="108" y="321"/>
      <point x="139" y="405"/>
      <point x="201" y="464" type="curve"/>
      <point x="142" y="509" type="line"/>
      <point x="70" y="434"/>
      <point x="30" y="336"/>
      <point x="30" y="231" type="curve" smooth="yes"/>
      <point x="30" y="85"/>
      <point x="106" y="-10"/>
      <point x="213" y="-10" type="curve" smooth="yes"/>
      <point x="353" y="-10"/>
      <point x="381" y="118"/>
      <point x="404" y="227" type="curve" smooth="yes"/>
      <point x="421" y="308"/>
      <point x="436" y="378"/>
      <point x="492" y="378" type="curve" smooth="yes"/>
      <point x="559" y="378"/>
      <point x="579" y="324"/>
      <point x="579" y="239" type="curve" smooth="yes"/>
      <point x="579" y="151"/>
      <point x="550" y="88"/>
      <point x="506" y="30" type="curve"/>
    </contour>
  </outline>
</glyph>
<glyph name="uni118DA" format="2">
  <advance width="497"/>
  <unicode hex="118DA"/>
  <outline>
    <contour>
      <point x="237" y="-10" type="curve" smooth="yes"/>
      <point x="369" y="-10"/>
      <point x="467" y="85"/>
      <point x="467" y="246" type="curve" smooth="yes"/>
      <point x="467" y="406"/>
      <point x="354" y="507"/>
      <point x="181" y="507" type="curve"/>
      <point x="181" y="439" type="line"/>
      <point x="315" y="434"/>
      <point x="389" y="372"/>
      <point x="389" y="246" type="curve" smooth="yes"/>
      <point x="389" y="136"/>
      <point x="340" y="64"/>
      <point x="233" y="64" type="curve" smooth="yes"/>
      <point x="200" y="64"/>
      <point x="133" y="82"/>
      <point x="122" y="145" type="curve"/>
      <point x="105" y="127" type="line"/>
      <point x="214" y="128"/>
      <point x="288" y="192"/>
      <point x="288" y="277" type="curve" smooth="yes"/>
      <point x="288" y="349"/>
      <point x="244" y="395"/>
      <point x="169" y="395" type="curve" smooth="yes"/>
      <point x="144" y="395"/>
      <point x="84" y="384"/>
      <point x="47" y="330" type="curve"/>
      <point x="103" y="281" type="line"/>
      <point x="114" y="299"/>
      <point x="142" y="321"/>
      <point x="166" y="321" type="curve" smooth="yes"/>
      <point x="192" y="321"/>
      <point x="210" y="308"/>
      <point x="210" y="280" type="curve" smooth="yes"/>
      <point x="210" y="214"/>
      <point x="142" y="186"/>
      <point x="89" y="186" type="curve" smooth="yes"/>
      <point x="72" y="186"/>
      <point x="52" y="188"/>
      <point x="40" y="190" type="curve"/>
      <point x="40" y="63"/>
      <point x="133" y="-10"/>
    </contour>
  </outline>
</glyph>
<glyph name="uni118DB" format="2">
  <advance width="400"/>
  <unicode hex="118DB"/>
  <outline>
    <contour>
      <point x="81" y="0" type="curve" smooth="yes"/>
      <point x="205" y="0"/>
      <point x="370" y="43"/>
      <point x="370" y="186" type="curve" smooth="yes"/>
      <point x="370" y="266"/>
      <point x="322" y="330"/>
      <point x="224" y="330" type="curve" smooth="yes"/>
      <point x="201" y="330"/>
      <point x="182" y="324"/>
      <point x="165" y="316" type="curve"/>
      <point x="178" y="379"/>
      <point x="194" y="430"/>
      <point x="254" y="430" type="curve" smooth="yes"/>
      <point x="290" y="430"/>
      <point x="319" y="418"/>
      <point x="340" y="408" type="curve"/>
      <point x="363" y="479" type="line"/>
      <point x="344" y="488"/>
      <point x="303" y="504"/>
      <point x="251" y="504" type="curve" smooth="yes"/>
      <point x="151" y="504"/>
      <point x="113" y="423"/>
      <point x="92" y="335" type="curve" smooth="yes"/>
      <point x="68" y="233" type="line"/>
      <point x="143" y="210" type="line"/>
      <point x="159" y="246"/>
      <point x="192" y="256"/>
      <point x="218" y="256" type="curve" smooth="yes"/>
      <point x="269" y="256"/>
      <point x="292" y="226"/>
      <point x="292" y="189" type="curve" smooth="yes"/>
      <point x="292" y="103"/>
      <point x="200" y="74"/>
      <point x="72" y="74" type="curve" smooth="yes"/>
      <point x="57" y="74"/>
      <point x="42" y="75"/>
      <point x="27" y="77" type="curve"/>
      <point x="20" y="3" type="line"/>
      <point x="42" y="1"/>
      <point x="62" y="0"/>
    </contour>
  </outline>
</glyph>
<glyph name="uni118DC" format="2">
  <advance width="454"/>
  <unicode hex="118DC"/>
  <outline>
    <contour>
      <point x="190" y="-10" type="curve" smooth="yes"/>
      <point x="266" y="-10"/>
      <point x="313" y="51"/>
      <point x="313" y="136" type="curve" smooth="yes"/>
      <point x="313" y="175"/>
      <point x="308" y="255"/>
      <point x="248" y="341" type="curve"/>
      <point x="288" y="376"/>
      <point x="341" y="400"/>
      <point x="408" y="400" type="curve" smooth="yes"/>
      <point x="423" y="400" type="line"/>
      <point x="434" y="474" type="line"/>
      <point x="428" y="475"/>
      <point x="423" y="475"/>
      <point x="417" y="475" type="curve" smooth="yes"/>
      <point x="338" y="475"/>
      <point x="263" y="444"/>
      <point x="203" y="395" type="curve"/>
      <point x="165" y="433"/>
      <point x="115" y="470"/>
      <point x="48" y="504" type="curve"/>
      <point x="10" y="444" type="line"/>
      <point x="72" y="410"/>
      <point x="117" y="375"/>
      <point x="150" y="343" type="curve"/>
      <point x="100" y="284"/>
      <point x="70" y="210"/>
      <point x="70" y="136" type="curve" smooth="yes"/>
      <point x="70" y="51"/>
      <point x="117" y="-10"/>
    </contour>
    <contour>
      <point x="192" y="64" type="curve" smooth="yes"/>
      <point x="166" y="64"/>
      <point x="148" y="99"/>
      <point x="148" y="144" type="curve" smooth="yes"/>
      <point x="148" y="180"/>
      <point x="164" y="235"/>
      <point x="197" y="284" type="curve"/>
      <point x="233" y="227"/>
      <point x="235" y="177"/>
      <point x="235" y="144" type="curve" smooth="yes"/>
      <point x="235" y="99"/>
      <point x="217" y="64"/>
    </contour>
  </outline>
</glyph>
<glyph name="uni118DD" format="2">
  <advance width="471"/>
  <unicode hex="118DD"/>
  <outline>
    <contour>
      <point x="263" y="-10" type="curve" smooth="yes"/>
      <point x="371" y="-10"/>
      <point x="421" y="87"/>
      <point x="421" y="185" type="curve" smooth="yes"/>
      <point x="421" y="494" type="line"/>
      <point x="342" y="494" type="line"/>
      <point x="342" y="191" type="line" smooth="yes"/>
      <point x="342" y="140"/>
      <point x="324" y="64"/>
      <point x="261" y="64" type="curve" smooth="yes"/>
      <point x="224" y="64"/>
      <point x="198" y="97"/>
      <point x="198" y="155" type="curve" smooth="yes"/>
      <point x="198" y="196"/>
      <point x="215" y="227"/>
      <point x="263" y="227" type="curve" smooth="yes"/>
      <point x="277" y="227"/>
      <point x="292" y="226"/>
      <point x="307" y="223" type="curve"/>
      <point x="307" y="300" type="line"/>
      <point x="291" y="301"/>
      <point x="274" y="301"/>
      <point x="260" y="301" type="curve"/>
      <point x="208" y="328"/>
      <point x="187" y="374"/>
      <point x="171" y="415" type="curve" smooth="yes"/>
      <point x="152" y="463"/>
      <point x="135" y="504"/>
      <point x="74" y="504" type="curve" smooth="yes"/>
      <point x="55" y="504"/>
      <point x="38" y="503"/>
      <point x="27" y="501" type="curve"/>
      <point x="20" y="427" type="line"/>
      <point x="30" y="429"/>
      <point x="40" y="430"/>
      <point x="51" y="430" type="curve" smooth="yes"/>
      <point x="80" y="430"/>
      <point x="95" y="411"/>
      <point x="116" y="360" type="curve" smooth="yes"/>
      <point x="133" y="318"/>
      <point x="150" y="278"/>
      <point x="206" y="259" type="curve"/>
      <point x="207" y="284" type="line"/>
      <point x="140" y="256"/>
      <point x="120" y="201"/>
      <point x="120" y="147" type="curve" smooth="yes"/>
      <point x="120" y="62"/>
      <point x="168" y="-10"/>
    </contour>
  </outline>
</glyph>
<glyph name="uni118DE" format="2">
  <advance width="576"/>
  <unicode hex="118DE"/>
  <outline>
    <contour>
      <point x="336" y="-10" type="curve" smooth="yes"/>
      <point x="361" y="-10"/>
      <point x="388" y="-8"/>
      <point x="416" y="-4" type="curve"/>
      <point x="416" y="71" type="line"/>
      <point x="392" y="66"/>
      <point x="368" y="64"/>
      <point x="345" y="64" type="curve" smooth="yes"/>
      <point x="203" y="64"/>
      <point x="108" y="131"/>
      <point x="108" y="203" type="curve" smooth="yes"/>
      <point x="108" y="234"/>
      <point x="126" y="244"/>
      <point x="152" y="244" type="curve" smooth="yes"/>
      <point x="173" y="244"/>
      <point x="198" y="228"/>
      <point x="198" y="190" type="curve" smooth="yes"/>
      <point x="198" y="185"/>
      <point x="198" y="180"/>
      <point x="197" y="174" type="curve"/>
      <point x="254" y="141" type="line"/>
      <point x="273" y="158"/>
      <point x="288" y="180"/>
      <point x="295" y="205" type="curve"/>
      <point x="277" y="203" type="line"/>
      <point x="306" y="164"/>
      <point x="346" y="142"/>
      <point x="390" y="142" type="curve" smooth="yes"/>
      <point x="468" y="142"/>
      <point x="541" y="212"/>
      <point x="566" y="384" type="curve"/>
      <point x="493" y="401" type="line"/>
      <point x="476" y="291"/>
      <point x="436" y="216"/>
      <point x="391" y="216" type="curve" smooth="yes"/>
      <point x="376" y="216"/>
      <point x="344" y="225"/>
      <point x="321" y="253" type="curve"/>
      <point x="324" y="268"/>
      <point x="326" y="284"/>
      <point x="326" y="301" type="curve" smooth="yes"/>
      <point x="326" y="393"/>
      <point x="260" y="465"/>
      <point x="170" y="510" type="curve"/>
      <point x="127" y="446" type="line"/>
      <point x="183" y="421"/>
      <point x="248" y="371"/>
      <point x="248" y="301" type="curve" smooth="yes"/>
      <point x="248" y="282"/>
      <point x="246" y="265"/>
      <point x="242" y="250" type="curve"/>
      <point x="227" y="303"/>
      <point x="184" y="318"/>
      <point x="149" y="318" type="curve" smooth="yes"/>
      <point x="74" y="318"/>
      <point x="30" y="272"/>
      <point x="30" y="200" type="curve" smooth="yes"/>
      <point x="30" y="118"/>
      <point x="127" y="-10"/>
    </contour>
  </outline>
</glyph>
<glyph name="uni118DF" format="2">
  <advance width="524"/>
  <unicode hex="118DF"/>
  <outline>
    <contour>
      <point x="381" y="-19" type="line"/>
      <point x="426" y="19"/>
      <point x="456" y="77"/>
      <point x="456" y="145" type="curve" smooth="yes"/>
      <point x="456" y="226"/>
      <point x="407" y="275"/>
      <point x="311" y="281" type="curve"/>
      <point x="325" y="321" type="line" smooth="yes"/>
      <point x="353" y="398"/>
      <point x="367" y="430"/>
      <point x="395" y="430" type="curve" smooth="yes"/>
      <point x="417" y="430"/>
      <point x="427" y="417"/>
      <point x="440" y="371" type="curve"/>
      <point x="504" y="406" type="line"/>
      <point x="480" y="473"/>
      <point x="448" y="504"/>
      <point x="391" y="504" type="curve" smooth="yes"/>
      <point x="327" y="504"/>
      <point x="288" y="436"/>
      <point x="255" y="343" type="curve" smooth="yes"/>
      <point x="195" y="173" type="line" smooth="yes"/>
      <point x="171" y="105"/>
      <point x="155" y="64"/>
      <point x="119" y="64" type="curve" smooth="yes"/>
      <point x="89" y="64"/>
      <point x="66" y="78"/>
      <point x="33" y="104" type="curve"/>
      <point x="0" y="38" type="line"/>
      <point x="42" y="9"/>
      <point x="71" y="-10"/>
      <point x="124" y="-10" type="curve" smooth="yes"/>
      <point x="199" y="-10"/>
      <point x="232" y="58"/>
      <point x="265" y="151" type="curve" smooth="yes"/>
      <point x="286" y="211" type="line"/>
      <point x="334" y="209"/>
      <point x="378" y="199"/>
      <point x="378" y="137" type="curve" smooth="yes"/>
      <point x="378" y="88"/>
      <point x="354" y="51"/>
      <point x="326" y="27" type="curve"/>
    </contour>
  </outline>
</glyph>
<glyph name="uni118E0" format="2">
  <advance width="553"/>
  <unicode hex="118E0"/>
  <outline>
    <contour>
      <point x="277" y="-10" type="curve" smooth="yes"/>
      <point x="392" y="-10"/>
      <point x="493" y="144"/>
      <point x="493" y="337" type="curve" smooth="yes"/>
      <point x="493" y="530"/>
      <point x="392" y="684"/>
      <point x="277" y="684" type="curve" smooth="yes"/>
      <point x="161" y="684"/>
      <point x="60" y="530"/>
      <point x="60" y="337" type="curve" smooth="yes"/>
      <point x="60" y="144"/>
      <point x="161" y="-10"/>
    </contour>
    <contour>
      <point x="277" y="65" type="curve" smooth="yes"/>
      <point x="213" y="65"/>
      <point x="148" y="164"/>
      <point x="148" y="335" type="curve" smooth="yes"/>
      <point x="148" y="506"/>
      <point x="213" y="609"/>
      <point x="277" y="609" type="curve" smooth="yes"/>
      <point x="340" y="609"/>
      <point x="405" y="506"/>
      <point x="405" y="335" type="curve" smooth="yes"/>
      <point x="405" y="164"/>
      <point x="340" y="65"/>
    </contour>
  </outline>
</glyph>
<glyph name="uni118E1" format="2">
  <advance width="413"/>
  <unicode hex="118E1"/>
  <outline>
    <contour>
      <point x="133" y="-10" type="curve" smooth="yes"/>
      <point x="230" y="-10"/>
      <point x="316" y="95"/>
      <point x="316" y="252" type="curve" smooth="yes"/>
      <point x="316" y="290"/>
      <point x="311" y="316"/>
      <point x="305" y="343" type="curve" smooth="yes"/>
      <point x="299" y="371"/>
      <point x="294" y="399"/>
      <point x="294" y="444" type="curve" smooth="yes"/>
      <point x="294" y="525"/>
      <point x="305" y="572"/>
      <point x="403" y="631" type="curve"/>
      <point x="361" y="698" type="line"/>
      <point x="228" y="619"/>
      <point x="206" y="527"/>
      <point x="206" y="445" type="curve" smooth="yes"/>
      <point x="206" y="407"/>
      <point x="209" y="383"/>
      <point x="213" y="353" type="curve"/>
      <point x="119" y="313"/>
      <point x="30" y="228"/>
      <point x="30" y="110" type="curve" smooth="yes"/>
      <point x="30" y="38"/>
      <point x="67" y="-10"/>
    </contour>
    <contour>
      <point x="138" y="65" type="curve" smooth="yes"/>
      <point x="123" y="65"/>
      <point x="116" y="79"/>
      <point x="116" y="100" type="curve" smooth="yes"/>
      <point x="116" y="184"/>
      <point x="156" y="244"/>
      <point x="225" y="273" type="curve"/>
      <point x="227" y="264"/>
      <point x="228" y="255"/>
      <point x="228" y="250" type="curve" smooth="yes"/>
      <point x="228" y="109"/>
      <point x="157" y="65"/>
    </contour>
  </outline>
</glyph>
<glyph name="uni118E2" format="2">
  <advance width="753"/>
  <unicode hex="118E2"/>
  <outline>
    <contour>
      <point x="143" y="-10" type="curve" smooth="yes"/>
      <point x="236" y="-10"/>
      <point x="316" y="76"/>
      <point x="316" y="242" type="curve" smooth="yes"/>
      <point x="316" y="289"/>
      <point x="312" y="314"/>
      <point x="307" y="341" type="curve" smooth="yes"/>
      <point x="299" y="382"/>
      <point x="294" y="414"/>
      <point x="294" y="457" type="curve" smooth="yes"/>
      <point x="294" y="555"/>
      <point x="327" y="609"/>
      <point x="378" y="609" type="curve" smooth="yes"/>
      <point x="427" y="609"/>
      <point x="459" y="553"/>
      <point x="459" y="457" type="curve" smooth="yes"/>
      <point x="459" y="414"/>
      <point x="453" y="380"/>
      <point x="446" y="341" type="curve" smooth="yes"/>
      <point x="441" y="314"/>
      <point x="437" y="289"/>
      <point x="437" y="242" type="curve" smooth="yes"/>
      <point x="437" y="76"/>
      <point x="517" y="-10"/>
      <point x="610" y="-10" type="curve" smooth="yes"/>
      <point x="684" y="-10"/>
      <point x="723" y="45"/>
      <point x="723" y="120" type="curve" smooth="yes"/>
      <point x="723" y="246"/>
      <point x="620" y="323"/>
      <point x="518" y="361" type="curve"/>
      <point x="532" y="334" type="line"/>
      <point x="540" y="369"/>
      <point x="547" y="409"/>
      <point x="547" y="455" type="curve" smooth="yes"/>
      <point x="547" y="599"/>
      <point x="466" y="684"/>
      <point x="378" y="684" type="curve" smooth="yes"/>
      <point x="287" y="684"/>
      <point x="206" y="599"/>
      <point x="206" y="455" type="curve" smooth="yes"/>
      <point x="206" y="409"/>
      <point x="213" y="369"/>
      <point x="221" y="334" type="curve"/>
      <point x="235" y="361" type="line"/>
      <point x="132" y="323"/>
      <point x="30" y="246"/>
      <point x="30" y="120" type="curve" smooth="yes"/>
      <point x="30" y="45"/>
      <point x="69" y="-10"/>
    </contour>
    <contour>
      <point x="150" y="68" type="curve" smooth="yes"/>
      <point x="132" y="68"/>
      <point x="118" y="83"/>
      <point x="118" y="114" type="curve" smooth="yes"/>
      <point x="118" y="196"/>
      <point x="177" y="260"/>
      <point x="244" y="280" type="curve"/>
      <point x="220" y="293" type="line"/>
      <point x="227" y="273"/>
      <point x="228" y="265"/>
      <point x="228" y="240" type="curve" smooth="yes"/>
      <point x="228" y="128"/>
      <point x="189" y="68"/>
    </contour>
    <contour>
      <point x="603" y="68" type="curve" smooth="yes"/>
      <point x="561" y="68"/>
      <point x="525" y="130"/>
      <point x="525" y="240" type="curve" smooth="yes"/>
      <point x="525" y="265"/>
      <point x="526" y="273"/>
      <point x="529" y="293" type="curve"/>
      <point x="507" y="280" type="line"/>
      <point x="576" y="260"/>
      <point x="635" y="196"/>
      <point x="635" y="114" type="curve" smooth="yes"/>
      <point x="635" y="83"/>
      <point x="621" y="68"/>
    </contour>
  </outline>
</glyph>
<glyph name="uni118E3" format="2">
  <advance width="711"/>
  <unicode hex="118E3"/>
  <outline>
    <contour>
      <point x="291" y="0" type="line"/>
      <point x="373" y="0" type="line"/>
      <point x="373" y="484" type="line" smooth="yes"/>
      <point x="373" y="653"/>
      <point x="350" y="684"/>
      <point x="287" y="684" type="curve" smooth="yes"/>
      <point x="229" y="684"/>
      <point x="187" y="616"/>
      <point x="154" y="563" type="curve"/>
      <point x="168" y="446" type="line"/>
      <point x="180" y="499"/>
      <point x="248" y="608"/>
      <point x="270" y="608" type="curve" smooth="yes"/>
      <point x="285" y="608"/>
      <point x="291" y="590"/>
      <point x="291" y="523" type="curve" smooth="yes"/>
    </contour>
    <contour>
      <point x="113" y="0" type="line"/>
      <point x="195" y="0" type="line"/>
      <point x="195" y="484" type="line" smooth="yes"/>
      <point x="195" y="616"/>
      <point x="185" y="684"/>
      <point x="99" y="684" type="curve" smooth="yes"/>
      <point x="40" y="684"/>
      <point x="12" y="629"/>
      <point x="0" y="600" type="curve"/>
      <point x="59" y="575" type="line"/>
      <point x="69" y="595"/>
      <point x="78" y="608"/>
      <point x="89" y="608" type="curve" smooth="yes"/>
      <point x="109" y="608"/>
      <point x="113" y="590"/>
      <point x="113" y="523" type="curve" smooth="yes"/>
    </contour>
    <contour>
      <point x="563" y="-10" type="curve" smooth="yes"/>
      <point x="639" y="-10"/>
      <point x="672" y="64"/>
      <point x="711" y="205" type="curve"/>
      <point x="636" y="230" type="line"/>
      <point x="608" y="131"/>
      <point x="587" y="65"/>
      <point x="571" y="65" type="curve" smooth="yes"/>
      <point x="553" y="65"/>
      <point x="551" y="94"/>
      <point x="551" y="150" type="curve" smooth="yes"/>
      <point x="551" y="374" type="line"/>
      <point x="469" y="374" type="line"/>
      <point x="469" y="180" type="line" smooth="yes"/>
      <point x="469" y="48"/>
      <point x="494" y="-10"/>
    </contour>
    <contour>
      <point x="469" y="300" type="line"/>
      <point x="551" y="300" type="line"/>
      <point x="551" y="484" type="line" smooth="yes"/>
      <point x="551" y="656"/>
      <point x="525" y="684"/>
      <point x="465" y="684" type="curve" smooth="yes"/>
      <point x="407" y="684"/>
      <point x="365" y="617"/>
      <point x="332" y="563" type="curve"/>
      <point x="346" y="446" type="line"/>
      <point x="358" y="499"/>
      <point x="426" y="608"/>
      <point x="448" y="608" type="curve" smooth="yes"/>
      <point x="463" y="608"/>
      <point x="469" y="590"/>
      <point x="469" y="523" type="curve" smooth="yes"/>
    </contour>
  </outline>
</glyph>
<glyph name="uni118E4" format="2">
  <advance width="500"/>
  <unicode hex="118E4"/>
  <outline>
    <contour>
      <point x="252" y="0" type="line"/>
      <point x="334" y="0" type="line"/>
      <point x="334" y="508" type="line" smooth="yes"/>
      <point x="334" y="618"/>
      <point x="276" y="684"/>
      <point x="178" y="684" type="curve" smooth="yes"/>
      <point x="91" y="684"/>
      <point x="30" y="615"/>
      <point x="30" y="529" type="curve" smooth="yes"/>
      <point x="30" y="430"/>
      <point x="94" y="368"/>
      <point x="202" y="368" type="curve" smooth="yes"/>
      <point x="490" y="368" type="line"/>
      <point x="490" y="443" type="line"/>
      <point x="208" y="443" type="line" smooth="yes"/>
      <point x="142" y="443"/>
      <point x="116" y="477"/>
      <point x="116" y="530" type="curve" smooth="yes"/>
      <point x="116" y="575"/>
      <point x="139" y="609"/>
      <point x="178" y="609" type="curve" smooth="yes"/>
      <point x="222" y="609"/>
      <point x="252" y="583"/>
      <point x="252" y="510" type="curve" smooth="yes"/>
    </contour>
  </outline>
</glyph>
<glyph name="uni118E5" format="2">
  <advance width="678"/>
  <unicode hex="118E5"/>
  <outline>
    <contour>
      <point x="129" y="-10" type="curve" smooth="yes"/>
      <point x="197" y="-10"/>
      <point x="231" y="28"/>
      <point x="271" y="100" type="curve"/>
      <point x="338" y="50"/>
      <point x="419" y="-10"/>
      <point x="502" y="-10" type="curve" smooth="yes"/>
      <point x="568" y="-10"/>
      <point x="615" y="37"/>
      <point x="618" y="121" type="curve"/>
      <point x="546" y="141" type="line"/>
      <point x="545" y="88"/>
      <point x="529" y="65"/>
      <point x="499" y="65" type="curve" smooth="yes"/>
      <point x="449" y="65"/>
      <point x="358" y="128"/>
      <point x="285" y="182" type="curve"/>
      <point x="293" y="138" type="line"/>
      <point x="441" y="470" type="line"/>
      <point x="473" y="457"/>
      <point x="504" y="449"/>
      <point x="533" y="449" type="curve" smooth="yes"/>
      <point x="608" y="449"/>
      <point x="658" y="498"/>
      <point x="658" y="575" type="curve" smooth="yes"/>
      <point x="658" y="639"/>
      <point x="623" y="684"/>
      <point x="549" y="684" type="curve" smooth="yes"/>
      <point x="486" y="684"/>
      <point x="447" y="645"/>
      <point x="406" y="574" type="curve"/>
      <point x="327" y="629"/>
      <point x="248" y="684"/>
      <point x="176" y="684" type="curve" smooth="yes"/>
      <point x="107" y="684"/>
      <point x="63" y="637"/>
      <point x="60" y="553" type="curve"/>
      <point x="132" y="533" type="line"/>
      <point x="133" y="596"/>
      <point x="159" y="609"/>
      <point x="179" y="609" type="curve" smooth="yes"/>
      <point x="215" y="609"/>
      <point x="290" y="559"/>
      <point x="371" y="505" type="curve"/>
      <point x="236" y="203" type="line"/>
      <point x="205" y="216"/>
      <point x="176" y="225"/>
      <point x="148" y="225" type="curve" smooth="yes"/>
      <point x="68" y="225"/>
      <point x="20" y="175"/>
      <point x="20" y="103" type="curve" smooth="yes"/>
      <point x="20" y="42"/>
      <point x="59" y="-10"/>
    </contour>
    <contour>
      <point x="134" y="62" type="curve" smooth="yes"/>
      <point x="113" y="62"/>
      <point x="100" y="80"/>
      <point x="100" y="107" type="curve" smooth="yes"/>
      <point x="100" y="136"/>
      <point x="121" y="153"/>
      <point x="146" y="153" type="curve" smooth="yes"/>
      <point x="172" y="153"/>
      <point x="191" y="144"/>
      <point x="203" y="136" type="curve"/>
      <point x="175" y="85"/>
      <point x="156" y="62"/>
    </contour>
    <contour>
      <point x="537" y="521" type="curve" smooth="yes"/>
      <point x="518" y="521"/>
      <point x="497" y="527"/>
      <point x="474" y="537" type="curve"/>
      <point x="502" y="589"/>
      <point x="524" y="612"/>
      <point x="547" y="612" type="curve" smooth="yes"/>
      <point x="568" y="612"/>
      <point x="578" y="591"/>
      <point x="578" y="567" type="curve" smooth="yes"/>
      <point x="578" y="541"/>
      <point x="565" y="521"/>
    </contour>
  </outline>
</glyph>
<glyph name="uni118E6" format="2">
  <advance width="753"/>
  <unicode hex="118E6"/>
  <outline>
    <contour>
      <point x="237" y="0" type="line"/>
      <point x="319" y="0" type="line"/>
      <point x="376" y="461" type="line"/>
      <point x="434" y="0" type="line"/>
      <point x="516" y="0" type="line"/>
      <point x="576" y="510" type="line" smooth="yes"/>
      <point x="584" y="582"/>
      <point x="593" y="609"/>
      <point x="624" y="609" type="curve" smooth="yes"/>
      <point x="640" y="609"/>
      <point x="653" y="596"/>
      <point x="653" y="570" type="curve" smooth="yes"/>
      <point x="653" y="543"/>
      <point x="646" y="508"/>
      <point x="628" y="474" type="curve"/>
      <point x="700" y="452" type="line"/>
      <point x="713" y="473"/>
      <point x="733" y="518"/>
      <point x="733" y="568" type="curve" smooth="yes"/>
      <point x="733" y="645"/>
      <point x="683" y="684"/>
      <point x="627" y="684" type="curve" smooth="yes"/>
      <point x="539" y="684"/>
      <point x="506" y="637"/>
      <point x="494" y="508" type="curve" smooth="yes"/>
      <point x="466" y="206" type="line"/>
      <point x="474" y="206" type="line"/>
      <point x="414" y="674" type="line"/>
      <point x="339" y="674" type="line"/>
      <point x="279" y="206" type="line"/>
      <point x="287" y="206" type="line"/>
      <point x="259" y="508" type="line" smooth="yes"/>
      <point x="247" y="637"/>
      <point x="214" y="684"/>
      <point x="129" y="684" type="curve" smooth="yes"/>
      <point x="70" y="684"/>
      <point x="20" y="645"/>
      <point x="20" y="568" type="curve" smooth="yes"/>
      <point x="20" y="518"/>
      <point x="40" y="473"/>
      <point x="53" y="452" type="curve"/>
      <point x="125" y="474" type="line"/>
      <point x="107" y="508"/>
      <point x="100" y="543"/>
      <point x="100" y="570" type="curve" smooth="yes"/>
      <point x="100" y="596"/>
      <point x="113" y="609"/>
      <point x="129" y="609" type="curve" smooth="yes"/>
      <point x="160" y="609"/>
      <point x="169" y="582"/>
      <point x="177" y="510" type="curve" smooth="yes"/>
    </contour>
  </outline>
</glyph>
<glyph name="uni118E7" format="2">
  <advance width="623"/>
  <unicode hex="118E7"/>
  <outline>
    <contour>
      <point x="286" y="-6" type="curve" smooth="yes"/>
      <point x="439" y="-6"/>
      <point x="583" y="108"/>
      <point x="583" y="345" type="curve" smooth="yes"/>
      <point x="583" y="474"/>
      <point x="538" y="610"/>
      <point x="473" y="701" type="curve"/>
      <point x="400" y="663" type="line"/>
      <point x="450" y="590"/>
      <point x="495" y="468"/>
      <point x="495" y="345" type="curve" smooth="yes"/>
      <point x="495" y="134"/>
      <point x="367" y="69"/>
      <point x="290" y="69" type="curve" smooth="yes"/>
      <point x="183" y="69"/>
      <point x="117" y="138"/>
      <point x="117" y="259" type="curve"/>
      <point x="104" y="236" type="line"/>
      <point x="122" y="229"/>
      <point x="131" y="226"/>
      <point x="149" y="226" type="curve" smooth="yes"/>
      <point x="230" y="226"/>
      <point x="297" y="288"/>
      <point x="297" y="387" type="curve" smooth="yes"/>
      <point x="297" y="473"/>
      <point x="240" y="542"/>
      <point x="153" y="542" type="curve" smooth="yes"/>
      <point x="82" y="542"/>
      <point x="40" y="503"/>
      <point x="20" y="447" type="curve"/>
      <point x="85" y="411" type="line"/>
      <point x="95" y="452"/>
      <point x="123" y="467"/>
      <point x="149" y="467" type="curve" smooth="yes"/>
      <point x="188" y="467"/>
      <point x="211" y="433"/>
      <point x="211" y="388" type="curve" smooth="yes"/>
      <point x="211" y="328"/>
      <point x="182" y="301"/>
      <point x="141" y="301" type="curve" smooth="yes"/>
      <point x="117" y="301"/>
      <point x="96" y="309"/>
      <point x="82" y="323" type="curve"/>
      <point x="33" y="289" type="line"/>
      <point x="35" y="80"/>
      <point x="142" y="-6"/>
    </contour>
  </outline>
</glyph>
<glyph name="uni118E8" format="2">
  <advance width="535"/>
  <unicode hex="118E8"/>
  <outline>
    <contour>
      <point x="20" y="-17" type="line"/>
      <point x="251" y="41"/>
      <point x="495" y="230"/>
      <point x="495" y="474" type="curve" smooth="yes"/>
      <point x="495" y="615"/>
      <point x="389" y="684"/>
      <point x="283" y="684" type="curve" smooth="yes"/>
      <point x="225" y="684"/>
      <point x="168" y="667"/>
      <point x="120" y="634" type="curve"/>
      <point x="163" y="563" type="line"/>
      <point x="201" y="596"/>
      <point x="245" y="609"/>
      <point x="279" y="609" type="curve" smooth="yes"/>
      <point x="356" y="609"/>
      <point x="407" y="546"/>
      <point x="407" y="464" type="curve" smooth="yes"/>
      <point x="407" y="257"/>
      <point x="180" y="110"/>
      <point x="0" y="62" type="curve"/>
    </contour>
  </outline>
</glyph>
<glyph name="uni118E9" format="2">
  <advance width="525"/>
  <unicode hex="118E9"/>
  <outline>
    <contour>
      <point x="505" y="-17" type="curve"/>
      <point x="525" y="62" type="line"/>
      <point x="345" y="110"/>
      <point x="128" y="210"/>
      <point x="128" y="417" type="curve" smooth="yes"/>
      <point x="128" y="499"/>
      <point x="179" y="572"/>
      <point x="256" y="572" type="curve" smooth="yes"/>
      <point x="290" y="572"/>
      <point x="317" y="565"/>
      <point x="354" y="541" type="curve"/>
      <point x="436" y="565" type="line"/>
      <point x="436" y="684" type="line"/>
      <point x="354" y="684" type="line"/>
      <point x="354" y="596" type="line"/>
      <point x="375" y="611" type="line"/>
      <point x="335" y="638"/>
      <point x="294" y="647"/>
      <point x="252" y="647" type="curve" smooth="yes"/>
      <point x="146" y="647"/>
      <point x="40" y="568"/>
      <point x="40" y="427" type="curve" smooth="yes"/>
      <point x="40" y="183"/>
      <point x="274" y="41"/>
    </contour>
  </outline>
</glyph>
<glyph name="uni118EA" format="2">
  <advance width="678"/>
  <unicode hex="118EA"/>
  <outline>
    <contour>
      <point x="370" y="-10" type="curve" smooth="yes"/>
      <point x="466" y="-10"/>
      <point x="601" y="157"/>
      <point x="658" y="328" type="curve"/>
      <point x="587" y="362" type="line"/>
      <point x="542" y="207"/>
      <point x="428" y="65"/>
      <point x="368" y="65" type="curve" smooth="yes"/>
      <point x="314" y="65"/>
      <point x="127" y="255"/>
      <point x="118" y="408" type="curve"/>
      <point x="208" y="403"/>
      <point x="272" y="354"/>
      <point x="388" y="231" type="curve"/>
      <point x="449" y="258" type="line"/>
      <point x="449" y="674" type="line"/>
      <point x="367" y="674" type="line"/>
      <point x="367" y="331" type="line"/>
      <point x="383" y="334" type="line"/>
      <point x="305" y="443"/>
      <point x="167" y="494"/>
      <point x="83" y="494" type="curve" smooth="yes"/>
      <point x="52" y="494"/>
      <point x="30" y="469"/>
      <point x="30" y="423" type="curve" smooth="yes"/>
      <point x="30" y="215"/>
      <point x="282" y="-10"/>
    </contour>
  </outline>
</glyph>
<glyph name="uni118EB" format="2">
  <advance width="644"/>
  <unicode hex="118EB"/>
  <outline>
    <contour>
      <point x="89" y="136" type="line"/>
      <point x="102" y="175"/>
      <point x="118" y="212"/>
      <point x="137" y="245" type="curve"/>
      <point x="188" y="191"/>
      <point x="251" y="156"/>
      <point x="326" y="156" type="curve" smooth="yes"/>
      <point x="396" y="156"/>
      <point x="457" y="191"/>
      <point x="507" y="246" type="curve"/>
      <point x="526" y="212"/>
      <point x="542" y="175"/>
      <point x="555" y="136" type="curve"/>
      <point x="624" y="166" type="line"/>
      <point x="606" y="217"/>
      <point x="584" y="267"/>
      <point x="556" y="310" type="curve"/>
      <point x="584" y="354"/>
      <point x="606" y="403"/>
      <point x="624" y="455" type="curve"/>
      <point x="555" y="485" type="line"/>
      <point x="542" y="445"/>
      <point x="526" y="408"/>
      <point x="507" y="375" type="curve"/>
      <point x="457" y="430"/>
      <point x="396" y="465"/>
      <point x="326" y="465" type="curve" smooth="yes"/>
      <point x="251" y="465"/>
      <point x="188" y="430"/>
      <point x="137" y="375" type="curve"/>
      <point x="118" y="408"/>
      <point x="102" y="445"/>
      <point x="89" y="485" type="curve"/>
      <point x="20" y="455" type="line"/>
      <point x="37" y="403"/>
      <point x="59" y="354"/>
      <point x="87" y="310" type="curve"/>
      <point x="59" y="267"/>
      <point x="37" y="217"/>
      <point x="20" y="166" type="curve"/>
    </contour>
    <contour>
      <point x="327" y="227" type="curve" smooth="yes"/>
      <point x="267" y="227"/>
      <point x="211" y="268"/>
      <point x="165" y="330" type="curve"/>
      <point x="165" y="289" type="line"/>
      <point x="211" y="363"/>
      <point x="267" y="394"/>
      <point x="327" y="394" type="curve" smooth="yes"/>
      <point x="382" y="394"/>
      <point x="437" y="363"/>
      <point x="481" y="289" type="curve"/>
      <point x="481" y="331" type="line"/>
      <point x="437" y="268"/>
      <point x="382" y="227"/>
    </contour>
  </outline>
</glyph>
<glyph name="uni118EC" format="2">
  <advance width="673"/>
  <unicode hex="118EC"/>
  <outline>
    <contour>
      <point x="89" y="-15" type="line"/>
      <point x="150" y="187"/>
      <point x="248" y="304"/>
      <point x="336" y="304" type="curve" smooth="yes"/>
      <point x="410" y="304"/>
      <point x="502" y="226"/>
      <point x="584" y="-15" type="curve"/>
      <point x="653" y="11" type="line"/>
      <point x="606" y="168"/>
      <point x="531" y="285"/>
      <point x="448" y="341" type="curve"/>
      <point x="531" y="397"/>
      <point x="606" y="514"/>
      <point x="653" y="672" type="curve"/>
      <point x="584" y="698" type="line"/>
      <point x="502" y="457"/>
      <point x="410" y="379"/>
      <point x="336" y="379" type="curve" smooth="yes"/>
      <point x="248" y="379"/>
      <point x="150" y="496"/>
      <point x="89" y="698" type="curve"/>
      <point x="20" y="672" type="line"/>
      <point x="68" y="504"/>
      <point x="145" y="394"/>
      <point x="226" y="341" type="curve"/>
      <point x="145" y="288"/>
      <point x="68" y="178"/>
      <point x="20" y="11" type="curve"/>
    </contour>
  </outline>
</glyph>
<glyph name="uni118ED" format="2">
  <advance width="690"/>
  <unicode hex="118ED"/>
  <outline>
    <contour>
      <point x="553" y="-10" type="curve" smooth="yes"/>
      <point x="607" y="-10"/>
      <point x="644" y="19"/>
      <point x="680" y="74" type="curve"/>
      <point x="616" y="117" type="line"/>
      <point x="593" y="79"/>
      <point x="575" y="62"/>
      <point x="555" y="62" type="curve" smooth="yes"/>
      <point x="528" y="62"/>
      <point x="513" y="81"/>
      <point x="513" y="107" type="curve" smooth="yes"/>
      <point x="513" y="134"/>
      <point x="518" y="154"/>
      <point x="524" y="174" type="curve" smooth="yes"/>
      <point x="531" y="198"/>
      <point x="537" y="232"/>
      <point x="537" y="268" type="curve" smooth="yes"/>
      <point x="537" y="376"/>
      <point x="463" y="443"/>
      <point x="355" y="443" type="curve" smooth="yes"/>
      <point x="334" y="443" type="line"/>
      <point x="334" y="508" type="line" smooth="yes"/>
      <point x="334" y="618"/>
      <point x="276" y="684"/>
      <point x="178" y="684" type="curve" smooth="yes"/>
      <point x="91" y="684"/>
      <point x="30" y="615"/>
      <point x="30" y="529" type="curve" smooth="yes"/>
      <point x="30" y="430"/>
      <point x="89" y="368"/>
      <point x="197" y="368" type="curve" smooth="yes"/>
      <point x="252" y="368" type="line"/>
      <point x="252" y="0" type="line"/>
      <point x="334" y="0" type="line"/>
      <point x="334" y="368" type="line"/>
      <point x="352" y="368" type="line" smooth="yes"/>
      <point x="419" y="368"/>
      <point x="453" y="329"/>
      <point x="453" y="258" type="curve" smooth="yes"/>
      <point x="453" y="228"/>
      <point x="448" y="207"/>
      <point x="442" y="184" type="curve" smooth="yes"/>
      <point x="435" y="159"/>
      <point x="429" y="137"/>
      <point x="429" y="107" type="curve" smooth="yes"/>
      <point x="429" y="30"/>
      <point x="484" y="-10"/>
    </contour>
    <contour>
      <point x="198" y="443" type="line" smooth="yes"/>
      <point x="132" y="443"/>
      <point x="116" y="477"/>
      <point x="116" y="530" type="curve" smooth="yes"/>
      <point x="116" y="575"/>
      <point x="139" y="609"/>
      <point x="178" y="609" type="curve" smooth="yes"/>
      <point x="222" y="609"/>
      <point x="252" y="583"/>
      <point x="252" y="510" type="curve" smooth="yes"/>
      <point x="252" y="443" type="line"/>
    </contour>
  </outline>
</glyph>
<glyph name="uni118EE" format="2">
  <advance width="678"/>
  <unicode hex="118EE"/>
  <outline>
    <contour>
      <point x="131" y="-10" type="curve" smooth="yes"/>
      <point x="192" y="-10"/>
      <point x="236" y="28"/>
      <point x="271" y="100" type="curve"/>
      <point x="351" y="47"/>
      <point x="439" y="-10"/>
      <point x="512" y="-10" type="curve" smooth="yes"/>
      <point x="587" y="-10"/>
      <point x="622" y="45"/>
      <point x="622" y="103" type="curve" smooth="yes"/>
      <point x="622" y="161"/>
      <point x="566" y="206"/>
      <point x="517" y="245" type="curve" smooth="yes"/>
      <point x="387" y="348" type="line"/>
      <point x="441" y="470" type="line"/>
      <point x="473" y="457"/>
      <point x="504" y="449"/>
      <point x="533" y="449" type="curve" smooth="yes"/>
      <point x="615" y="449"/>
      <point x="658" y="501"/>
      <point x="658" y="575" type="curve" smooth="yes"/>
      <point x="658" y="639"/>
      <point x="614" y="684"/>
      <point x="545" y="684" type="curve" smooth="yes"/>
      <point x="478" y="684"/>
      <point x="447" y="645"/>
      <point x="406" y="574" type="curve"/>
      <point x="327" y="626"/>
      <point x="238" y="684"/>
      <point x="166" y="684" type="curve" smooth="yes"/>
      <point x="91" y="684"/>
      <point x="56" y="629"/>
      <point x="56" y="571" type="curve" smooth="yes"/>
      <point x="56" y="513"/>
      <point x="111" y="466"/>
      <point x="160" y="428" type="curve" smooth="yes"/>
      <point x="291" y="326" type="line"/>
      <point x="236" y="203" type="line"/>
      <point x="205" y="216"/>
      <point x="173" y="225"/>
      <point x="145" y="225" type="curve" smooth="yes"/>
      <point x="71" y="225"/>
      <point x="20" y="176"/>
      <point x="20" y="104" type="curve" smooth="yes"/>
      <point x="20" y="40"/>
      <point x="60" y="-10"/>
    </contour>
    <contour>
      <point x="136" y="62" type="curve" smooth="yes"/>
      <point x="118" y="62"/>
      <point x="100" y="78"/>
      <point x="100" y="107" type="curve" smooth="yes"/>
      <point x="100" y="137"/>
      <point x="119" y="153"/>
      <point x="141" y="153" type="curve" smooth="yes"/>
      <point x="159" y="153"/>
      <point x="181" y="146"/>
      <point x="203" y="136" type="curve"/>
      <point x="175" y="85"/>
      <point x="158" y="62"/>
    </contour>
    <contour>
      <point x="499" y="65" type="curve" smooth="yes"/>
      <point x="463" y="65"/>
      <point x="387" y="114"/>
      <point x="306" y="168" type="curve"/>
      <point x="355" y="276" type="line"/>
      <point x="483" y="179" type="line" smooth="yes"/>
      <point x="510" y="158"/>
      <point x="542" y="133"/>
      <point x="542" y="106" type="curve" smooth="yes"/>
      <point x="542" y="82"/>
      <point x="530" y="65"/>
    </contour>
    <contour>
      <point x="322" y="397" type="line"/>
      <point x="195" y="495" type="line" smooth="yes"/>
      <point x="168" y="516"/>
      <point x="136" y="541"/>
      <point x="136" y="568" type="curve" smooth="yes"/>
      <point x="136" y="592"/>
      <point x="148" y="609"/>
      <point x="179" y="609" type="curve" smooth="yes"/>
      <point x="215" y="609"/>
      <point x="292" y="558"/>
      <point x="371" y="505" type="curve"/>
    </contour>
    <contour>
      <point x="537" y="521" type="curve" smooth="yes"/>
      <point x="518" y="521"/>
      <point x="497" y="527"/>
      <point x="474" y="537" type="curve"/>
      <point x="502" y="589"/>
      <point x="519" y="612"/>
      <point x="542" y="612" type="curve" smooth="yes"/>
      <point x="562" y="612"/>
      <point x="578" y="597"/>
      <point x="578" y="567" type="curve" smooth="yes"/>
      <point x="578" y="539"/>
      <point x="560" y="521"/>
    </contour>
  </outline>
</glyph>
<glyph name="uni118EF" format="2">
  <advance width="753"/>
  <unicode hex="118EF"/>
  <outline>
    <contour>
      <point x="237" y="0" type="line"/>
      <point x="319" y="0" type="line"/>
      <point x="380" y="524" type="line"/>
      <point x="372" y="524" type="line"/>
      <point x="434" y="0" type="line"/>
      <point x="516" y="0" type="line"/>
      <point x="576" y="510" type="line" smooth="yes"/>
      <point x="584" y="582"/>
      <point x="593" y="609"/>
      <point x="624" y="609" type="curve" smooth="yes"/>
      <point x="640" y="609"/>
      <point x="653" y="596"/>
      <point x="653" y="567" type="curve" smooth="yes"/>
      <point x="653" y="480"/>
      <point x="615" y="434"/>
      <point x="550" y="414" type="curve"/>
      <point x="539" y="338" type="line"/>
      <point x="655" y="369"/>
      <point x="733" y="439"/>
      <point x="733" y="562" type="curve" smooth="yes"/>
      <point x="733" y="639"/>
      <point x="689" y="684"/>
      <point x="629" y="684" type="curve" smooth="yes"/>
      <point x="539" y="684"/>
      <point x="503" y="617"/>
      <point x="494" y="508" type="curve" smooth="yes"/>
      <point x="481" y="354" type="line"/>
      <point x="471" y="139" type="line"/>
      <point x="476" y="139" type="line"/>
      <point x="414" y="674" type="line"/>
      <point x="339" y="674" type="line"/>
      <point x="278" y="139" type="line"/>
      <point x="283" y="139" type="line"/>
      <point x="272" y="350" type="line"/>
      <point x="259" y="508" type="line" smooth="yes"/>
      <point x="250" y="617"/>
      <point x="214" y="684"/>
      <point x="124" y="684" type="curve" smooth="yes"/>
      <point x="59" y="684"/>
      <point x="20" y="637"/>
      <point x="20" y="562" type="curve" smooth="yes"/>
      <point x="20" y="439"/>
      <point x="96" y="369"/>
      <point x="214" y="338" type="curve"/>
      <point x="203" y="413" type="line"/>
      <point x="138" y="434"/>
      <point x="100" y="480"/>
      <point x="100" y="566" type="curve" smooth="yes"/>
      <point x="100" y="596"/>
      <point x="113" y="609"/>
      <point x="129" y="609" type="curve" smooth="yes"/>
      <point x="160" y="609"/>
      <point x="169" y="582"/>
      <point x="177" y="510" type="curve" smooth="yes"/>
    </contour>
    <contour>
      <point x="375" y="318" type="curve" smooth="yes"/>
      <point x="418" y="318"/>
      <point x="465" y="322"/>
      <point x="495" y="326" type="curve"/>
      <point x="503" y="401" type="line"/>
      <point x="478" y="395"/>
      <point x="424" y="390"/>
      <point x="376" y="390" type="curve" smooth="yes"/>
      <point x="328" y="390"/>
      <point x="275" y="395"/>
      <point x="252" y="401" type="curve"/>
      <point x="256" y="327" type="line"/>
      <point x="290" y="321"/>
      <point x="332" y="318"/>
    </contour>
  </outline>
</glyph>
<glyph name="uni118F0" format="2">
  <advance width="699"/>
  <unicode hex="118F0"/>
  <outline>
    <contour>
      <point x="297" y="-6" type="curve" smooth="yes"/>
      <point x="461" y="-6"/>
      <point x="603" y="98"/>
      <point x="603" y="335" type="curve" smooth="yes"/>
      <point x="603" y="416"/>
      <point x="567" y="489"/>
      <point x="539" y="537" type="curve" smooth="yes"/>
      <point x="525" y="561"/>
      <point x="517" y="576"/>
      <point x="517" y="589" type="curve" smooth="yes"/>
      <point x="517" y="600"/>
      <point x="522" y="609"/>
      <point x="534" y="609" type="curve" smooth="yes"/>
      <point x="561" y="609"/>
      <point x="591" y="575"/>
      <point x="628" y="483" type="curve"/>
      <point x="699" y="509" type="line"/>
      <point x="653" y="625"/>
      <point x="609" y="684"/>
      <point x="521" y="684" type="curve" smooth="yes"/>
      <point x="461" y="684"/>
      <point x="429" y="645"/>
      <point x="429" y="596" type="curve" smooth="yes"/>
      <point x="429" y="566"/>
      <point x="445" y="536"/>
      <point x="464" y="501" type="curve" smooth="yes"/>
      <point x="488" y="456"/>
      <point x="515" y="404"/>
      <point x="515" y="335" type="curve" smooth="yes"/>
      <point x="515" y="124"/>
      <point x="392" y="69"/>
      <point x="300" y="69" type="curve" smooth="yes"/>
      <point x="204" y="69"/>
      <point x="118" y="126"/>
      <point x="118" y="259" type="curve"/>
      <point x="104" y="233" type="line"/>
      <point x="122" y="226"/>
      <point x="131" y="226"/>
      <point x="149" y="226" type="curve" smooth="yes"/>
      <point x="230" y="226"/>
      <point x="297" y="288"/>
      <point x="297" y="387" type="curve" smooth="yes"/>
      <point x="297" y="473"/>
      <point x="240" y="542"/>
      <point x="153" y="542" type="curve" smooth="yes"/>
      <point x="82" y="542"/>
      <point x="40" y="503"/>
      <point x="20" y="447" type="curve"/>
      <point x="85" y="411" type="line"/>
      <point x="95" y="452"/>
      <point x="123" y="467"/>
      <point x="149" y="467" type="curve" smooth="yes"/>
      <point x="188" y="467"/>
      <point x="211" y="433"/>
      <point x="211" y="388" type="curve" smooth="yes"/>
      <point x="211" y="335"/>
      <point x="193" y="301"/>
      <point x="144" y="301" type="curve" smooth="yes"/>
      <point x="130" y="301"/>
      <point x="97" y="308"/>
      <point x="82" y="323" type="curve"/>
      <point x="33" y="289" type="line"/>
      <point x="35" y="80"/>
      <point x="142" y="-6"/>
    </contour>
  </outline>
</glyph>
<glyph name="uni118F1" format="2">
  <advance width="506"/>
  <unicode hex="118F1"/>
  <outline>
    <contour>
      <point x="40" y="-17" type="line"/>
      <point x="311" y="72"/>
      <point x="466" y="241"/>
      <point x="466" y="407" type="curve" smooth="yes"/>
      <point x="466" y="525"/>
      <point x="382" y="587"/>
      <point x="301" y="587" type="curve" smooth="yes"/>
      <point x="237" y="587"/>
      <point x="189" y="555"/>
      <point x="163" y="520" type="curve"/>
      <point x="172" y="507" type="line"/>
      <point x="172" y="674" type="line"/>
      <point x="90" y="674" type="line"/>
      <point x="90" y="318" type="line"/>
      <point x="172" y="318" type="line"/>
      <point x="172" y="408" type="line"/>
      <point x="187" y="487"/>
      <point x="239" y="512"/>
      <point x="286" y="512" type="curve" smooth="yes"/>
      <point x="340" y="512"/>
      <point x="378" y="479"/>
      <point x="378" y="401" type="curve" smooth="yes"/>
      <point x="378" y="242"/>
      <point x="181" y="105"/>
      <point x="20" y="62" type="curve"/>
    </contour>
  </outline>
</glyph>
<glyph name="uni118F2" format="2">
  <advance width="476"/>
  <unicode hex="118F2"/>
  <outline>
    <contour>
      <point x="301" y="-14" type="curve"/>
      <point x="353" y="50" type="line"/>
      <point x="231" y="135"/>
      <point x="128" y="258"/>
      <point x="128" y="387" type="curve" smooth="yes"/>
      <point x="128" y="474"/>
      <point x="164" y="512"/>
      <point x="220" y="512" type="curve" smooth="yes"/>
      <point x="267" y="512"/>
      <point x="319" y="487"/>
      <point x="334" y="408" type="curve"/>
      <point x="334" y="388" type="line"/>
      <point x="416" y="388" type="line"/>
      <point x="416" y="674" type="line"/>
      <point x="334" y="674" type="line"/>
      <point x="334" y="507" type="line"/>
      <point x="351" y="520" type="line"/>
      <point x="328" y="558"/>
      <point x="269" y="587"/>
      <point x="205" y="587" type="curve" smooth="yes"/>
      <point x="115" y="587"/>
      <point x="40" y="522"/>
      <point x="40" y="397" type="curve" smooth="yes"/>
      <point x="40" y="241"/>
      <point x="157" y="90"/>
    </contour>
  </outline>
</glyph>
<glyph name="uni118FF" format="2">
  <advance width="661"/>
  <unicode hex="118FF"/>
  <outline>
    <contour>
      <point x="343" y="-65" type="curve" smooth="yes"/>
      <point x="488" y="-65"/>
      <point x="601" y="152"/>
      <point x="601" y="357" type="curve" smooth="yes"/>
      <point x="601" y="496"/>
      <point x="548" y="542"/>
      <point x="469" y="542" type="curve" smooth="yes"/>
      <point x="403" y="542"/>
      <point x="369" y="496"/>
      <point x="355" y="440" type="curve"/>
      <point x="334" y="465"/>
      <point x="305" y="483"/>
      <point x="270" y="483" type="curve" smooth="yes"/>
      <point x="213" y="483"/>
      <point x="169" y="442"/>
      <point x="169" y="349" type="curve" smooth="yes"/>
      <point x="169" y="225"/>
      <point x="224" y="120"/>
      <point x="306" y="38" type="curve"/>
      <point x="338" y="70" type="line"/>
      <point x="270" y="138"/>
      <point x="223" y="228"/>
      <point x="223" y="340" type="curve" smooth="yes"/>
      <point x="223" y="390"/>
      <point x="236" y="433"/>
      <point x="274" y="433" type="curve" smooth="yes"/>
      <point x="327" y="433"/>
      <point x="343" y="388"/>
      <point x="349" y="340" type="curve"/>
      <point x="349" y="86" type="line"/>
      <point x="399" y="86" type="line"/>
      <point x="399" y="349" type="line" smooth="yes"/>
      <point x="399" y="405"/>
      <point x="408" y="492"/>
      <point x="469" y="492" type="curve" smooth="yes"/>
      <point x="519" y="492"/>
      <point x="547" y="455"/>
      <point x="547" y="348" type="curve" smooth="yes"/>
      <point x="547" y="164"/>
      <point x="444" y="-15"/>
      <point x="346" y="-15" type="curve" smooth="yes"/>
      <point x="222" y="-15"/>
      <point x="114" y="212"/>
      <point x="114" y="409" type="curve" smooth="yes"/>
      <point x="114" y="523"/>
      <point x="141" y="560"/>
      <point x="201" y="560" type="curve" smooth="yes"/>
      <point x="234" y="560"/>
      <point x="256" y="550"/>
      <point x="276" y="537" type="curve" smooth="yes"/>
      <point x="293" y="526"/>
      <point x="309" y="520"/>
      <point x="326" y="520" type="curve" smooth="yes"/>
      <point x="372" y="520"/>
      <point x="376" y="571"/>
      <point x="376" y="609" type="curve" smooth="yes"/>
      <point x="376" y="879" type="line"/>
      <point x="326" y="879" type="line"/>
      <point x="326" y="610" type="line" smooth="yes"/>
      <point x="326" y="587"/>
      <point x="322" y="570"/>
      <point x="315" y="570" type="curve" smooth="yes"/>
      <point x="309" y="570"/>
      <point x="302" y="573"/>
      <point x="289" y="582" type="curve" smooth="yes"/>
      <point x="268" y="596"/>
      <point x="238" y="610"/>
      <point x="202" y="610" type="curve" smooth="yes"/>
      <point x="111" y="610"/>
      <point x="60" y="553"/>
      <point x="60" y="413" type="curve" smooth="yes"/>
      <point x="60" y="149"/>
      <point x="200" y="-65"/>
    </contour>
  </outline>
</glyph>
<glyph name="uni118A1.sm" format="2">
  <advance width="522"/>
  <outline>
    <contour>
      <point x="26" y="0" type="line"/>
      <point x="292" y="0" type="line"/>
      <point x="292" y="484" type="line"/>
      <point x="496" y="484" type="line"/>
      <point x="496" y="557" type="line"/>
      <point x="208" y="557" type="line"/>
      <point x="208" y="72" type="line"/>
      <point x="26" y="72" type="line"/>
    </contour>
  </outline>
</glyph>
<glyph name="uni118A2.sm" format="2">
  <advance width="490"/>
  <outline>
    <contour>
      <point x="139" y="0" type="line"/>
      <point x="223" y="0" type="line"/>
      <point x="223" y="284" type="line"/>
      <point x="461" y="284" type="line"/>
      <point x="461" y="357" type="line"/>
      <point x="223" y="357" type="line"/>
      <point x="223" y="484" type="line"/>
      <point x="462" y="484" type="line"/>
      <point x="462" y="557" type="line"/>
      <point x="139" y="557" type="line"/>
      <point x="139" y="357" type="line"/>
      <point x="26" y="357" type="line"/>
      <point x="26" y="284" type="line"/>
      <point x="139" y="284" type="line"/>
    </contour>
  </outline>
</glyph>
<glyph name="uni118A3.sm" format="2">
  <advance width="560"/>
  <outline>
    <contour>
      <point x="64" y="0" type="line"/>
      <point x="534" y="0" type="line"/>
      <point x="534" y="73" type="line"/>
      <point x="148" y="73" type="line"/>
      <point x="148" y="557" type="line"/>
      <point x="64" y="557" type="line"/>
    </contour>
  </outline>
</glyph>
<glyph name="uni118A4.sm" format="2">
  <advance width="501"/>
  <outline>
    <contour>
      <point x="25" y="0" type="line"/>
      <point x="292" y="0" type="line"/>
      <point x="292" y="320" type="line"/>
      <point x="475" y="516" type="line"/>
      <point x="417" y="562" type="line"/>
      <point x="250" y="383" type="line"/>
      <point x="83" y="562" type="line"/>
      <point x="24" y="516" type="line"/>
      <point x="208" y="320" type="line"/>
      <point x="208" y="72" type="line"/>
      <point x="25" y="72" type="line"/>
    </contour>
  </outline>
</glyph>
<glyph name="uni118A5.sm" format="2">
  <advance width="620"/>
  <outline>
    <contour>
      <point x="26" y="0" type="line"/>
      <point x="220" y="0" type="line"/>
      <point x="220" y="284" type="line"/>
      <point x="386" y="284" type="line"/>
      <point x="386" y="72" type="line"/>
      <point x="276" y="72" type="line"/>
      <point x="276" y="0" type="line"/>
      <point x="470" y="0" type="line"/>
      <point x="470" y="484" type="line"/>
      <point x="594" y="484" type="line"/>
      <point x="594" y="557" type="line"/>
      <point x="386" y="557" type="line"/>
      <point x="386" y="357" type="line"/>
      <point x="220" y="357" type="line"/>
      <point x="220" y="484" type="line"/>
      <point x="344" y="484" type="line"/>
      <point x="344" y="557" type="line"/>
      <point x="136" y="557" type="line"/>
      <point x="136" y="72" type="line"/>
      <point x="26" y="72" type="line"/>
    </contour>
  </outline>
</glyph>
<glyph name="uni118A6.sm" format="2">
  <advance width="562"/>
  <outline>
    <contour>
      <point x="134" y="0" type="line"/>
      <point x="534" y="0" type="line"/>
      <point x="534" y="73" type="line"/>
      <point x="218" y="73" type="line"/>
      <point x="218" y="284" type="line"/>
      <point x="521" y="284" type="line"/>
      <point x="521" y="357" type="line"/>
      <point x="218" y="357" type="line"/>
      <point x="218" y="484" type="line"/>
      <point x="534" y="484" type="line"/>
      <point x="534" y="557" type="line"/>
      <point x="134" y="557" type="line"/>
      <point x="134" y="357" type="line"/>
      <point x="26" y="357" type="line"/>
      <point x="26" y="284" type="line"/>
      <point x="134" y="284" type="line"/>
    </contour>
  </outline>
</glyph>
<glyph name="uni118A7.sm" format="2">
  <advance width="590"/>
  <outline>
    <contour>
      <point x="64" y="0" type="line"/>
      <point x="148" y="0" type="line"/>
      <point x="148" y="284" type="line"/>
      <point x="371" y="284" type="line"/>
      <point x="435" y="198" type="line"/>
      <point x="564" y="198" type="line"/>
      <point x="564" y="270" type="line"/>
      <point x="472" y="270" type="line"/>
      <point x="414" y="356" type="line"/>
      <point x="148" y="356" type="line"/>
      <point x="148" y="557" type="line"/>
      <point x="64" y="557" type="line"/>
    </contour>
  </outline>
</glyph>
<glyph name="uni118A8.sm" format="2">
  <advance width="526"/>
  <outline>
    <contour>
      <point x="129" y="0" type="line"/>
      <point x="203" y="0" type="line"/>
      <point x="514" y="557" type="line"/>
      <point x="12" y="557" type="line"/>
    </contour>
    <contour>
      <point x="185" y="119" type="line"/>
      <point x="113" y="483" type="line"/>
      <point x="381" y="483" type="line"/>
    </contour>
  </outline>
</glyph>
<glyph name="uni118A9.sm" format="2">
  <advance width="525"/>
  <outline>
    <contour>
      <point x="54" y="0" type="line"/>
      <point x="487" y="0" type="line"/>
      <point x="487" y="165" type="line"/>
      <point x="403" y="165" type="line"/>
      <point x="403" y="73" type="line"/>
      <point x="157" y="73" type="line"/>
      <point x="470" y="497" type="line"/>
      <point x="470" y="557" type="line"/>
      <point x="38" y="557" type="line"/>
      <point x="38" y="383" type="line"/>
      <point x="122" y="383" type="line"/>
      <point x="122" y="484" type="line"/>
      <point x="366" y="484" type="line"/>
      <point x="54" y="59" type="line"/>
    </contour>
  </outline>
</glyph>
<glyph name="uni118AA.sm" format="2">
  <advance width="522"/>
  <outline>
    <contour>
      <point x="180" y="-8" type="curve" smooth="yes"/>
      <point x="347" y="-8"/>
      <point x="475" y="137"/>
      <point x="475" y="290" type="curve" smooth="yes"/>
      <point x="475" y="377"/>
      <point x="419" y="428"/>
      <point x="346" y="428" type="curve" smooth="yes"/>
      <point x="313" y="428"/>
      <point x="281" y="420"/>
      <point x="258" y="410" type="curve"/>
      <point x="266" y="393" type="line"/>
      <point x="319" y="514" type="line"/>
      <point x="274" y="568" type="line"/>
      <point x="25" y="448" type="line"/>
      <point x="84" y="318" type="line"/>
      <point x="151" y="346" type="line"/>
      <point x="123" y="412" type="line"/>
      <point x="250" y="479" type="line"/>
      <point x="232" y="489" type="line"/>
      <point x="176" y="360" type="line"/>
      <point x="229" y="327" type="line"/>
      <point x="245" y="339"/>
      <point x="274" y="357"/>
      <point x="318" y="357" type="curve" smooth="yes"/>
      <point x="356" y="357"/>
      <point x="387" y="337"/>
      <point x="387" y="285" type="curve" smooth="yes"/>
      <point x="387" y="194"/>
      <point x="298" y="64"/>
      <point x="185" y="64" type="curve" smooth="yes"/>
      <point x="150" y="64"/>
      <point x="133" y="83"/>
      <point x="133" y="111" type="curve" smooth="yes"/>
      <point x="133" y="175"/>
      <point x="221" y="218"/>
      <point x="302" y="253" type="curve"/>
      <point x="271" y="316" type="line"/>
      <point x="114" y="250"/>
      <point x="44" y="180"/>
      <point x="44" y="104" type="curve" smooth="yes"/>
      <point x="44" y="41"/>
      <point x="93" y="-8"/>
    </contour>
  </outline>
</glyph>
<glyph name="uni118AB.sm" format="2">
  <advance width="525"/>
  <outline>
    <contour>
      <point x="64" y="0" type="line"/>
      <point x="148" y="0" type="line"/>
      <point x="148" y="341" type="line"/>
      <point x="377" y="461" type="line"/>
      <point x="377" y="0" type="line"/>
      <point x="461" y="0" type="line"/>
      <point x="461" y="506" type="line"/>
      <point x="412" y="565" type="line"/>
      <point x="64" y="381" type="line"/>
    </contour>
  </outline>
</glyph>
<glyph name="uni118AC.sm" format="2">
  <advance width="523"/>
  <outline>
    <contour>
      <point x="64" y="0" type="line"/>
      <point x="399" y="0" type="line"/>
      <point x="399" y="285" type="line"/>
      <point x="491" y="285" type="line"/>
      <point x="491" y="357" type="line"/>
      <point x="399" y="357" type="line"/>
      <point x="399" y="557" type="line"/>
      <point x="64" y="557" type="line"/>
      <point x="64" y="285" type="line"/>
      <point x="315" y="285" type="line"/>
      <point x="315" y="72" type="line"/>
      <point x="64" y="72" type="line"/>
    </contour>
    <contour>
      <point x="148" y="357" type="line"/>
      <point x="148" y="484" type="line"/>
      <point x="315" y="484" type="line"/>
      <point x="315" y="357" type="line"/>
    </contour>
  </outline>
</glyph>
<glyph name="uni118AD.sm" format="2">
  <advance width="638"/>
  <outline>
    <contour>
      <point x="194" y="-8" type="curve" smooth="yes"/>
      <point x="246" y="-8"/>
      <point x="290" y="13"/>
      <point x="319" y="48" type="curve"/>
      <point x="348" y="13"/>
      <point x="391" y="-8"/>
      <point x="444" y="-8" type="curve" smooth="yes"/>
      <point x="543" y="-8"/>
      <point x="608" y="69"/>
      <point x="608" y="162" type="curve" smooth="yes"/>
      <point x="608" y="256"/>
      <point x="543" y="333"/>
      <point x="444" y="333" type="curve" smooth="yes"/>
      <point x="413" y="333"/>
      <point x="385" y="325"/>
      <point x="362" y="312" type="curve"/>
      <point x="362" y="557" type="line"/>
      <point x="277" y="557" type="line"/>
      <point x="277" y="312" type="line"/>
      <point x="253" y="325"/>
      <point x="225" y="333"/>
      <point x="194" y="333" type="curve" smooth="yes"/>
      <point x="96" y="333"/>
      <point x="30" y="256"/>
      <point x="30" y="162" type="curve" smooth="yes"/>
      <point x="30" y="69"/>
      <point x="96" y="-8"/>
    </contour>
    <contour>
      <point x="194" y="61" type="curve" smooth="yes"/>
      <point x="142" y="61"/>
      <point x="109" y="106"/>
      <point x="109" y="162" type="curve" smooth="yes"/>
      <point x="109" y="219"/>
      <point x="142" y="264"/>
      <point x="194" y="264" type="curve" smooth="yes"/>
      <point x="244" y="264"/>
      <point x="276" y="222"/>
      <point x="279" y="169" type="curve" smooth="yes"/>
      <point x="279" y="162" type="line" smooth="yes"/>
      <point x="279" y="106"/>
      <point x="246" y="61"/>
    </contour>
    <contour>
      <point x="444" y="61" type="curve" smooth="yes"/>
      <point x="392" y="61"/>
      <point x="359" y="106"/>
      <point x="359" y="162" type="curve"/>
      <point x="359" y="169" type="line" smooth="yes"/>
      <point x="361" y="222"/>
      <point x="394" y="264"/>
      <point x="444" y="264" type="curve" smooth="yes"/>
      <point x="496" y="264"/>
      <point x="529" y="219"/>
      <point x="529" y="162" type="curve" smooth="yes"/>
      <point x="529" y="106"/>
      <point x="496" y="61"/>
    </contour>
  </outline>
</glyph>
<glyph name="uni118AE.sm" format="2">
  <advance width="482"/>
  <outline>
    <contour>
      <point x="64" y="0" type="line"/>
      <point x="452" y="0" type="line"/>
      <point x="452" y="72" type="line"/>
      <point x="148" y="72" type="line"/>
      <point x="148" y="285" type="line"/>
      <point x="452" y="285" type="line"/>
      <point x="452" y="357" type="line"/>
      <point x="148" y="357" type="line"/>
      <point x="148" y="484" type="line"/>
      <point x="452" y="484" type="line"/>
      <point x="452" y="557" type="line"/>
      <point x="64" y="557" type="line"/>
    </contour>
  </outline>
</glyph>
<glyph name="uni118AF.sm" format="2">
  <advance width="562"/>
  <outline>
    <contour>
      <point x="414" y="0" type="line"/>
      <point x="498" y="0" type="line"/>
      <point x="498" y="557" type="line"/>
      <point x="414" y="557" type="line"/>
      <point x="414" y="357" type="line"/>
      <point x="148" y="357" type="line"/>
      <point x="148" y="484" type="line"/>
      <point x="347" y="484" type="line"/>
      <point x="347" y="557" type="line"/>
      <point x="64" y="557" type="line"/>
      <point x="64" y="285" type="line"/>
      <point x="414" y="285" type="line"/>
    </contour>
  </outline>
</glyph>
<glyph name="uni118B0.sm" format="2">
  <advance width="577"/>
  <outline>
    <contour>
      <point x="375" y="-8" type="curve" smooth="yes"/>
      <point x="478" y="-8"/>
      <point x="513" y="48"/>
      <point x="513" y="179" type="curve" smooth="yes"/>
      <point x="513" y="557" type="line"/>
      <point x="430" y="557" type="line"/>
      <point x="430" y="181" type="line" smooth="yes"/>
      <point x="430" y="109"/>
      <point x="426" y="64"/>
      <point x="379" y="64" type="curve" smooth="yes"/>
      <point x="334" y="64"/>
      <point x="331" y="104"/>
      <point x="331" y="181" type="curve" smooth="yes"/>
      <point x="331" y="376" type="line" smooth="yes"/>
      <point x="331" y="514"/>
      <point x="302" y="564"/>
      <point x="203" y="564" type="curve" smooth="yes"/>
      <point x="100" y="564"/>
      <point x="64" y="509"/>
      <point x="64" y="378" type="curve" smooth="yes"/>
      <point x="64" y="0" type="line"/>
      <point x="148" y="0" type="line"/>
      <point x="148" y="376" type="line" smooth="yes"/>
      <point x="148" y="448"/>
      <point x="151" y="493"/>
      <point x="199" y="493" type="curve" smooth="yes"/>
      <point x="244" y="493"/>
      <point x="247" y="453"/>
      <point x="247" y="376" type="curve" smooth="yes"/>
      <point x="247" y="181" type="line" smooth="yes"/>
      <point x="247" y="42"/>
      <point x="275" y="-8"/>
    </contour>
  </outline>
</glyph>
<glyph name="uni118B1.sm" format="2">
  <advance width="418"/>
  <outline>
    <contour>
      <point x="64" y="0" type="line"/>
      <point x="148" y="0" type="line"/>
      <point x="148" y="348" type="line"/>
      <point x="173" y="348" type="line" smooth="yes"/>
      <point x="308" y="348"/>
      <point x="396" y="456"/>
      <point x="396" y="557" type="curve"/>
      <point x="313" y="561" type="line"/>
      <point x="311" y="495"/>
      <point x="258" y="421"/>
      <point x="174" y="421" type="curve" smooth="yes"/>
      <point x="91" y="421" type="line"/>
      <point x="64" y="365" type="line"/>
    </contour>
  </outline>
</glyph>
<glyph name="uni118B2.sm" format="2">
  <advance width="556"/>
  <outline>
    <contour>
      <point x="26" y="0" type="line"/>
      <point x="481" y="0" type="line"/>
      <point x="532" y="237" type="line"/>
      <point x="450" y="237" type="line"/>
      <point x="413" y="72" type="line"/>
      <point x="194" y="72" type="line"/>
      <point x="194" y="557" type="line"/>
      <point x="110" y="557" type="line"/>
      <point x="110" y="72" type="line"/>
      <point x="26" y="72" type="line"/>
    </contour>
  </outline>
</glyph>
<glyph name="uni118B3.sm" format="2">
  <advance width="562"/>
  <outline>
    <contour>
      <point x="329" y="-9" type="line"/>
      <point x="532" y="170" type="line"/>
      <point x="480" y="227" type="line"/>
      <point x="309" y="80" type="line"/>
      <point x="328" y="68" type="line"/>
      <point x="331" y="111"/>
      <point x="334" y="154.003"/>
      <point x="334" y="207" type="curve" smooth="yes"/>
      <point x="334" y="543" type="line"/>
      <point x="273" y="564" type="line"/>
      <point x="24" y="446" type="line"/>
      <point x="20" y="418" type="line"/>
      <point x="104" y="278" type="line"/>
      <point x="173" y="319" type="line"/>
      <point x="118" y="408" type="line"/>
      <point x="279" y="486" type="line"/>
      <point x="255" y="505" type="line"/>
      <point x="252" y="472"/>
      <point x="249" y="440"/>
      <point x="249" y="387" type="curve" smooth="yes"/>
      <point x="249" y="18" type="line"/>
    </contour>
  </outline>
</glyph>
<glyph name="uni118B4.sm" format="2">
  <advance width="563"/>
  <outline>
    <contour>
      <point x="279" y="-8" type="curve" smooth="yes"/>
      <point x="429" y="-8"/>
      <point x="499" y="82"/>
      <point x="499" y="199" type="curve" smooth="yes"/>
      <point x="499" y="557" type="line"/>
      <point x="416" y="557" type="line"/>
      <point x="416" y="357" type="line"/>
      <point x="217" y="357" type="line"/>
      <point x="217" y="285" type="line"/>
      <point x="416" y="285" type="line"/>
      <point x="416" y="199" type="line" smooth="yes"/>
      <point x="416" y="119"/>
      <point x="376" y="64"/>
      <point x="283" y="64" type="curve" smooth="yes"/>
      <point x="193" y="64"/>
      <point x="148" y="112"/>
      <point x="148" y="198" type="curve" smooth="yes"/>
      <point x="148" y="557" type="line"/>
      <point x="64" y="557" type="line"/>
      <point x="64" y="200" type="line" smooth="yes"/>
      <point x="64" y="74"/>
      <point x="139" y="-8"/>
    </contour>
  </outline>
</glyph>
<glyph name="uni118B5.sm" format="2">
  <advance width="671"/>
  <outline>
    <contour>
      <point x="334" y="-8" type="curve" smooth="yes"/>
      <point x="502" y="-8"/>
      <point x="623" y="122"/>
      <point x="623" y="280" type="curve" smooth="yes"/>
      <point x="623" y="437"/>
      <point x="502" y="565"/>
      <point x="334" y="565" type="curve" smooth="yes"/>
      <point x="167" y="565"/>
      <point x="48" y="437"/>
      <point x="48" y="280" type="curve" smooth="yes"/>
      <point x="48" y="122"/>
      <point x="167" y="-8"/>
    </contour>
    <contour>
      <point x="334" y="64" type="curve" smooth="yes"/>
      <point x="217" y="64"/>
      <point x="134" y="158"/>
      <point x="134" y="278" type="curve" smooth="yes"/>
      <point x="134" y="398"/>
      <point x="217" y="494"/>
      <point x="334" y="494" type="curve" smooth="yes"/>
      <point x="453" y="494"/>
      <point x="536" y="398"/>
      <point x="536" y="278" type="curve" smooth="yes"/>
      <point x="536" y="158"/>
      <point x="453" y="64"/>
    </contour>
  </outline>
</glyph>
<glyph name="uni118B6.sm" format="2">
  <advance width="563"/>
  <outline>
    <contour>
      <point x="26" y="0" type="line"/>
      <point x="381" y="0" type="line"/>
      <point x="381" y="125" type="line"/>
      <point x="485" y="44" type="line"/>
      <point x="536" y="102" type="line"/>
      <point x="381" y="222" type="line"/>
      <point x="381" y="533" type="line"/>
      <point x="303" y="567" type="line"/>
      <point x="73" y="394" type="line"/>
      <point x="73" y="366" type="line"/>
      <point x="297" y="191" type="line"/>
      <point x="297" y="72" type="line"/>
      <point x="26" y="72" type="line"/>
    </contour>
    <contour>
      <point x="297" y="289" type="line"/>
      <point x="178" y="380" type="line"/>
      <point x="297" y="470" type="line"/>
    </contour>
  </outline>
</glyph>
<glyph name="uni118B7.sm" format="2">
  <advance width="633"/>
  <outline>
    <contour>
      <point x="295" y="-6" type="line"/>
      <point x="339" y="-6" type="line"/>
      <point x="609" y="266" type="line"/>
      <point x="609" y="290" type="line"/>
      <point x="339" y="562" type="line"/>
      <point x="295" y="562" type="line"/>
      <point x="24" y="290" type="line"/>
      <point x="24" y="266" type="line"/>
    </contour>
    <contour>
      <point x="317" y="83" type="line"/>
      <point x="121" y="278" type="line"/>
      <point x="317" y="473" type="line"/>
      <point x="512" y="278" type="line"/>
    </contour>
  </outline>
</glyph>
<glyph name="uni118B8.sm" format="2">
  <advance width="609"/>
  <outline>
    <contour>
      <point x="302" y="-8" type="curve" smooth="yes"/>
      <point x="451" y="-8"/>
      <point x="522" y="82"/>
      <point x="522" y="199" type="curve" smooth="yes"/>
      <point x="522" y="484" type="line"/>
      <point x="583" y="484" type="line"/>
      <point x="583" y="557" type="line"/>
      <point x="368" y="557" type="line"/>
      <point x="368" y="484" type="line"/>
      <point x="438" y="484" type="line"/>
      <point x="438" y="199" type="line" smooth="yes"/>
      <point x="438" y="119"/>
      <point x="398" y="64"/>
      <point x="305" y="64" type="curve" smooth="yes"/>
      <point x="215" y="64"/>
      <point x="170" y="112"/>
      <point x="170" y="198" type="curve" smooth="yes"/>
      <point x="170" y="484" type="line"/>
      <point x="241" y="484" type="line"/>
      <point x="241" y="557" type="line"/>
      <point x="26" y="557" type="line"/>
      <point x="26" y="484" type="line"/>
      <point x="86" y="484" type="line"/>
      <point x="86" y="200" type="line" smooth="yes"/>
      <point x="86" y="74"/>
      <point x="161" y="-8"/>
    </contour>
  </outline>
</glyph>
<glyph name="uni118B9.sm" format="2">
  <advance width="712"/>
  <outline>
    <contour>
      <point x="298" y="-8" type="curve" smooth="yes"/>
      <point x="447" y="-8"/>
      <point x="518" y="82"/>
      <point x="518" y="199" type="curve" smooth="yes"/>
      <point x="518" y="406" type="line" smooth="yes"/>
      <point x="518" y="454"/>
      <point x="522" y="493"/>
      <point x="554" y="493" type="curve" smooth="yes"/>
      <point x="579" y="493"/>
      <point x="595" y="459"/>
      <point x="602" y="384" type="curve"/>
      <point x="686" y="398" type="line"/>
      <point x="674" y="494"/>
      <point x="637" y="564"/>
      <point x="553" y="564" type="curve" smooth="yes"/>
      <point x="470" y="564"/>
      <point x="434" y="517"/>
      <point x="434" y="405" type="curve" smooth="yes"/>
      <point x="434" y="199" type="line" smooth="yes"/>
      <point x="434" y="119"/>
      <point x="395" y="64"/>
      <point x="302" y="64" type="curve" smooth="yes"/>
      <point x="211" y="64"/>
      <point x="145" y="112"/>
      <point x="145" y="230" type="curve" smooth="yes"/>
      <point x="145" y="336"/>
      <point x="194" y="419"/>
      <point x="358" y="484" type="curve"/>
      <point x="358" y="557" type="line"/>
      <point x="26" y="557" type="line"/>
      <point x="26" y="484" type="line"/>
      <point x="234" y="484" type="line"/>
      <point x="233" y="496" type="line"/>
      <point x="112" y="440"/>
      <point x="61" y="334"/>
      <point x="61" y="229" type="curve" smooth="yes"/>
      <point x="61" y="63"/>
      <point x="165" y="-8"/>
    </contour>
  </outline>
</glyph>
<glyph name="uni118BA.sm" format="2">
  <advance width="573"/>
  <outline>
    <contour>
      <point x="299" y="-8" type="curve" smooth="yes"/>
      <point x="462" y="-8"/>
      <point x="525" y="102"/>
      <point x="525" y="219" type="curve" smooth="yes"/>
      <point x="525" y="362"/>
      <point x="384" y="498"/>
      <point x="177" y="579" type="curve"/>
      <point x="144" y="509" type="line"/>
      <point x="304" y="437"/>
      <point x="437" y="340"/>
      <point x="437" y="213" type="curve" smooth="yes"/>
      <point x="437" y="138"/>
      <point x="404" y="64"/>
      <point x="306" y="64" type="curve" smooth="yes"/>
      <point x="230" y="64"/>
      <point x="185" y="108"/>
      <point x="185" y="163" type="curve" smooth="yes"/>
      <point x="185" y="220"/>
      <point x="209" y="266"/>
      <point x="283" y="285" type="curve"/>
      <point x="283" y="357" type="line"/>
      <point x="25" y="357" type="line"/>
      <point x="25" y="285" type="line"/>
      <point x="178" y="285" type="line"/>
      <point x="171" y="299" type="line"/>
      <point x="120" y="268"/>
      <point x="97" y="218"/>
      <point x="97" y="162" type="curve" smooth="yes"/>
      <point x="97" y="69"/>
      <point x="166" y="-8"/>
    </contour>
  </outline>
</glyph>
<glyph name="uni118BB.sm" format="2">
  <advance width="500"/>
  <outline>
    <contour>
      <point x="42" y="-23" type="line"/>
      <point x="233" y="16"/>
      <point x="432" y="110"/>
      <point x="432" y="234" type="curve" smooth="yes"/>
      <point x="432" y="311"/>
      <point x="374" y="346"/>
      <point x="298" y="346" type="curve" smooth="yes"/>
      <point x="257" y="346"/>
      <point x="210" y="331"/>
      <point x="170" y="305" type="curve"/>
      <point x="195" y="294" type="line"/>
      <point x="214" y="425" type="line"/>
      <point x="440" y="497" type="line"/>
      <point x="416" y="568" type="line"/>
      <point x="141" y="483" type="line"/>
      <point x="107" y="269" type="line"/>
      <point x="163" y="218" type="line"/>
      <point x="198" y="249"/>
      <point x="242" y="275"/>
      <point x="290" y="275" type="curve" smooth="yes"/>
      <point x="326" y="275"/>
      <point x="343" y="259"/>
      <point x="343" y="234" type="curve" smooth="yes"/>
      <point x="343" y="150"/>
      <point x="126" y="65"/>
      <point x="24" y="47" type="curve"/>
    </contour>
  </outline>
</glyph>
<glyph name="uni118BC.sm" format="2">
  <advance width="448"/>
  <outline>
    <contour>
      <point x="183" y="0" type="line"/>
      <point x="267" y="0" type="line"/>
      <point x="267" y="484" type="line"/>
      <point x="428" y="484" type="line"/>
      <point x="428" y="557" type="line"/>
      <point x="20" y="557" type="line"/>
      <point x="20" y="484" type="line"/>
      <point x="183" y="484" type="line"/>
    </contour>
  </outline>
</glyph>
<glyph name="uni118BD.sm" format="2">
  <advance width="627"/>
  <outline>
    <contour>
      <point x="343" y="-8" type="curve" smooth="yes"/>
      <point x="493" y="-8"/>
      <point x="563" y="82"/>
      <point x="563" y="199" type="curve" smooth="yes"/>
      <point x="563" y="557" type="line"/>
      <point x="480" y="557" type="line"/>
      <point x="480" y="303" type="line"/>
      <point x="212" y="303" type="line"/>
      <point x="212" y="557" type="line"/>
      <point x="26" y="557" type="line"/>
      <point x="26" y="485" type="line"/>
      <point x="128" y="485" type="line"/>
      <point x="128" y="200" type="line" smooth="yes"/>
      <point x="128" y="74"/>
      <point x="203" y="-8"/>
    </contour>
    <contour>
      <point x="347" y="64" type="curve" smooth="yes"/>
      <point x="257" y="64"/>
      <point x="212" y="112"/>
      <point x="212" y="198" type="curve" smooth="yes"/>
      <point x="212" y="231" type="line"/>
      <point x="480" y="231" type="line"/>
      <point x="480" y="199" type="line" smooth="yes"/>
      <point x="480" y="119"/>
      <point x="440" y="64"/>
    </contour>
  </outline>
</glyph>
<glyph name="uni118BE.sm" format="2">
  <advance width="566"/>
  <outline>
    <contour>
      <point x="370" y="-8" type="line"/>
      <point x="405" y="57" type="line"/>
      <point x="233" y="136" type="line"/>
      <point x="538" y="325" type="line"/>
      <point x="499" y="387" type="line"/>
      <point x="194" y="198" type="line"/>
      <point x="194" y="456" type="line"/>
      <point x="77" y="569" type="line"/>
      <point x="20" y="516" type="line"/>
      <point x="110" y="430" type="line"/>
      <point x="110" y="105" type="line"/>
    </contour>
  </outline>
</glyph>
<glyph name="uni118BF.sm" format="2">
  <advance width="625"/>
  <outline>
    <contour>
      <point x="504" y="-13" type="line"/>
      <point x="558" y="25"/>
      <point x="584" y="88"/>
      <point x="584" y="145" type="curve" smooth="yes"/>
      <point x="584" y="249"/>
      <point x="497" y="357"/>
      <point x="342" y="357" type="curve" smooth="yes"/>
      <point x="293" y="357" type="line"/>
      <point x="293" y="484" type="line"/>
      <point x="497" y="484" type="line"/>
      <point x="497" y="557" type="line"/>
      <point x="209" y="557" type="line"/>
      <point x="209" y="72" type="line"/>
      <point x="26" y="72" type="line"/>
      <point x="26" y="0" type="line"/>
      <point x="293" y="0" type="line"/>
      <point x="293" y="285" type="line"/>
      <point x="335" y="285" type="line" smooth="yes"/>
      <point x="446" y="285"/>
      <point x="500" y="209"/>
      <point x="500" y="142" type="curve" smooth="yes"/>
      <point x="500" y="102"/>
      <point x="487" y="68"/>
      <point x="459" y="48" type="curve"/>
    </contour>
  </outline>
</glyph>
<glyph name="uni118C0.abv" format="2">
  <outline>
    <contour>
      <point x="-22" y="-8" type="curve" smooth="yes"/>
      <point x="55" y="-8"/>
      <point x="78" y="53"/>
      <point x="104" y="127" type="curve" smooth="yes"/>
      <point x="156" y="274" type="line" smooth="yes"/>
      <point x="168" y="307"/>
      <point x="194" y="358"/>
      <point x="214" y="377" type="curve"/>
      <point x="158" y="419" type="line"/>
      <point x="128" y="393"/>
      <point x="107" y="345"/>
      <point x="89" y="294" type="curve" smooth="yes"/>
      <point x="36" y="142" type="line" smooth="yes"/>
      <point x="21" y="99"/>
      <point x="6" y="58"/>
      <point x="-22" y="58" type="curve" smooth="yes"/>
      <point x="-40" y="58"/>
      <point x="-49" y="81"/>
      <point x="-49" y="118" type="curve" smooth="yes"/>
      <point x="-49" y="130"/>
      <point x="-48" y="145"/>
      <point x="-46" y="161" type="curve" smooth="yes"/>
      <point x="-34" y="273" type="line" smooth="yes"/>
      <point x="-32" y="287"/>
      <point x="-31" y="304"/>
      <point x="-31" y="327" type="curve" smooth="yes"/>
      <point x="-31" y="394"/>
      <point x="-66" y="422"/>
      <point x="-114" y="422" type="curve" smooth="yes"/>
      <point x="-156" y="422"/>
      <point x="-192" y="398"/>
      <point x="-213" y="341" type="curve"/>
      <point x="-152" y="311" type="line"/>
      <point x="-141" y="348"/>
      <point x="-129" y="358"/>
      <point x="-120" y="358" type="curve" smooth="yes"/>
      <point x="-111" y="358"/>
      <point x="-103" y="350"/>
      <point x="-103" y="328" type="curve" smooth="yes"/>
      <point x="-103" y="313"/>
      <point x="-105" y="294"/>
      <point x="-108" y="267" type="curve" smooth="yes"/>
      <point x="-120" y="156" type="line" smooth="yes"/>
      <point x="-121" y="144"/>
      <point x="-122" y="129"/>
      <point x="-122" y="111" type="curve" smooth="yes"/>
      <point x="-122" y="40"/>
      <point x="-86" y="-8"/>
    </contour>
  </outline>
</glyph>
<glyph name="uni118C1.sm" format="2">
  <advance width="448"/>
  <outline>
    <contour>
      <point x="104" y="-8" type="curve" smooth="yes"/>
      <point x="173" y="-8"/>
      <point x="204" y="52"/>
      <point x="230" y="127" type="curve" smooth="yes"/>
      <point x="279" y="266" type="line" smooth="yes"/>
      <point x="298" y="321"/>
      <point x="314" y="358"/>
      <point x="332" y="358" type="curve" smooth="yes"/>
      <point x="350" y="358"/>
      <point x="357" y="347"/>
      <point x="368" y="311" type="curve"/>
      <point x="425" y="341" type="line"/>
      <point x="408" y="395"/>
      <point x="380" y="424"/>
      <point x="330" y="424" type="curve" smooth="yes"/>
      <point x="283" y="424"/>
      <point x="246" y="383"/>
      <point x="213" y="289" type="curve" smooth="yes"/>
      <point x="163" y="147" type="line" smooth="yes"/>
      <point x="149" y="106"/>
      <point x="130" y="58"/>
      <point x="103" y="58" type="curve" smooth="yes"/>
      <point x="81" y="58"/>
      <point x="61" y="69"/>
      <point x="35" y="90" type="curve"/>
      <point x="3" y="32" type="line"/>
      <point x="28" y="13"/>
      <point x="62" y="-8"/>
    </contour>
  </outline>
</glyph>
<glyph name="uni118C2.sm" format="2">
  <advance width="376"/>
  <outline>
    <contour>
      <point x="77" y="0" type="line"/>
      <point x="150" y="0" type="line"/>
      <point x="170" y="187" type="line"/>
      <point x="319" y="187" type="line"/>
      <point x="319" y="247" type="line"/>
      <point x="177" y="247" type="line"/>
      <point x="181" y="282" type="line" smooth="yes"/>
      <point x="187" y="334"/>
      <point x="214" y="358"/>
      <point x="267" y="358" type="curve" smooth="yes"/>
      <point x="307" y="358"/>
      <point x="340" y="353"/>
      <point x="352" y="351" type="curve"/>
      <point x="361" y="411" type="line"/>
      <point x="346" y="416"/>
      <point x="308" y="424"/>
      <point x="267" y="424" type="curve" smooth="yes"/>
      <point x="177" y="424"/>
      <point x="119" y="374"/>
      <point x="107" y="281" type="curve" smooth="yes"/>
      <point x="103" y="247" type="line"/>
      <point x="12" y="247" type="line"/>
      <point x="12" y="187" type="line"/>
      <point x="97" y="187" type="line"/>
    </contour>
  </outline>
</glyph>
<glyph name="uni118C3.sm" format="2">
  <advance width="294"/>
  <outline>
    <contour>
      <point x="146" y="-8" type="curve" smooth="yes"/>
      <point x="218" y="-8"/>
      <point x="249" y="42"/>
      <point x="278" y="98" type="curve"/>
      <point x="226" y="135" type="line"/>
      <point x="208" y="101"/>
      <point x="185" y="58"/>
      <point x="150" y="58" type="curve" smooth="yes"/>
      <point x="117" y="58"/>
      <point x="103" y="76"/>
      <point x="103" y="118" type="curve" smooth="yes"/>
      <point x="103" y="130"/>
      <point x="104" y="145"/>
      <point x="107" y="171" type="curve" smooth="yes"/>
      <point x="131" y="418" type="line"/>
      <point x="59" y="418" type="line"/>
      <point x="35" y="183" type="line" smooth="yes"/>
      <point x="33" y="162"/>
      <point x="30" y="130"/>
      <point x="30" y="111" type="curve" smooth="yes"/>
      <point x="30" y="31"/>
      <point x="85" y="-8"/>
    </contour>
  </outline>
</glyph>
<glyph name="uni118C4.sm" format="2">
  <advance width="365"/>
  <outline>
    <contour>
      <point x="142" y="-8" type="curve" smooth="yes"/>
      <point x="238" y="-8"/>
      <point x="328" y="117"/>
      <point x="349" y="404" type="curve"/>
      <point x="282" y="417" type="line"/>
      <point x="275" y="351"/>
      <point x="266" y="288"/>
      <point x="254" y="242" type="curve"/>
      <point x="225" y="234"/>
      <point x="201" y="233"/>
      <point x="183" y="233" type="curve" smooth="yes"/>
      <point x="154" y="233"/>
      <point x="146" y="243"/>
      <point x="146" y="259" type="curve" smooth="yes"/>
      <point x="146" y="273"/>
      <point x="154" y="293"/>
      <point x="163" y="312" type="curve" smooth="yes"/>
      <point x="173" y="333"/>
      <point x="178" y="352"/>
      <point x="178" y="369" type="curve" smooth="yes"/>
      <point x="178" y="404"/>
      <point x="153" y="424"/>
      <point x="100" y="424" type="curve" smooth="yes"/>
      <point x="81" y="424"/>
      <point x="60" y="421"/>
      <point x="44" y="416" type="curve"/>
      <point x="55" y="354" type="line"/>
      <point x="63" y="356"/>
      <point x="81" y="358"/>
      <point x="86" y="358" type="curve" smooth="yes"/>
      <point x="93" y="358"/>
      <point x="105" y="358"/>
      <point x="105" y="347" type="curve" smooth="yes"/>
      <point x="105" y="342"/>
      <point x="102" y="333"/>
      <point x="95" y="320" type="curve" smooth="yes"/>
      <point x="89" y="309"/>
      <point x="74" y="277"/>
      <point x="74" y="249" type="curve" smooth="yes"/>
      <point x="74" y="194"/>
      <point x="112" y="168"/>
      <point x="180" y="168" type="curve" smooth="yes"/>
      <point x="200" y="168"/>
      <point x="226" y="168"/>
      <point x="258" y="180" type="curve"/>
      <point x="246" y="212" type="line"/>
      <point x="215" y="96"/>
      <point x="172" y="58"/>
      <point x="138" y="58" type="curve" smooth="yes"/>
      <point x="108" y="58"/>
      <point x="86" y="91"/>
      <point x="69" y="133" type="curve"/>
      <point x="15" y="96" type="line"/>
      <point x="39" y="40"/>
      <point x="70" y="-8"/>
    </contour>
  </outline>
</glyph>
<glyph name="uni118C5.sm" format="2">
  <advance width="514"/>
  <outline>
    <contour>
      <point x="107" y="-8" type="curve" smooth="yes"/>
      <point x="167" y="-8"/>
      <point x="186" y="37"/>
      <point x="190" y="120" type="curve" smooth="yes"/>
      <point x="191" y="138" type="line"/>
      <point x="313" y="197" type="line"/>
      <point x="311" y="139" type="line" smooth="yes"/>
      <point x="309" y="85"/>
      <point x="305" y="58"/>
      <point x="289" y="58" type="curve" smooth="yes"/>
      <point x="275" y="58"/>
      <point x="261" y="69"/>
      <point x="235" y="90" type="curve"/>
      <point x="203" y="32" type="line"/>
      <point x="230" y="10"/>
      <point x="261" y="-8"/>
      <point x="294" y="-8" type="curve" smooth="yes"/>
      <point x="361" y="-8"/>
      <point x="373" y="37"/>
      <point x="377" y="120" type="curve" smooth="yes"/>
      <point x="384" y="260" type="line" smooth="yes"/>
      <point x="387" y="317"/>
      <point x="396" y="358"/>
      <point x="441" y="358" type="curve" smooth="yes"/>
      <point x="460" y="358"/>
      <point x="474" y="355"/>
      <point x="490" y="350" type="curve"/>
      <point x="502" y="416" type="line"/>
      <point x="491" y="419"/>
      <point x="461" y="424"/>
      <point x="435" y="424" type="curve" smooth="yes"/>
      <point x="363" y="424"/>
      <point x="322" y="372"/>
      <point x="317" y="279" type="curve" smooth="yes"/>
      <point x="316" y="264" type="line"/>
      <point x="194" y="205" type="line"/>
      <point x="197" y="260" type="line" smooth="yes"/>
      <point x="200" y="317"/>
      <point x="209" y="358"/>
      <point x="254" y="358" type="curve" smooth="yes"/>
      <point x="273" y="358"/>
      <point x="287" y="355"/>
      <point x="303" y="350" type="curve"/>
      <point x="315" y="416" type="line"/>
      <point x="300" y="421"/>
      <point x="274" y="424"/>
      <point x="248" y="424" type="curve" smooth="yes"/>
      <point x="176" y="424"/>
      <point x="134" y="372"/>
      <point x="130" y="279" type="curve" smooth="yes"/>
      <point x="124" y="139" type="line" smooth="yes"/>
      <point x="122" y="85"/>
      <point x="118" y="58"/>
      <point x="102" y="58" type="curve" smooth="yes"/>
      <point x="88" y="58"/>
      <point x="74" y="69"/>
      <point x="48" y="90" type="curve"/>
      <point x="16" y="32" type="line"/>
      <point x="43" y="10"/>
      <point x="74" y="-8"/>
    </contour>
  </outline>
</glyph>
<glyph name="uni118C6.sm" format="2">
  <advance width="382"/>
  <outline>
    <contour>
      <point x="134" y="0" type="line"/>
      <point x="205" y="0" type="line"/>
      <point x="247" y="187" type="line"/>
      <point x="363" y="187" type="line"/>
      <point x="363" y="247" type="line"/>
      <point x="262" y="247" type="line"/>
      <point x="269" y="277"/>
      <point x="273" y="305"/>
      <point x="273" y="322" type="curve" smooth="yes"/>
      <point x="273" y="381"/>
      <point x="240" y="424"/>
      <point x="124" y="424" type="curve" smooth="yes"/>
      <point x="81" y="424"/>
      <point x="32" y="418"/>
      <point x="16" y="413" type="curve"/>
      <point x="23" y="350" type="line"/>
      <point x="36" y="353"/>
      <point x="79" y="358"/>
      <point x="114" y="358" type="curve" smooth="yes"/>
      <point x="182" y="358"/>
      <point x="200" y="342"/>
      <point x="200" y="312" type="curve" smooth="yes"/>
      <point x="200" y="295"/>
      <point x="196" y="272"/>
      <point x="189" y="247" type="curve"/>
      <point x="25" y="247" type="line"/>
      <point x="25" y="187" type="line"/>
      <point x="175" y="187" type="line"/>
    </contour>
  </outline>
</glyph>
<glyph name="uni118C7.sm" format="2">
  <advance width="293"/>
  <outline>
    <contour>
      <point x="100" y="0" type="line"/>
      <point x="173" y="0" type="line"/>
      <point x="233" y="161" type="line" smooth="yes"/>
      <point x="246" y="195"/>
      <point x="262" y="238"/>
      <point x="262" y="285" type="curve" smooth="yes"/>
      <point x="262" y="369"/>
      <point x="198" y="424"/>
      <point x="68" y="424" type="curve" smooth="yes"/>
      <point x="52" y="424"/>
      <point x="35" y="424"/>
      <point x="17" y="422" type="curve"/>
      <point x="21" y="357" type="line"/>
      <point x="33" y="358"/>
      <point x="48" y="358"/>
      <point x="60" y="358" type="curve" smooth="yes"/>
      <point x="164" y="358"/>
      <point x="189" y="333"/>
      <point x="189" y="273" type="curve" smooth="yes"/>
      <point x="189" y="253"/>
      <point x="178" y="219"/>
      <point x="161" y="171" type="curve" smooth="yes"/>
    </contour>
  </outline>
</glyph>
<glyph name="uni118C8.sm" format="2">
  <advance width="361"/>
  <outline>
    <contour>
      <point x="189" y="-8" type="curve" smooth="yes"/>
      <point x="268" y="-8"/>
      <point x="325" y="77"/>
      <point x="325" y="295" type="curve" smooth="yes"/>
      <point x="325" y="372" type="line"/>
      <point x="302" y="418" type="line"/>
      <point x="30" y="418" type="line"/>
      <point x="30" y="371" type="line" smooth="yes"/>
      <point x="30" y="162"/>
      <point x="64" y="-8"/>
    </contour>
    <contour>
      <point x="189" y="58" type="curve" smooth="yes"/>
      <point x="134" y="58"/>
      <point x="103" y="164"/>
      <point x="102" y="355" type="curve"/>
      <point x="253" y="355" type="line"/>
      <point x="253" y="282" type="line" smooth="yes"/>
      <point x="253" y="207"/>
      <point x="244" y="58"/>
    </contour>
  </outline>
</glyph>
<glyph name="uni118C9.sm" format="2">
  <advance width="364"/>
  <outline>
    <contour>
      <point x="167" y="-8" type="curve" smooth="yes"/>
      <point x="227" y="-8"/>
      <point x="287" y="14"/>
      <point x="336" y="44" type="curve"/>
      <point x="307" y="102" type="line"/>
      <point x="269" y="79"/>
      <point x="211" y="58"/>
      <point x="167" y="58" type="curve" smooth="yes"/>
      <point x="124" y="58"/>
      <point x="101" y="71"/>
      <point x="101" y="114" type="curve" smooth="yes"/>
      <point x="101" y="147"/>
      <point x="135" y="175"/>
      <point x="191" y="201" type="curve" smooth="yes"/>
      <point x="254" y="230"/>
      <point x="307" y="257"/>
      <point x="307" y="322" type="curve" smooth="yes"/>
      <point x="307" y="377"/>
      <point x="263" y="424"/>
      <point x="159" y="424" type="curve" smooth="yes"/>
      <point x="118" y="424"/>
      <point x="73" y="417"/>
      <point x="33" y="400" type="curve"/>
      <point x="48" y="338" type="line"/>
      <point x="83" y="351"/>
      <point x="115" y="358"/>
      <point x="155" y="358" type="curve" smooth="yes"/>
      <point x="196" y="358"/>
      <point x="235" y="346"/>
      <point x="235" y="319" type="curve" smooth="yes"/>
      <point x="235" y="291"/>
      <point x="197" y="273"/>
      <point x="157" y="255" type="curve" smooth="yes"/>
      <point x="62" y="212"/>
      <point x="28" y="167"/>
      <point x="28" y="110" type="curve" smooth="yes"/>
      <point x="28" y="38"/>
      <point x="79" y="-8"/>
    </contour>
  </outline>
</glyph>
<glyph name="uni118CA.sm" format="2">
  <advance width="360"/>
  <outline>
    <contour>
      <point x="138" y="-8" type="curve" smooth="yes"/>
      <point x="271" y="-8"/>
      <point x="324" y="81"/>
      <point x="324" y="154" type="curve" smooth="yes"/>
      <point x="324" y="210"/>
      <point x="300" y="252"/>
      <point x="248" y="278" type="curve"/>
      <point x="200" y="232" type="line"/>
      <point x="233" y="220"/>
      <point x="249" y="196"/>
      <point x="251" y="168" type="curve"/>
      <point x="286" y="190" type="line"/>
      <point x="111" y="185"/>
      <point x="40" y="135"/>
      <point x="40" y="71" type="curve" smooth="yes"/>
      <point x="40" y="15"/>
      <point x="92" y="-8"/>
    </contour>
    <contour>
      <point x="147" y="58" type="curve" smooth="yes"/>
      <point x="128" y="58"/>
      <point x="116" y="67"/>
      <point x="116" y="80" type="curve" smooth="yes"/>
      <point x="116" y="105"/>
      <point x="169" y="132"/>
      <point x="295" y="132" type="curve"/>
      <point x="251" y="147" type="line"/>
      <point x="245" y="102"/>
      <point x="212" y="58"/>
    </contour>
    <contour>
      <point x="108" y="187" type="line"/>
      <point x="141" y="191"/>
      <point x="274" y="220"/>
      <point x="274" y="333" type="curve" smooth="yes"/>
      <point x="274" y="383"/>
      <point x="234" y="422"/>
      <point x="168" y="422" type="curve" smooth="yes"/>
      <point x="111" y="422"/>
      <point x="57" y="382"/>
      <point x="24" y="307" type="curve"/>
      <point x="79" y="274" type="line"/>
      <point x="103" y="328"/>
      <point x="132" y="358"/>
      <point x="162" y="358" type="curve" smooth="yes"/>
      <point x="187" y="358"/>
      <point x="201" y="347"/>
      <point x="201" y="325" type="curve" smooth="yes"/>
      <point x="201" y="283"/>
      <point x="147" y="250"/>
      <point x="98" y="238" type="curve"/>
    </contour>
  </outline>
</glyph>
<glyph name="uni118CB.sm" format="2">
  <advance width="494"/>
  <outline>
    <contour>
      <point x="111" y="-8" type="curve" smooth="yes"/>
      <point x="172" y="-8"/>
      <point x="199" y="37"/>
      <point x="199" y="120" type="curve" smooth="yes"/>
      <point x="199" y="195" type="line" smooth="yes"/>
      <point x="199" y="254"/>
      <point x="219" y="279"/>
      <point x="255" y="279" type="curve" smooth="yes"/>
      <point x="293" y="279"/>
      <point x="318" y="250"/>
      <point x="334" y="225" type="curve"/>
      <point x="312" y="0" type="line"/>
      <point x="386" y="0" type="line"/>
      <point x="411" y="260" type="line" smooth="yes"/>
      <point x="416" y="313"/>
      <point x="421" y="363"/>
      <point x="480" y="378" type="curve"/>
      <point x="457" y="433" type="line"/>
      <point x="387" y="431"/>
      <point x="349" y="367"/>
      <point x="343" y="278" type="curve"/>
      <point x="356" y="292" type="line"/>
      <point x="336" y="323"/>
      <point x="303" y="345"/>
      <point x="251" y="345" type="curve" smooth="yes"/>
      <point x="190" y="345"/>
      <point x="134" y="305"/>
      <point x="134" y="208" type="curve" smooth="yes"/>
      <point x="134" y="128" type="line" smooth="yes"/>
      <point x="134" y="72"/>
      <point x="123" y="58"/>
      <point x="107" y="58" type="curve" smooth="yes"/>
      <point x="93" y="58"/>
      <point x="79" y="69"/>
      <point x="53" y="90" type="curve"/>
      <point x="21" y="32" type="line"/>
      <point x="49" y="11"/>
      <point x="78" y="-8"/>
    </contour>
  </outline>
</glyph>
<glyph name="uni118CC.sm" format="2">
  <advance width="419"/>
  <outline>
    <contour>
      <point x="151" y="-8" type="curve" smooth="yes"/>
      <point x="252" y="-8"/>
      <point x="332" y="73"/>
      <point x="332" y="207" type="curve"/>
      <point x="332" y="221" type="line"/>
      <point x="357" y="233"/>
      <point x="380" y="245"/>
      <point x="399" y="257" type="curve"/>
      <point x="369" y="315" type="line"/>
      <point x="356" y="307"/>
      <point x="338" y="297"/>
      <point x="319" y="287" type="curve"/>
      <point x="291" y="374"/>
      <point x="216" y="422"/>
      <point x="147" y="422" type="curve" smooth="yes"/>
      <point x="74" y="422"/>
      <point x="26" y="369"/>
      <point x="26" y="293" type="curve" smooth="yes"/>
      <point x="26" y="206"/>
      <point x="79" y="169"/>
      <point x="143" y="169" type="curve" smooth="yes"/>
      <point x="178" y="169"/>
      <point x="219" y="177"/>
      <point x="258" y="191" type="curve"/>
      <point x="251" y="112"/>
      <point x="201" y="58"/>
      <point x="153" y="58" type="curve" smooth="yes"/>
      <point x="122" y="58"/>
      <point x="100" y="77"/>
      <point x="82" y="107" type="curve"/>
      <point x="32" y="67" type="line"/>
      <point x="57" y="21"/>
      <point x="98" y="-8"/>
    </contour>
    <contour>
      <point x="153" y="232" type="curve" smooth="yes"/>
      <point x="120" y="232"/>
      <point x="99" y="249"/>
      <point x="99" y="296" type="curve" smooth="yes"/>
      <point x="99" y="335"/>
      <point x="115" y="357"/>
      <point x="149" y="357" type="curve" smooth="yes"/>
      <point x="195" y="357"/>
      <point x="238" y="319"/>
      <point x="253" y="256" type="curve"/>
      <point x="217" y="242"/>
      <point x="181" y="232"/>
    </contour>
  </outline>
</glyph>
<glyph name="uni118CD.sm" format="2">
  <advance width="507"/>
  <outline>
    <contour>
      <point x="143" y="-8" type="curve" smooth="yes"/>
      <point x="184" y="-8"/>
      <point x="216" y="8"/>
      <point x="242" y="34" type="curve"/>
      <point x="256" y="7"/>
      <point x="284" y="-8"/>
      <point x="326" y="-8" type="curve" smooth="yes"/>
      <point x="404" y="-8"/>
      <point x="479" y="61"/>
      <point x="479" y="140" type="curve" smooth="yes"/>
      <point x="479" y="210"/>
      <point x="420" y="243"/>
      <point x="365" y="243" type="curve" smooth="yes"/>
      <point x="361" y="243"/>
      <point x="357" y="243"/>
      <point x="353" y="242" type="curve"/>
      <point x="422" y="403" type="line"/>
      <point x="357" y="426" type="line"/>
      <point x="266" y="213" type="line"/>
      <point x="241" y="231"/>
      <point x="205" y="248"/>
      <point x="155" y="248" type="curve" smooth="yes"/>
      <point x="68" y="248"/>
      <point x="26" y="183"/>
      <point x="26" y="117" type="curve" smooth="yes"/>
      <point x="26" y="46"/>
      <point x="67" y="-8"/>
    </contour>
    <contour>
      <point x="148" y="58" type="curve" smooth="yes"/>
      <point x="119" y="58"/>
      <point x="99" y="76"/>
      <point x="99" y="119" type="curve" smooth="yes"/>
      <point x="99" y="157"/>
      <point x="120" y="183"/>
      <point x="158" y="183" type="curve" smooth="yes"/>
      <point x="182" y="183"/>
      <point x="213" y="174"/>
      <point x="237" y="148" type="curve"/>
      <point x="210" y="89"/>
      <point x="183" y="58"/>
    </contour>
    <contour>
      <point x="332" y="58" type="curve" smooth="yes"/>
      <point x="306" y="58"/>
      <point x="293" y="70"/>
      <point x="293" y="91" type="curve" smooth="yes"/>
      <point x="293" y="98"/>
      <point x="295" y="109"/>
      <point x="300" y="119" type="curve" smooth="yes"/>
      <point x="319" y="162" type="line" smooth="yes"/>
      <point x="323" y="170"/>
      <point x="338" y="178"/>
      <point x="356" y="178" type="curve" smooth="yes"/>
      <point x="376" y="178"/>
      <point x="406" y="174"/>
      <point x="406" y="136" type="curve" smooth="yes"/>
      <point x="406" y="88"/>
      <point x="360" y="58"/>
    </contour>
  </outline>
</glyph>
<glyph name="uni118CE.sm" format="2">
  <advance width="377"/>
  <outline>
    <contour>
      <point x="178" y="-8" type="curve" smooth="yes"/>
      <point x="276" y="-8"/>
      <point x="312" y="47"/>
      <point x="349" y="133" type="curve"/>
      <point x="283" y="152" type="line"/>
      <point x="255" y="88"/>
      <point x="226" y="58"/>
      <point x="182" y="58" type="curve" smooth="yes"/>
      <point x="154" y="58"/>
      <point x="123" y="75"/>
      <point x="123" y="119" type="curve" smooth="yes"/>
      <point x="123" y="168"/>
      <point x="165" y="177"/>
      <point x="177" y="179" type="curve"/>
      <point x="173" y="240" type="line"/>
      <point x="165" y="238"/>
      <point x="154" y="236"/>
      <point x="141" y="236" type="curve" smooth="yes"/>
      <point x="118" y="236"/>
      <point x="99" y="256"/>
      <point x="99" y="294" type="curve" smooth="yes"/>
      <point x="99" y="335"/>
      <point x="121" y="357"/>
      <point x="174" y="357" type="curve" smooth="yes"/>
      <point x="242" y="357"/>
      <point x="287" y="306"/>
      <point x="298" y="234" type="curve"/>
      <point x="365" y="255" type="line"/>
      <point x="344" y="357"/>
      <point x="271" y="422"/>
      <point x="178" y="422" type="curve" smooth="yes"/>
      <point x="89" y="422"/>
      <point x="26" y="376"/>
      <point x="26" y="295" type="curve" smooth="yes"/>
      <point x="26" y="237"/>
      <point x="54" y="203"/>
      <point x="110" y="187" type="curve"/>
      <point x="105" y="211" type="line"/>
      <point x="68" y="190"/>
      <point x="50" y="153"/>
      <point x="50" y="116" type="curve" smooth="yes"/>
      <point x="50" y="45"/>
      <point x="103" y="-8"/>
    </contour>
  </outline>
</glyph>
<glyph name="uni118CF.sm" format="2">
  <advance width="404"/>
  <outline>
    <contour>
      <point x="123" y="-8" type="curve" smooth="yes"/>
      <point x="195" y="-8"/>
      <point x="248" y="40"/>
      <point x="252" y="124" type="curve" smooth="yes"/>
      <point x="254" y="173" type="line"/>
      <point x="324" y="193"/>
      <point x="386" y="241"/>
      <point x="386" y="308" type="curve" smooth="yes"/>
      <point x="386" y="355"/>
      <point x="355" y="381"/>
      <point x="310" y="381" type="curve" smooth="yes"/>
      <point x="247" y="381"/>
      <point x="195" y="320"/>
      <point x="187" y="225" type="curve"/>
      <point x="179" y="225" type="line" smooth="yes"/>
      <point x="132" y="225"/>
      <point x="99" y="252"/>
      <point x="99" y="296" type="curve" smooth="yes"/>
      <point x="99" y="333"/>
      <point x="121" y="358"/>
      <point x="159" y="358" type="curve" smooth="yes"/>
      <point x="172" y="358"/>
      <point x="185" y="356"/>
      <point x="201" y="349" type="curve"/>
      <point x="223" y="413" type="line"/>
      <point x="205" y="419"/>
      <point x="182" y="422"/>
      <point x="156" y="422" type="curve" smooth="yes"/>
      <point x="69" y="422"/>
      <point x="26" y="359"/>
      <point x="26" y="293" type="curve" smooth="yes"/>
      <point x="26" y="221"/>
      <point x="84" y="162"/>
      <point x="178" y="162" type="curve" smooth="yes"/>
      <point x="184" y="162" type="line"/>
      <point x="184" y="155"/>
      <point x="184" y="149"/>
      <point x="183" y="142" type="curve" smooth="yes"/>
      <point x="177" y="99"/>
      <point x="164" y="58"/>
      <point x="117" y="58" type="curve" smooth="yes"/>
      <point x="102" y="58"/>
      <point x="75" y="62"/>
      <point x="52" y="72" type="curve"/>
      <point x="35" y="8" type="line"/>
      <point x="63" y="-2"/>
      <point x="95" y="-8"/>
    </contour>
    <contour>
      <point x="261" y="244" type="curve"/>
      <point x="267" y="281"/>
      <point x="279" y="319"/>
      <point x="307" y="319" type="curve" smooth="yes"/>
      <point x="313" y="319"/>
      <point x="317" y="314"/>
      <point x="317" y="308" type="curve" smooth="yes"/>
      <point x="317" y="283"/>
      <point x="295" y="260"/>
    </contour>
  </outline>
</glyph>
<glyph name="uni118D0.sm" format="2">
  <advance width="671"/>
  <outline>
    <contour>
      <point x="105" y="-8" type="curve" smooth="yes"/>
      <point x="174" y="-8"/>
      <point x="199" y="37"/>
      <point x="204" y="120" type="curve" smooth="yes"/>
      <point x="212" y="260" type="line" smooth="yes"/>
      <point x="216" y="327"/>
      <point x="233" y="358"/>
      <point x="262" y="358" type="curve" smooth="yes"/>
      <point x="294" y="358"/>
      <point x="306" y="330"/>
      <point x="321" y="248" type="curve" smooth="yes"/>
      <point x="344" y="124" type="line" smooth="yes"/>
      <point x="365" y="8"/>
      <point x="397" y="-8"/>
      <point x="443" y="-8" type="curve" smooth="yes"/>
      <point x="500" y="-8"/>
      <point x="523" y="37"/>
      <point x="527" y="120" type="curve" smooth="yes"/>
      <point x="535" y="277" type="line" smooth="yes"/>
      <point x="538" y="334"/>
      <point x="549" y="358"/>
      <point x="566" y="358" type="curve" smooth="yes"/>
      <point x="589" y="358"/>
      <point x="606" y="333"/>
      <point x="621" y="309" type="curve"/>
      <point x="672" y="349" type="line"/>
      <point x="642" y="399"/>
      <point x="606" y="422"/>
      <point x="568" y="422" type="curve" smooth="yes"/>
      <point x="505" y="422"/>
      <point x="472" y="379"/>
      <point x="468" y="296" type="curve" smooth="yes"/>
      <point x="460" y="139" type="line" smooth="yes"/>
      <point x="457" y="75"/>
      <point x="452" y="58"/>
      <point x="443" y="58" type="curve" smooth="yes"/>
      <point x="431" y="58"/>
      <point x="420" y="86"/>
      <point x="410" y="142" type="curve" smooth="yes"/>
      <point x="388" y="260" type="line" smooth="yes"/>
      <point x="373" y="338"/>
      <point x="353" y="422"/>
      <point x="262" y="422" type="curve" smooth="yes"/>
      <point x="190" y="422"/>
      <point x="149" y="372"/>
      <point x="144" y="279" type="curve" smooth="yes"/>
      <point x="137" y="139" type="line" smooth="yes"/>
      <point x="135" y="95"/>
      <point x="132" y="58"/>
      <point x="109" y="58" type="curve" smooth="yes"/>
      <point x="88" y="58"/>
      <point x="72" y="78"/>
      <point x="52" y="107" type="curve"/>
      <point x="-1" y="67" type="line"/>
      <point x="30" y="17"/>
      <point x="67" y="-8"/>
    </contour>
  </outline>
</glyph>
<glyph name="uni118D1.sm" format="2">
  <advance width="327"/>
  <outline>
    <contour>
      <point x="34" y="0" type="line"/>
      <point x="107" y="0" type="line"/>
      <point x="136" y="211" type="line"/>
      <point x="266" y="218"/>
      <point x="297" y="294"/>
      <point x="307" y="415" type="curve"/>
      <point x="240" y="422" type="line"/>
      <point x="232" y="335"/>
      <point x="223" y="277"/>
      <point x="115" y="277" type="curve" smooth="yes"/>
      <point x="84" y="277"/>
      <point x="72" y="263"/>
      <point x="66" y="221" type="curve" smooth="yes"/>
    </contour>
  </outline>
</glyph>
<glyph name="uni118D2.abv.flip" format="2">
  <outline>
    <contour>
      <point x="-17" y="-8" type="line"/>
      <point x="12" y="14"/>
      <point x="26" y="30"/>
      <point x="30" y="85" type="curve" smooth="yes"/>
      <point x="34" y="140" type="line" smooth="yes"/>
      <point x="35" y="151"/>
      <point x="41" y="159"/>
      <point x="60" y="170" type="curve" smooth="yes"/>
      <point x="114" y="201"/>
      <point x="146" y="248"/>
      <point x="146" y="303" type="curve" smooth="yes"/>
      <point x="146" y="375"/>
      <point x="98" y="429"/>
      <point x="23" y="429" type="curve" smooth="yes"/>
      <point x="-76" y="429"/>
      <point x="-118" y="356"/>
      <point x="-146" y="292" type="curve"/>
      <point x="-82" y="269" type="line"/>
      <point x="-54" y="333"/>
      <point x="-25" y="363"/>
      <point x="18" y="363" type="curve" smooth="yes"/>
      <point x="52" y="363"/>
      <point x="72" y="338"/>
      <point x="72" y="301" type="curve" smooth="yes"/>
      <point x="72" y="265"/>
      <point x="53" y="242"/>
      <point x="11" y="215" type="curve" smooth="yes"/>
      <point x="-15" y="198"/>
      <point x="-31" y="185"/>
      <point x="-33" y="155" type="curve" smooth="yes"/>
      <point x="-37" y="103" type="line" smooth="yes"/>
      <point x="-40" y="69"/>
      <point x="-49" y="55"/>
      <point x="-69" y="36" type="curve"/>
    </contour>
  </outline>
</glyph>
<glyph name="uni118D2.sm" format="2">
  <advance width="327"/>
  <outline>
    <contour>
      <point x="148" y="-8" type="curve" smooth="yes"/>
      <point x="247" y="-8"/>
      <point x="289" y="65"/>
      <point x="317" y="129" type="curve"/>
      <point x="253" y="152" type="line"/>
      <point x="225" y="88"/>
      <point x="196" y="58"/>
      <point x="153" y="58" type="curve" smooth="yes"/>
      <point x="119" y="58"/>
      <point x="99" y="83"/>
      <point x="99" y="120" type="curve" smooth="yes"/>
      <point x="99" y="156"/>
      <point x="118" y="179"/>
      <point x="160" y="206" type="curve" smooth="yes"/>
      <point x="186" y="223"/>
      <point x="202" y="236"/>
      <point x="204" y="266" type="curve" smooth="yes"/>
      <point x="208" y="318" type="line" smooth="yes"/>
      <point x="211" y="352"/>
      <point x="220" y="366"/>
      <point x="240" y="385" type="curve"/>
      <point x="188" y="429" type="line"/>
      <point x="159" y="407"/>
      <point x="145" y="391"/>
      <point x="141" y="336" type="curve" smooth="yes"/>
      <point x="137" y="281" type="line" smooth="yes"/>
      <point x="136" y="270"/>
      <point x="130" y="262"/>
      <point x="111" y="251" type="curve" smooth="yes"/>
      <point x="57" y="220"/>
      <point x="25" y="173"/>
      <point x="25" y="118" type="curve" smooth="yes"/>
      <point x="25" y="46"/>
      <point x="73" y="-8"/>
    </contour>
  </outline>
</glyph>
<glyph name="uni118D3.sm" format="2">
  <advance width="505"/>
  <outline>
    <contour>
      <point x="377" y="-8" type="curve" smooth="yes"/>
      <point x="437" y="-8"/>
      <point x="487" y="35"/>
      <point x="511" y="98" type="curve"/>
      <point x="461" y="130" type="line"/>
      <point x="436" y="88"/>
      <point x="416" y="58"/>
      <point x="377" y="58" type="curve" smooth="yes"/>
      <point x="305" y="58"/>
      <point x="275" y="211"/>
      <point x="272" y="403" type="curve"/>
      <point x="205" y="424" type="line"/>
      <point x="159" y="369" type="line" smooth="yes"/>
      <point x="135" y="340"/>
      <point x="117" y="321"/>
      <point x="98" y="321" type="curve" smooth="yes"/>
      <point x="84" y="321"/>
      <point x="71" y="340"/>
      <point x="59" y="371" type="curve"/>
      <point x="3" y="339" type="line"/>
      <point x="21" y="297"/>
      <point x="49" y="248"/>
      <point x="98" y="248" type="curve" smooth="yes"/>
      <point x="149" y="248"/>
      <point x="195" y="307"/>
      <point x="223" y="344" type="curve"/>
      <point x="203" y="349" type="line"/>
      <point x="211" y="181"/>
      <point x="240" y="-8"/>
    </contour>
  </outline>
</glyph>
<glyph name="uni118D4.sm" format="2">
  <advance width="719"/>
  <outline>
    <contour>
      <point x="381" y="-8" type="curve" smooth="yes"/>
      <point x="466" y="-8"/>
      <point x="495" y="50"/>
      <point x="527" y="135" type="curve" smooth="yes"/>
      <point x="548" y="190" type="line"/>
      <point x="636" y="190"/>
      <point x="698" y="226"/>
      <point x="698" y="309" type="curve" smooth="yes"/>
      <point x="698" y="356"/>
      <point x="666" y="392"/>
      <point x="613" y="392" type="curve" smooth="yes"/>
      <point x="556" y="392"/>
      <point x="524" y="357"/>
      <point x="499" y="272" type="curve"/>
      <point x="481" y="286"/>
      <point x="467" y="308"/>
      <point x="454" y="329" type="curve" smooth="yes"/>
      <point x="426" y="375"/>
      <point x="393" y="422"/>
      <point x="300" y="422" type="curve" smooth="yes"/>
      <point x="287" y="422"/>
      <point x="273" y="422"/>
      <point x="259" y="421" type="curve"/>
      <point x="259" y="355" type="line"/>
      <point x="269" y="356"/>
      <point x="280" y="356"/>
      <point x="290" y="356" type="curve" smooth="yes"/>
      <point x="348" y="356"/>
      <point x="383" y="316"/>
      <point x="407" y="279" type="curve" smooth="yes"/>
      <point x="425" y="251"/>
      <point x="444" y="222"/>
      <point x="478" y="205" type="curve"/>
      <point x="460" y="155" type="line" smooth="yes"/>
      <point x="445" y="114"/>
      <point x="422" y="58"/>
      <point x="386" y="58" type="curve" smooth="yes"/>
      <point x="352" y="58"/>
      <point x="330" y="91"/>
      <point x="309" y="129" type="curve" smooth="yes"/>
      <point x="231" y="270" type="line" smooth="yes"/>
      <point x="193" y="339"/>
      <point x="162" y="382"/>
      <point x="95" y="382" type="curve" smooth="yes"/>
      <point x="57" y="382"/>
      <point x="20" y="356"/>
      <point x="-11" y="308" type="curve"/>
      <point x="42" y="266" type="line"/>
      <point x="60" y="295"/>
      <point x="79" y="316"/>
      <point x="97" y="316" type="curve" smooth="yes"/>
      <point x="119" y="316"/>
      <point x="137" y="290"/>
      <point x="163" y="244" type="curve" smooth="yes"/>
      <point x="241" y="103" type="line" smooth="yes"/>
      <point x="274" y="43"/>
      <point x="312" y="-8"/>
    </contour>
    <contour>
      <point x="556" y="207" type="line"/>
      <point x="562" y="236"/>
      <point x="567" y="257"/>
      <point x="569" y="265" type="curve" smooth="yes"/>
      <point x="583" y="315"/>
      <point x="598" y="330"/>
      <point x="613" y="330" type="curve" smooth="yes"/>
      <point x="624" y="330"/>
      <point x="630" y="322"/>
      <point x="630" y="308" type="curve" smooth="yes"/>
      <point x="630" y="275"/>
      <point x="610" y="252"/>
      <point x="563" y="252" type="curve"/>
    </contour>
  </outline>
</glyph>
<glyph name="uni118D5.sm" format="2">
  <advance width="467"/>
  <outline>
    <contour>
      <point x="228" y="-8" type="curve" smooth="yes"/>
      <point x="327" y="-8"/>
      <point x="398" y="54"/>
      <point x="398" y="151" type="curve" smooth="yes"/>
      <point x="398" y="247"/>
      <point x="337" y="288"/>
      <point x="261" y="288" type="curve" smooth="yes"/>
      <point x="230" y="288"/>
      <point x="198" y="280"/>
      <point x="168" y="261" type="curve"/>
      <point x="193" y="203" type="line"/>
      <point x="212" y="214"/>
      <point x="239" y="222"/>
      <point x="264" y="222" type="curve" smooth="yes"/>
      <point x="304" y="222"/>
      <point x="325" y="197"/>
      <point x="325" y="151" type="curve" smooth="yes"/>
      <point x="325" y="79"/>
      <point x="272" y="58"/>
      <point x="232" y="58" type="curve" smooth="yes"/>
      <point x="156" y="58"/>
      <point x="107" y="116"/>
      <point x="107" y="207" type="curve" smooth="yes"/>
      <point x="107" y="300"/>
      <point x="170" y="357"/>
      <point x="248" y="357" type="curve" smooth="yes"/>
      <point x="323" y="357"/>
      <point x="370" y="333"/>
      <point x="411" y="307" type="curve"/>
      <point x="446" y="363" type="line"/>
      <point x="397" y="395"/>
      <point x="342" y="424"/>
      <point x="251" y="424" type="curve" smooth="yes"/>
      <point x="131" y="424"/>
      <point x="35" y="334"/>
      <point x="35" y="207" type="curve" smooth="yes"/>
      <point x="35" y="71"/>
      <point x="126" y="-8"/>
    </contour>
  </outline>
</glyph>
<glyph name="uni118D6.sm" format="2">
  <advance width="355"/>
  <outline>
    <contour>
      <point x="122" y="-8" type="curve" smooth="yes"/>
      <point x="215" y="-8"/>
      <point x="274" y="77"/>
      <point x="286" y="175" type="curve"/>
      <point x="263" y="146" type="line"/>
      <point x="289" y="148"/>
      <point x="307" y="151"/>
      <point x="328" y="158" type="curve"/>
      <point x="323" y="220" type="line"/>
      <point x="307" y="217"/>
      <point x="293" y="215"/>
      <point x="277" y="214" type="curve"/>
      <point x="287" y="183" type="line"/>
      <point x="295" y="323" type="line" smooth="yes"/>
      <point x="296" y="341"/>
      <point x="296" y="352"/>
      <point x="296" y="374" type="curve" smooth="yes"/>
      <point x="296" y="397"/>
      <point x="290" y="424"/>
      <point x="239" y="424" type="curve" smooth="yes"/>
      <point x="153" y="424"/>
      <point x="94" y="362"/>
      <point x="94" y="279" type="curve" smooth="yes"/>
      <point x="94" y="206"/>
      <point x="145" y="152"/>
      <point x="209" y="150" type="curve"/>
      <point x="194" y="91"/>
      <point x="168" y="58"/>
      <point x="124" y="58" type="curve" smooth="yes"/>
      <point x="80" y="58"/>
      <point x="47" y="93"/>
      <point x="28" y="119" type="curve"/>
      <point x="-23" y="77" type="line"/>
      <point x="-1" y="40"/>
      <point x="51" y="-8"/>
    </contour>
    <contour>
      <point x="218" y="214" type="line"/>
      <point x="180" y="216"/>
      <point x="167" y="239"/>
      <point x="167" y="282" type="curve" smooth="yes"/>
      <point x="167" y="326"/>
      <point x="196" y="355"/>
      <point x="226" y="357" type="curve"/>
    </contour>
  </outline>
</glyph>
<glyph name="uni118D7.sm" format="2">
  <advance width="536"/>
  <outline>
    <contour>
      <point x="267" y="25" type="curve" smooth="yes"/>
      <point x="375" y="25"/>
      <point x="508" y="135"/>
      <point x="508" y="202" type="curve" smooth="yes"/>
      <point x="508" y="275"/>
      <point x="378" y="385"/>
      <point x="267" y="385" type="curve" smooth="yes"/>
      <point x="157" y="385"/>
      <point x="26" y="275"/>
      <point x="26" y="204" type="curve" smooth="yes"/>
      <point x="26" y="134"/>
      <point x="163" y="25"/>
    </contour>
    <contour>
      <point x="268" y="90" type="curve" smooth="yes"/>
      <point x="182" y="90"/>
      <point x="103" y="176"/>
      <point x="99" y="204" type="curve"/>
      <point x="103" y="233"/>
      <point x="182" y="320"/>
      <point x="268" y="320" type="curve" smooth="yes"/>
      <point x="350" y="320"/>
      <point x="428" y="235"/>
      <point x="436" y="204" type="curve"/>
      <point x="428" y="173"/>
      <point x="350" y="90"/>
    </contour>
  </outline>
</glyph>
<glyph name="uni118D8.abv.flip" format="2">
  <outline>
    <contour>
      <point x="-216" y="-8" type="curve" smooth="yes"/>
      <point x="-147" y="-8"/>
      <point x="-121" y="44"/>
      <point x="-108" y="118" type="curve" smooth="yes"/>
      <point x="-81" y="275" type="line" smooth="yes"/>
      <point x="-71" y="335"/>
      <point x="-30" y="356"/>
      <point x="1" y="356" type="curve" smooth="yes"/>
      <point x="63" y="356"/>
      <point x="73" y="294"/>
      <point x="82" y="235" type="curve" smooth="yes"/>
      <point x="97" y="136" type="line" smooth="yes"/>
      <point x="110" y="53"/>
      <point x="145" y="16"/>
      <point x="205" y="16" type="curve" smooth="yes"/>
      <point x="252" y="16"/>
      <point x="288" y="41"/>
      <point x="319" y="90" type="curve"/>
      <point x="267" y="131" type="line"/>
      <point x="246" y="101"/>
      <point x="229" y="81"/>
      <point x="213" y="81" type="curve" smooth="yes"/>
      <point x="189" y="81"/>
      <point x="172" y="91"/>
      <point x="164" y="142" type="curve" smooth="yes"/>
      <point x="146" y="261" type="line" smooth="yes"/>
      <point x="135" y="337"/>
      <point x="107" y="422"/>
      <point x="4" y="422" type="curve" smooth="yes"/>
      <point x="-71" y="422"/>
      <point x="-136" y="369"/>
      <point x="-149" y="295" type="curve" smooth="yes"/>
      <point x="-176" y="138" type="line" smooth="yes"/>
      <point x="-184" y="90"/>
      <point x="-191" y="56"/>
      <point x="-211" y="56" type="curve" smooth="yes"/>
      <point x="-232" y="56"/>
      <point x="-248" y="76"/>
      <point x="-269" y="105" type="curve"/>
      <point x="-320" y="65" type="line"/>
      <point x="-290" y="15"/>
      <point x="-254" y="-8"/>
    </contour>
  </outline>
</glyph>
<glyph name="uni118D8.sm" format="2">
  <advance width="655"/>
  <outline>
    <contour>
      <point x="317" y="-8" type="curve" smooth="yes"/>
      <point x="392" y="-8"/>
      <point x="457" y="45"/>
      <point x="470" y="119" type="curve" smooth="yes"/>
      <point x="497" y="276" type="line" smooth="yes"/>
      <point x="505" y="324"/>
      <point x="512" y="358"/>
      <point x="532" y="358" type="curve" smooth="yes"/>
      <point x="553" y="358"/>
      <point x="569" y="338"/>
      <point x="590" y="309" type="curve"/>
      <point x="641" y="349" type="line"/>
      <point x="611" y="399"/>
      <point x="575" y="422"/>
      <point x="537" y="422" type="curve" smooth="yes"/>
      <point x="468" y="422"/>
      <point x="442" y="370"/>
      <point x="429" y="296" type="curve" smooth="yes"/>
      <point x="402" y="139" type="line" smooth="yes"/>
      <point x="392" y="79"/>
      <point x="351" y="58"/>
      <point x="320" y="58" type="curve" smooth="yes"/>
      <point x="258" y="58"/>
      <point x="248" y="120"/>
      <point x="239" y="179" type="curve" smooth="yes"/>
      <point x="224" y="278" type="line" smooth="yes"/>
      <point x="211" y="361"/>
      <point x="176" y="398"/>
      <point x="116" y="398" type="curve" smooth="yes"/>
      <point x="69" y="398"/>
      <point x="33" y="373"/>
      <point x="2" y="324" type="curve"/>
      <point x="54" y="283" type="line"/>
      <point x="75" y="313"/>
      <point x="92" y="333"/>
      <point x="108" y="333" type="curve" smooth="yes"/>
      <point x="132" y="333"/>
      <point x="149" y="323"/>
      <point x="157" y="272" type="curve" smooth="yes"/>
      <point x="175" y="153" type="line" smooth="yes"/>
      <point x="187" y="77"/>
      <point x="214" y="-8"/>
    </contour>
  </outline>
</glyph>
